<svg width="33" height="32" viewBox="0 0 33 32" fill="none" xmlns="http://www.w3.org/2000/svg">
<path fill-rule="evenodd" clip-rule="evenodd" d="M16.5 28.1791C23.6797 28.1791 29.5 22.5426 29.5 15.5896C29.5 8.63654 23.6797 3 16.5 3C9.3203 3 3.5 8.63654 3.5 15.5896C3.5 19.3712 5.22168 22.7634 7.94737 25.0711V27.6188C7.94737 28.6145 8.9616 29.2824 9.86588 28.8821L12.693 27.6307C13.897 27.9873 15.1754 28.1791 16.5 28.1791Z" fill="url(#paint0_linear_795_2956)"/>
<path d="M13.387 12.9133L9.61723 18.0689C9.21304 18.6217 9.93994 19.2858 10.4933 18.8693L13.7123 16.4469C14.0399 16.2003 14.4992 16.197 14.8307 16.4388L17.6935 18.5272C18.2425 18.9277 19.0272 18.8125 19.4269 18.2727L23.3805 12.9341C23.7905 12.3804 23.058 11.7109 22.5038 12.1328L19.1006 14.7236C18.7729 14.9731 18.3112 14.9777 17.9782 14.7347L15.1247 12.6531C14.5733 12.2509 13.785 12.369 13.387 12.9133Z" fill="white"/>
<defs>
<linearGradient id="paint0_linear_795_2956" x1="16.5" y1="3" x2="12.3286" y2="28.8583" gradientUnits="userSpaceOnUse">
<stop stop-color="#00B1FF"/>
<stop offset="1" stop-color="#006BFF"/>
</linearGradient>
</defs>
</svg>
