<svg width="197" height="30" viewBox="0 0 197 30" fill="none" xmlns="http://www.w3.org/2000/svg">
<g clip-path="url(#clip0_29_923)">
<path d="M21.2844 23.6153C21.246 23.6153 21.2075 23.6025 21.1691 23.6025C17.7626 23.2568 14.8043 21.6047 12.2686 18.6336C12.2686 18.6336 12.2686 18.6336 12.2814 18.6336C4.77671 15.9314 1.13965 11.3723 1.13965 11.3723C5.95492 15.5728 11.5514 17.0328 11.5514 17.0328C6.72331 14.433 4.39252 10.8088 4.39252 10.8088C6.87699 13.6774 11.7179 16.5461 17.9034 17.3145C24.089 18.0829 27.3419 16.354 30.0313 14.5739C30.1081 14.5227 30.1977 14.4714 30.2746 14.4202C30.2106 14.4074 30.1465 14.3946 30.0953 14.3818C28.3408 14.0232 27.4059 13.1396 27.3035 11.7308V11.321C25.8435 10.8472 24.883 10.0276 24.422 8.84937L24.3067 8.50359C21.3868 7.42784 20.0806 5.76298 19.6708 5.39159C19.0816 4.85372 19.0688 4.46952 19.453 4.71285C19.8372 4.95617 22.3729 6.30086 25.7026 7.08206C29.0324 7.86326 32.0803 6.94119 33.9373 8.3243C35.1667 9.24637 35.3716 10.6295 34.5392 12.4864L34.5008 12.4608L34.5264 12.5889C34.949 12.5505 35.3588 12.5633 35.7814 12.6145C36.9084 12.7554 37.7408 13.3573 38.2787 14.4458L40.7247 14.5995C40.507 14.6892 40.3021 14.7788 40.1228 14.8556L38.0866 16.1363C37.8305 16.5077 37.5231 16.9815 36.9596 17.7755C36.0888 19.0178 34.8721 21.9889 31.3375 22.8982H31.3247C29.0324 26.9835 26.2661 27.1243 21.0154 27.5598C15.4446 28.0208 13.8694 28.866 13.0754 29.263C12.4735 29.5576 12.6399 27.3805 17.8266 26.0102L18.0699 25.7028C19.0048 24.8063 20.0678 24.102 21.2844 23.6153ZM15.2909 20.7723C17.9931 22.8213 20.7465 22.8854 21.5405 22.8854C22.3345 22.8854 23.6536 22.4499 24.486 21.0668C25.3184 19.6837 20.247 20.2088 17.404 19.7478C14.5609 19.2995 12.5887 18.7104 15.2909 20.7723ZM33.3738 19.3892C32.567 19.3892 31.4656 21.1309 31.4656 22.0017C31.4656 22.8726 34.6032 20.5802 34.6032 19.9655C34.6032 19.3636 34.1934 19.3892 33.3738 19.3892Z" fill="#69BD30"/>
<path d="M34.3089 20.2088C34.9108 20.6315 36.0506 19.6838 36.7293 18.7233C37.4081 17.75 37.8307 16.5462 37.2416 16.1363C36.6397 15.7137 35.4359 16.3541 34.7571 17.3274C34.0784 18.3007 33.7198 19.799 34.3089 20.2088Z" fill="#FF8764"/>
<path d="M40.853 10.0532C42.2105 12.4992 43.8498 13.4981 45.7707 13.0499C47.6917 12.6017 49.0108 11.7564 49.7408 10.5014C48.1528 8.81093 46.5007 8.10657 44.7974 8.40112C43.0814 8.68286 41.7751 9.23355 40.853 10.0532Z" fill="#69BD30"/>
<path d="M38.2915 25.5492C39.5849 25.5492 40.6735 24.6015 40.6735 23.641C40.6735 22.6805 39.5849 22.053 38.2915 22.053C36.998 22.053 36.1015 22.6549 35.9479 23.8075C35.7942 24.9473 36.998 25.5492 38.2915 25.5492Z" fill="#FF8764"/>
<path d="M44.1313 22.3602C43.0555 21.9504 42.4536 20.8874 42.7994 19.9782C43.1452 19.0689 44.3106 18.6847 45.3863 19.0945C46.4621 19.5043 47.192 20.2215 46.7182 21.4765C46.2443 22.7188 45.2198 22.77 44.1313 22.3602Z" fill="#FF8764"/>
<path d="M37.5873 6.67227C36.4988 7.03085 35.4999 6.99243 35.1541 5.90387C34.8083 4.81531 35.5895 4.18779 36.6781 3.82921C37.7666 3.47062 38.8552 3.8164 39.1113 4.5976C39.3675 5.3788 38.6759 6.31368 37.5873 6.67227Z" fill="#FF8764"/>
<path d="M44.5026 27.4829C44.1824 28.8276 42.9274 29.6344 41.8004 29.4295C40.6862 29.2246 39.9947 27.3421 40.3148 25.9974C40.635 24.6527 41.7236 24.3453 42.8121 24.5374C43.9007 24.7295 44.8227 26.1383 44.5026 27.4829Z" fill="#FF8764"/>
<path d="M44.7079 6.62094C43.0175 6.90268 41.66 7.46617 40.6867 8.27298C40.2641 8.1065 39.9823 7.95282 39.8286 7.85037C39.2395 5.14818 39.9183 3.20158 41.327 0.857982C41.4551 0.64027 41.391 0.371332 41.1733 0.243266C40.9556 0.115201 40.6867 0.179234 40.5586 0.396945C40.072 1.21657 39.675 1.99777 39.3676 2.77897C39.2011 2.52284 38.9706 2.31793 38.676 2.16425C38.0741 1.85689 37.2929 1.81847 36.5373 2.07461C34.4499 2.76616 34.5139 4.0212 34.7316 4.71276C34.8981 5.22502 35.1927 5.59641 35.6025 5.80132C35.8586 5.92938 36.1532 5.99341 36.4989 5.99341C36.8703 5.99341 37.2801 5.91657 37.7284 5.7629C38.1254 5.63483 38.484 5.42993 38.7657 5.19941C38.6761 6.10867 38.7401 7.06917 38.9834 8.13211C38.9834 8.18334 38.9962 8.23456 39.0218 8.28579C39.1627 8.86209 39.3548 9.4768 39.5981 10.1171L39.7262 10.4373C40.1232 11.449 40.469 12.3711 40.7763 13.2163C40.7635 13.2163 40.7379 13.2035 40.7251 13.2035L38.5224 13.0626C37.9077 11.9869 36.9984 11.3594 35.8074 11.2185C35.5769 11.1929 35.3591 11.1801 35.1414 11.1673C35.9354 8.95173 35.0774 7.69669 34.1809 7.01794C32.9899 6.13429 31.466 6.10867 29.6858 6.07025C28.4308 6.04464 27.1373 6.01903 25.7798 5.69886C22.5526 4.94328 20.0297 3.6242 19.6711 3.39368C19.1588 3.07352 18.8771 3.39368 18.8259 3.45771C18.5825 3.79069 18.7618 4.26453 19.3509 4.7896C19.4022 4.82802 19.4662 4.90486 19.5558 4.9945C20.1321 5.5836 21.464 6.95391 23.9613 7.9144C23.9613 7.96563 23.9741 8.01685 23.9869 8.06808C24.4608 9.2847 25.4213 10.1555 26.8428 10.6806C26.83 10.719 26.83 10.7575 26.83 10.8087C26.9068 11.7948 27.3807 13.0242 29.1736 13.6517C26.6251 15.2654 23.5515 16.6485 17.9422 15.9313C11.5517 15.1117 6.91577 12.1021 4.70023 9.55364C4.54655 9.37435 4.29042 9.34873 4.09832 9.48961C3.91903 9.63048 3.8678 9.89942 3.99587 10.0915C4.07271 10.2068 5.35336 12.1662 7.9659 14.2408C6.04492 13.3572 3.63728 12.0125 1.42175 10.0787C1.24246 9.92503 0.986325 9.93784 0.81984 10.0915C0.653354 10.258 0.640548 10.5141 0.78142 10.6934C0.935099 10.8855 4.55936 15.3294 12.0128 18.0444C14.2667 20.6569 16.8793 22.2706 19.812 22.8725C19.0692 23.2951 18.3904 23.8073 17.7757 24.3965C17.7117 24.4605 17.6733 24.5373 17.6477 24.6142C13.3062 25.7796 12.5507 27.5084 12.4738 27.7646C12.2945 28.264 12.5122 28.5202 12.6147 28.6098C12.7043 28.6866 12.8324 28.7379 12.9733 28.7379C13.0885 28.7379 13.2166 28.7123 13.3447 28.6482C14.1131 28.2768 15.7139 27.47 21.0414 27.0346L21.4128 27.009C26.3817 26.5992 29.276 26.3687 31.6068 22.3218C34.6036 21.4766 35.9995 19.1842 36.8447 17.8011C37.0112 17.5193 37.1649 17.276 37.3057 17.0711C37.6643 16.5716 37.9205 16.1874 38.1254 15.8929C38.3943 15.4831 38.5736 15.2269 38.7785 14.9836C38.9834 14.8556 39.5213 14.5994 40.866 14.0359C40.93 14.0103 40.994 13.9591 41.0325 13.9079C42.185 17.2376 42.454 19.4147 41.0837 22.2193C41.0453 21.0667 39.8799 20.2343 38.2662 20.2343C36.7038 20.2343 35.6665 21.0411 35.4872 22.373C35.4232 22.8981 35.5641 23.3719 35.897 23.7561C36.3837 24.3196 37.2545 24.6398 38.279 24.6398C38.9194 24.6398 39.5341 24.4349 40.0207 24.1019C39.9695 24.2428 39.9183 24.3836 39.8799 24.5373C39.6493 25.5106 39.8671 26.7144 40.4177 27.5597C40.7763 28.0975 41.2246 28.4305 41.724 28.5202C41.8649 28.5458 42.0186 28.5586 42.1594 28.5586C43.4145 28.5586 44.6055 27.5853 44.9385 26.2406C45.1306 25.4594 44.9641 24.6014 44.503 23.897C44.0932 23.2695 43.5041 22.8597 42.8894 22.7444C42.518 22.6804 42.1722 22.6676 41.8521 22.706C42.2491 21.912 42.518 21.1692 42.6845 20.452C42.9919 20.8746 43.4401 21.2204 43.9652 21.4125C44.4518 21.6046 44.8616 21.6815 45.2202 21.6815C46.3856 21.6815 46.8979 20.8618 47.1284 20.2727C47.3589 19.6708 47.3717 19.1201 47.154 18.6335C46.8979 18.07 46.36 17.6218 45.5404 17.3144C44.5543 16.943 43.5041 17.1351 42.8638 17.737C42.6717 15.6111 41.7752 13.306 40.5458 10.1043L40.4177 9.78416C40.3153 9.51522 40.2256 9.25909 40.136 9.00296C40.2769 9.06699 40.4177 9.11822 40.5842 9.18225C41.8008 11.2313 43.2352 12.2558 44.8616 12.2558C45.1818 12.2558 45.5148 12.2174 45.8349 12.1406C47.8712 11.6667 49.2927 10.7318 50.0867 9.37435L50.2532 9.0926L50.0227 8.84928C48.3578 7.05636 46.5521 6.31358 44.7079 6.62094ZM37.4466 4.90486C36.8063 5.10976 36.3068 5.13537 35.9995 4.9817C35.8074 4.87924 35.6665 4.69995 35.5769 4.41821C35.4872 4.12366 35.2567 3.4193 36.8191 2.90703C37.0624 2.83019 37.3186 2.79177 37.5491 2.79177C37.818 2.79177 38.0741 2.843 38.279 2.94545C38.4199 3.02229 38.612 3.16316 38.6889 3.39368C38.8553 3.93156 38.2919 4.62311 37.4466 4.90486ZM27.7392 10.9367C28.2643 11.0648 28.8534 11.1545 29.4809 11.2185C29.4937 11.2185 29.5065 11.2185 29.5194 11.2185C29.7499 11.2185 29.942 11.052 29.9676 10.8215C29.9804 10.5654 29.8011 10.3605 29.5578 10.3348C27.291 10.1427 25.8311 9.4768 25.0883 8.28579C26.2537 8.61876 27.6368 8.86209 29.2504 8.91331C29.4937 8.93892 29.6986 8.72121 29.7115 8.47789C29.7115 8.23456 29.5194 8.02966 29.276 8.01685C24.5504 7.86317 21.9891 6.04464 20.7853 4.93047C21.9507 5.45554 23.6283 6.10867 25.5749 6.5569C27.0349 6.88987 28.4308 6.91549 29.673 6.9411C31.2867 6.96671 32.6954 6.99233 33.6431 7.70949C34.6676 8.47789 34.8341 9.63048 34.1553 11.2185C33.0155 11.385 31.8245 11.9357 30.1853 12.9858C30.1725 12.9858 30.1597 12.973 30.1469 12.973C28.6869 12.6784 27.9057 12.0125 27.7392 10.9367ZM21.2079 22.1937C18.4545 21.912 15.97 20.721 13.8057 18.6463C17.7629 19.8501 21.1823 20.3752 24.0125 20.1831C23.5771 20.5673 23.2185 21.0155 22.924 21.5278C22.8984 21.5662 22.8856 21.6174 22.8856 21.6687C22.3093 21.8095 21.7586 21.976 21.2335 22.1937C21.2207 22.1937 21.2079 22.1937 21.2079 22.1937ZM21.3488 26.1253L20.9774 26.1509C16.7512 26.4967 14.7662 27.0858 13.6648 27.5341C14.5741 26.5992 17.3275 24.9856 24.2559 24.5501C24.512 24.5373 24.6913 24.3196 24.6785 24.0763C24.6657 23.8202 24.4608 23.6281 24.2046 23.6537C22.2965 23.7689 20.7084 23.9738 19.3637 24.23C21.2847 22.8212 23.7564 22.1297 26.7147 22.1937C26.9837 22.1809 27.1758 22.0016 27.1758 21.7583C27.1886 21.5022 26.9837 21.2973 26.7403 21.2973C25.7926 21.2716 24.8962 21.3357 24.051 21.4509C24.8322 20.4264 26.0232 19.8245 27.7008 19.6324C27.9441 19.594 28.1106 19.3763 28.085 19.133C28.0466 18.8896 27.8289 18.7103 27.5856 18.7488C27.291 18.7872 26.9965 18.8384 26.7275 18.8896C26.6507 18.864 26.561 18.864 26.4714 18.8896C23.2826 19.7733 18.9283 19.3379 13.524 17.6218C11.4493 16.9558 9.64356 16.1362 8.10678 15.291C9.97653 16.1106 11.2956 16.4692 11.4109 16.4948C11.6286 16.5588 11.8591 16.4308 11.9359 16.2259C12.0128 16.021 11.9359 15.7776 11.731 15.6752C10.873 15.2013 10.0918 14.7019 9.38743 14.2024C11.7054 15.419 14.5357 16.3923 17.8142 16.8022C24.1662 17.609 27.5599 15.7776 30.2493 13.9975C33.0284 12.1662 34.2578 11.91 35.6921 12.0893C36.6142 12.2046 37.2929 12.6784 37.7668 13.5365C37.0112 13.6645 36.4221 13.8182 35.9867 13.9975C34.6164 14.561 33.7711 15.9953 31.3379 20.9643C29.1224 25.485 26.6891 25.6899 21.3488 26.1253ZM33.7711 19.7733C33.8608 19.8373 33.976 19.9013 34.1169 19.9398C33.6046 20.4136 32.9771 20.849 32.2215 21.182C32.6185 20.3752 32.9643 19.6708 33.2845 19.0561C33.3741 19.3507 33.5406 19.6068 33.7711 19.7733ZM37.3954 15.4062C37.1905 15.7008 36.9472 16.0722 36.5886 16.5716C36.4349 16.7893 36.2684 17.0583 36.0891 17.3528C35.9354 17.5962 35.769 17.8651 35.5897 18.1468C35.5641 18.1725 35.5384 18.1853 35.5128 18.2237C34.8469 19.0049 34.4115 19.1458 34.2834 19.0561C33.9888 18.8512 33.9376 17.7883 34.4243 16.9686C34.4499 16.9302 34.4627 16.8918 34.4755 16.8662C34.7957 16.3283 35.0774 15.9313 35.3335 15.6111C35.3463 15.624 35.3591 15.624 35.372 15.6368C35.5641 15.7392 35.769 15.7776 35.9739 15.7776C36.1147 15.7776 36.2556 15.752 36.3837 15.7136C36.7295 15.5983 36.9984 15.3678 37.1649 15.0477C37.2545 14.8812 37.2929 14.7147 37.3057 14.5354C37.5619 14.4842 37.8308 14.4201 38.1382 14.3817C37.8948 14.6763 37.6899 14.958 37.3954 15.4062ZM38.2919 23.7561C37.5491 23.7561 36.8959 23.5384 36.5886 23.1798C36.4221 23.0005 36.3581 22.7828 36.3965 22.5139C36.5374 21.3869 37.5107 21.1564 38.2919 21.1564C39.3932 21.1564 40.2128 21.643 40.2256 22.2962C40.2256 22.9749 39.3804 23.7561 38.2919 23.7561ZM42.2363 23.5896C42.4028 23.5896 42.5692 23.6153 42.7357 23.6409C43.1071 23.7049 43.4913 23.9866 43.7603 24.3965C44.0932 24.8959 44.2085 25.4978 44.0804 26.0357C43.8115 27.2139 42.7357 27.7902 41.9033 27.6365C41.5831 27.5853 41.3398 27.3035 41.1861 27.073C40.7635 26.4455 40.597 25.485 40.7635 24.755C40.8404 24.4349 40.9684 24.1915 41.1221 24.0251C41.1349 24.0123 41.1477 23.9994 41.1605 23.9866C41.1605 23.9866 41.1605 23.9738 41.1733 23.9738C41.4551 23.6793 41.8521 23.5896 42.2363 23.5896ZM43.2224 18.8C43.4017 18.3261 43.9267 18.0444 44.5158 18.0444C44.7592 18.0444 45.0025 18.0828 45.2202 18.1597C45.8093 18.3902 46.1807 18.6719 46.3344 19.0049C46.4624 19.2738 46.4368 19.5812 46.296 19.9654C46.0782 20.5289 45.6556 21.118 44.2853 20.5929C43.8115 20.4136 43.4401 20.0806 43.2608 19.6708C43.1712 19.4659 43.0943 19.1458 43.2224 18.8ZM45.6684 11.2825C44.2469 11.6027 43.0047 11.0392 41.9033 9.54083C42.7357 9.70732 43.7859 9.83539 45.0793 9.83539C45.3227 9.83539 45.5148 9.63048 45.5148 9.38716C45.5148 9.14383 45.3098 8.93893 45.0665 8.93893C43.6578 8.93893 42.5692 8.78525 41.7496 8.59315C42.5436 8.06808 43.5938 7.70949 44.8744 7.49178C46.3472 7.24846 47.7559 7.81195 49.1774 9.22067C48.4731 10.2068 47.2949 10.8983 45.6684 11.2825Z" fill="#272629"/>
<path d="M124.928 16.7254L128.463 12.8194H125.658L122.073 16.9687V9.10547H119.46V22.8341H122.073V19.0818L123.199 18.3006L125.889 22.8341H128.732L124.928 16.7254Z" fill="#272629"/>
<path d="M101.39 12.6399C99.8787 12.6399 98.7005 13.0881 97.8809 13.9718C97.0485 14.8682 96.6387 16.1361 96.6387 17.7881C96.6387 19.5042 97.0485 20.7977 97.8553 21.6941C98.6621 22.5778 99.8275 23.026 101.339 23.026C103.529 23.026 104.976 22.1168 105.706 20.311L103.234 20.0933C102.991 20.8873 102.402 21.2843 101.48 21.2843C100.814 21.2843 100.289 21.041 99.93 20.5415C99.5586 20.0549 99.3793 19.3121 99.3793 18.3388H105.847V18.262C105.847 16.4178 105.475 15.0219 104.707 14.0742C103.938 13.1137 102.837 12.6399 101.39 12.6399ZM99.3921 16.6996C99.4049 15.944 99.5842 15.3421 99.9172 14.9195C100.25 14.4968 100.724 14.2791 101.339 14.2791C101.915 14.2791 102.376 14.484 102.709 14.881C103.055 15.2909 103.247 15.8928 103.298 16.6996H99.3921Z" fill="#272629"/>
<path d="M90.7986 12.6399C89.2874 12.6399 88.1092 13.0881 87.2896 13.9718C86.4572 14.8682 86.0474 16.1361 86.0474 17.7881C86.0474 19.5042 86.4572 20.7977 87.264 21.6941C88.0708 22.5778 89.2362 23.026 90.7474 23.026C92.9245 23.026 94.3716 22.1168 95.1272 20.311L92.6555 20.0933C92.4122 20.8873 91.8231 21.2843 90.901 21.2843C90.2351 21.2843 89.7228 21.0282 89.3515 20.5415C88.9801 20.0549 88.8008 19.3121 88.8008 18.3388H95.2553V18.262C95.2553 16.4178 94.8839 15.0219 94.1155 14.0742C93.3471 13.1137 92.2457 12.6399 90.7986 12.6399ZM88.8008 16.6996C88.8136 15.944 88.9929 15.3421 89.3258 14.9195C89.6588 14.4968 90.1327 14.2791 90.7474 14.2791C91.3237 14.2791 91.7719 14.484 92.1177 14.881C92.4634 15.2909 92.6556 15.8928 92.7068 16.6996H88.8008Z" fill="#272629"/>
<path d="M112.327 12.6399C110.713 12.6399 109.471 13.1009 108.574 14.023C107.678 14.9451 107.229 16.2129 107.229 17.8266C107.229 19.453 107.678 20.7208 108.574 21.6429C109.458 22.565 110.687 23.026 112.262 23.026C113.863 23.026 115.118 22.565 116.028 21.6429C116.937 20.7208 117.385 19.453 117.385 17.8266C117.385 16.1489 116.95 14.8682 116.092 13.9718C115.221 13.0881 113.966 12.6399 112.327 12.6399ZM112.224 21.2459C111.494 21.2459 110.931 20.9642 110.546 20.3751C110.162 19.7988 109.97 18.9407 109.97 17.8266C109.97 15.5598 110.764 14.4328 112.352 14.4328C113.095 14.4328 113.658 14.7018 114.055 15.2396C114.452 15.7775 114.645 16.6355 114.645 17.8266C114.645 20.1061 113.838 21.2459 112.224 21.2459Z" fill="#272629"/>
<path d="M66.7992 12.6399C65.1855 12.6399 63.9433 13.1009 63.0468 14.023C62.1504 14.9451 61.7021 16.2129 61.7021 17.8266C61.7021 19.453 62.1632 20.7208 63.0468 21.6429C63.9305 22.565 65.1599 23.026 66.7351 23.026C68.3359 23.026 69.591 22.565 70.5003 21.6429C71.4095 20.7208 71.8578 19.453 71.8578 17.8266C71.8578 16.1489 71.4223 14.8682 70.5643 13.9718C69.6934 13.0881 68.4384 12.6399 66.7992 12.6399ZM66.6967 21.2459C65.9667 21.2459 65.4032 20.9642 65.0191 20.3751C64.6349 19.7988 64.4428 18.9407 64.4428 17.8266C64.4428 15.5598 65.2368 14.4328 66.8248 14.4328C67.5676 14.4328 68.131 14.7018 68.528 15.2396C68.9251 15.7775 69.1172 16.6355 69.1172 17.8266C69.1172 20.1061 68.3103 21.2459 66.6967 21.2459Z" fill="#272629"/>
<path d="M57.1432 20.7593C56.8103 21.0666 56.4004 21.2203 55.901 21.2203C54.5307 21.2203 53.8391 20.0677 53.8391 17.7625C53.8391 15.5214 54.5179 14.4072 55.8626 14.4072C56.4132 14.4072 56.8359 14.5609 57.1304 14.8682C57.4378 15.1756 57.6171 15.5854 57.6939 16.0977L60.3321 15.9696C60.14 14.9323 59.6533 14.1126 58.8721 13.5235C58.0909 12.9344 57.1176 12.6399 55.9266 12.6399C54.3898 12.6399 53.1988 13.1009 52.3664 14.023C51.5339 14.9451 51.1113 16.2385 51.1113 17.8906C51.1113 19.5042 51.5211 20.7593 52.3536 21.6685C53.186 22.5778 54.3642 23.026 55.8882 23.026C56.695 23.026 57.425 22.8467 58.0781 22.5522C58.7312 22.2576 59.2563 21.8478 59.6533 21.3099C60.0503 20.7721 60.3064 20.1573 60.3961 19.4786L57.7707 19.3633C57.6811 19.9781 57.4762 20.4519 57.1432 20.7593Z" fill="#272629"/>
<path d="M75.1236 9.7586C74.637 10.2068 74.3937 10.8728 74.3937 11.782V12.8322H72.9209V14.5867H74.3937V22.8469H76.9934V14.5867H78.9784V12.8322H76.9934V12.051C76.9934 11.6027 77.083 11.2954 77.2623 11.1161C77.4544 10.9368 77.7618 10.8472 78.21 10.8472C78.4661 10.8472 78.7223 10.8856 78.9784 10.9368V9.25915C78.3637 9.1567 77.813 9.10547 77.3264 9.10547C76.3402 9.10547 75.6103 9.31037 75.1236 9.7586Z" fill="#272629"/>
<path d="M81.4757 9.7586C80.989 10.2068 80.7457 10.8728 80.7457 11.782V12.8322H79.2729V14.5867H80.7457V22.8469H83.3454V14.5867H85.3305V12.8322H83.3454V12.051C83.3454 11.6027 83.4351 11.2954 83.6144 11.1161C83.8065 10.9368 84.1138 10.8472 84.5621 10.8472C84.8182 10.8472 85.0743 10.8856 85.3305 10.9368V9.25915C84.7157 9.1567 84.1651 9.10547 83.6784 9.10547C82.6923 9.10547 81.9623 9.31037 81.4757 9.7586Z" fill="#272629"/>
</g>
<path d="M140.702 19.9134C140.702 20.9051 140.295 21.6852 139.48 22.2536C138.671 22.8158 137.55 23.0969 136.116 23.0969C134.708 23.0969 133.628 22.8758 132.876 22.4337C132.131 21.9852 131.635 21.2904 131.389 20.3493L133.729 19.9987C133.862 20.4851 134.089 20.8293 134.411 21.0314C134.74 21.2336 135.308 21.3346 136.116 21.3346C136.862 21.3346 137.405 21.2399 137.746 21.0504C138.087 20.8609 138.258 20.564 138.258 20.1598C138.258 19.8313 138.119 19.5724 137.841 19.3829C137.569 19.1871 137.105 19.0228 136.448 18.8902C134.945 18.5933 133.931 18.3186 133.407 18.0659C132.882 17.8069 132.481 17.4753 132.203 17.0711C131.932 16.6605 131.796 16.1584 131.796 15.5646C131.796 14.5856 132.172 13.8245 132.924 13.2813C133.682 12.7317 134.752 12.457 136.135 12.457C137.354 12.457 138.334 12.6938 139.073 13.1676C139.818 13.6413 140.282 14.3266 140.465 15.2235L138.106 15.4699C138.03 15.053 137.844 14.7435 137.547 14.5414C137.25 14.3329 136.78 14.2287 136.135 14.2287C135.504 14.2287 135.03 14.3108 134.714 14.475C134.398 14.633 134.241 14.9014 134.241 15.2804C134.241 15.5773 134.361 15.8141 134.601 15.991C134.847 16.1615 135.257 16.3036 135.832 16.4173C136.634 16.5816 137.345 16.7521 137.964 16.929C138.589 17.0995 139.088 17.3048 139.461 17.5448C139.84 17.7848 140.14 18.0943 140.361 18.4733C140.588 18.846 140.702 19.326 140.702 19.9134Z" fill="#69BD30"/>
<path d="M147.06 23.0969C145.518 23.0969 144.334 22.6421 143.507 21.7325C142.679 20.8167 142.265 19.4839 142.265 17.7343C142.265 16.0415 142.685 14.7403 143.526 13.8308C144.366 12.9212 145.556 12.4664 147.097 12.4664C148.569 12.4664 149.693 12.956 150.47 13.935C151.247 14.9077 151.636 16.3352 151.636 18.2175V18.2933H145.06C145.06 19.2913 145.244 20.0461 145.61 20.5577C145.983 21.063 146.51 21.3157 147.192 21.3157C148.133 21.3157 148.727 20.9083 148.973 20.0935L151.484 20.3114C150.758 22.1684 149.283 23.0969 147.06 23.0969ZM147.06 14.1434C146.434 14.1434 145.951 14.3614 145.61 14.7972C145.275 15.233 145.098 15.8425 145.079 16.6258H149.059C149.008 15.7983 148.809 15.1793 148.462 14.7688C148.114 14.3519 147.647 14.1434 147.06 14.1434Z" fill="#69BD30"/>
<path d="M153.663 22.9074V15.0625C153.663 14.5003 153.654 14.0329 153.635 13.6602C153.622 13.2813 153.606 12.9465 153.588 12.6559H156.127C156.146 12.7696 156.171 13.117 156.203 13.6981C156.234 14.2729 156.25 14.6551 156.25 14.8446H156.288C156.547 14.1245 156.777 13.6192 156.979 13.3286C157.182 13.0318 157.422 12.8138 157.699 12.6749C157.977 12.5296 158.325 12.457 158.742 12.457C159.083 12.457 159.358 12.5043 159.566 12.5991V14.8256C159.136 14.7309 158.757 14.6835 158.429 14.6835C157.766 14.6835 157.248 14.9519 156.875 15.4888C156.509 16.0257 156.326 16.8216 156.326 17.8764V22.9074H153.663Z" fill="#69BD30"/>
<path d="M166.795 22.9074H163.612L159.945 12.6559H162.759L164.55 18.388C164.644 18.7039 164.869 19.4934 165.222 20.7567C165.285 20.4977 165.415 20.0429 165.611 19.3923C165.807 18.7418 166.533 16.4963 167.79 12.6559H170.575L166.795 22.9074Z" fill="#69BD30"/>
<path d="M172.025 10.8084V8.84717H174.687V10.8084H172.025ZM172.025 22.9074V12.6559H174.687V22.9074H172.025Z" fill="#69BD30"/>
<path d="M181.699 23.0969C180.145 23.0969 178.945 22.6358 178.098 21.7136C177.252 20.7851 176.829 19.4934 176.829 17.8385C176.829 16.1457 177.255 14.8288 178.108 13.8876C178.96 12.9402 180.17 12.4664 181.736 12.4664C182.943 12.4664 183.941 12.7696 184.73 13.376C185.52 13.9824 186.016 14.8193 186.218 15.8868L183.537 16.0194C183.461 15.4951 183.271 15.0783 182.968 14.7688C182.665 14.4529 182.235 14.295 181.68 14.295C180.309 14.295 179.624 15.4415 179.624 17.7343C179.624 20.0966 180.322 21.2778 181.717 21.2778C182.223 21.2778 182.646 21.1199 182.987 20.804C183.328 20.4819 183.54 20.005 183.622 19.3734L186.294 19.4966C186.199 20.1977 185.946 20.823 185.536 21.3725C185.131 21.922 184.598 22.3484 183.934 22.6516C183.271 22.9484 182.526 23.0969 181.699 23.0969Z" fill="#69BD30"/>
<path d="M192.424 23.0969C190.882 23.0969 189.698 22.6421 188.871 21.7325C188.043 20.8167 187.63 19.4839 187.63 17.7343C187.63 16.0415 188.05 14.7403 188.89 13.8308C189.73 12.9212 190.92 12.4664 192.462 12.4664C193.933 12.4664 195.058 12.956 195.835 13.935C196.611 14.9077 197 16.3352 197 18.2175V18.2933H190.425C190.425 19.2913 190.608 20.0461 190.974 20.5577C191.347 21.063 191.874 21.3157 192.556 21.3157C193.497 21.3157 194.091 20.9083 194.338 20.0935L196.848 20.3114C196.122 22.1684 194.647 23.0969 192.424 23.0969ZM192.424 14.1434C191.798 14.1434 191.315 14.3614 190.974 14.7972C190.639 15.233 190.462 15.8425 190.444 16.6258H194.423C194.372 15.7983 194.173 15.1793 193.826 14.7688C193.479 14.3519 193.011 14.1434 192.424 14.1434Z" fill="#69BD30"/>
<defs>
<clipPath id="clip0_29_923">
<rect width="129.359" height="29.6472" fill="white"/>
</clipPath>
</defs>
</svg>
