<svg width="66" height="49" viewBox="0 0 66 49" fill="none" xmlns="http://www.w3.org/2000/svg">
<path d="M11.9985 48.7568V45.5137C11.9985 44.2702 11.206 43.4596 9.84759 43.4596C9.16851 43.4596 8.43271 43.6758 7.92328 44.3786C7.52728 43.7839 6.96138 43.4596 6.1124 43.4596C5.54624 43.4596 4.9806 43.6217 4.52763 44.2163V43.5677H3.33911V48.7568H4.52763V45.8919C4.52763 44.9732 5.03706 44.5406 5.82958 44.5406C6.62158 44.5406 7.0181 45.0271 7.0181 45.8919V48.7568H8.20661V45.8919C8.20661 44.9732 8.77225 44.5406 9.50805 44.5406C10.3006 44.5406 10.6966 45.0271 10.6966 45.8919V48.7568H11.9985ZM29.5996 43.5677H27.6756V42.0002H26.4871V43.5677H25.4117V44.5945H26.4868V46.9731C26.4868 48.1624 26.9962 48.8649 28.3547 48.8649C28.8641 48.8649 29.4297 48.7029 29.8263 48.4867L29.4865 47.5136C29.1469 47.7298 28.7509 47.7839 28.4678 47.7839C27.9019 47.7839 27.6756 47.4597 27.6756 46.9189V44.5945H29.5996V43.5677ZM39.6739 43.4594C38.9948 43.4594 38.5421 43.7839 38.259 44.2163V43.5677H37.0705V48.7568H38.259V45.838C38.259 44.9732 38.655 44.4867 39.3908 44.4867C39.6172 44.4867 39.9003 44.5408 40.1266 44.5948L40.4662 43.5138C40.2398 43.4596 39.9003 43.4596 39.6739 43.4596V43.4594ZM24.4496 44.0001C23.8834 43.6217 23.0912 43.4596 22.2422 43.4596C20.884 43.4596 19.9786 44.1082 19.9786 45.1352C19.9786 46.0002 20.6577 46.4866 21.8462 46.6488L22.4121 46.703C23.0347 46.8108 23.3742 46.9731 23.3742 47.2435C23.3742 47.6217 22.9215 47.892 22.129 47.892C21.3367 47.892 20.7141 47.6217 20.3179 47.3516L19.752 48.2163C20.3746 48.6487 21.2236 48.8649 22.0723 48.8649C23.6571 48.8649 24.5628 48.1624 24.5628 47.1893C24.5628 46.2704 23.827 45.7838 22.6949 45.6218L22.129 45.5676C21.6196 45.5135 21.2236 45.4056 21.2236 45.0813C21.2236 44.7029 21.6196 44.4867 22.2422 44.4867C22.9215 44.4867 23.6006 44.7568 23.9401 44.919L24.4496 44.0001ZM56.0303 43.4596C55.351 43.4596 54.8983 43.7839 54.6152 44.2163V43.5677H53.4267V48.7568H54.6152V45.838C54.6152 44.9732 55.0114 44.4867 55.747 44.4867C55.9736 44.4867 56.2567 44.5408 56.483 44.5948L56.8226 43.5138C56.5962 43.4596 56.2567 43.4596 56.0303 43.4596ZM40.8624 46.1623C40.8624 47.7298 41.9942 48.8649 43.7489 48.8649C44.5412 48.8649 45.1071 48.7029 45.673 48.2705L45.1071 47.3516C44.6543 47.6759 44.2016 47.8379 43.6922 47.8379C42.73 47.8379 42.0509 47.1893 42.0509 46.1623C42.0509 45.1894 42.73 44.5406 43.6922 44.4867C44.2016 44.4867 44.6543 44.6487 45.1071 44.9732L45.673 44.0543C45.1071 43.6217 44.5412 43.4596 43.7489 43.4596C41.9942 43.4596 40.8624 44.5948 40.8624 46.1623ZM51.8422 46.1623V43.5677H50.6536V44.2163C50.2574 43.73 49.6915 43.4596 48.9557 43.4596C47.4276 43.4596 46.2391 44.5948 46.2391 46.1623C46.2391 47.7298 47.4276 48.8649 48.9557 48.8649C49.7479 48.8649 50.3141 48.5948 50.6536 48.1082V48.7568H51.8422V46.1623ZM47.4841 46.1623C47.4841 45.2433 48.1067 44.4867 49.1253 44.4867C50.0875 44.4867 50.7668 45.1894 50.7668 46.1623C50.7668 47.0812 50.0875 47.8379 49.1253 47.8379C48.1067 47.7837 47.4841 47.0812 47.4841 46.1623ZM33.2786 43.4596C31.6938 43.4596 30.5618 44.5406 30.5618 46.1623C30.5618 47.7839 31.6936 48.8649 33.3351 48.8649C34.1273 48.8649 34.9199 48.6487 35.5425 48.1624L34.9763 47.3516C34.5236 47.6759 33.9577 47.892 33.3918 47.892C32.656 47.892 31.9202 47.5678 31.7503 46.6486H35.7688V46.2164C35.8256 44.5406 34.8067 43.4596 33.2784 43.4596H33.2786ZM33.2786 44.4325C34.0142 44.4325 34.5239 44.8651 34.6368 45.676H31.807C31.9202 44.9732 32.4296 44.4325 33.2786 44.4325ZM62.7652 46.1623V41.5137H61.5766V44.2163C61.1804 43.73 60.6145 43.4596 59.8787 43.4596C58.3506 43.4596 57.1621 44.5948 57.1621 46.1623C57.1621 47.7298 58.3506 48.8649 59.8787 48.8649C60.6712 48.8649 61.2371 48.5948 61.5766 48.1082V48.7568H62.7652V46.1623ZM58.4073 46.1623C58.4073 45.2433 59.0297 44.4867 60.0486 44.4867C61.0107 44.4867 61.6898 45.1894 61.6898 46.1623C61.6898 47.0812 61.0107 47.8379 60.0486 47.8379C59.0297 47.7837 58.4073 47.0812 58.4073 46.1623ZM18.6766 46.1623V43.5677H17.4881V44.2163C17.0919 43.73 16.526 43.4596 15.7902 43.4596C14.2621 43.4596 13.0736 44.5948 13.0736 46.1623C13.0736 47.7298 14.2621 48.8649 15.7902 48.8649C16.5827 48.8649 17.1486 48.5948 17.4881 48.1082V48.7568H18.6766V46.1623ZM14.2621 46.1623C14.2621 45.2433 14.8847 44.4867 15.9033 44.4867C16.8655 44.4867 17.5448 45.1894 17.5448 46.1623C17.5448 47.0812 16.8655 47.8379 15.9033 47.8379C14.8847 47.7837 14.2621 47.0812 14.2621 46.1623Z" fill="white"/>
<path d="M24.0535 4.16211H41.8812V34.7566H24.0535V4.16211Z" fill="#FF5F00"/>
<path d="M25.1854 19.4594C25.1854 13.2433 28.2416 7.72969 32.9389 4.16205C29.4868 1.56751 25.129 0 20.3749 0C9.11187 0 0 8.70255 0 19.4594C0 30.216 9.11187 38.9188 20.3747 38.9188C25.1287 38.9188 29.4865 37.3513 32.9389 34.7565C28.2416 31.243 25.1854 25.6755 25.1854 19.4594Z" fill="#EB001B"/>
<path d="M65.9345 19.4594C65.9345 30.216 56.8226 38.9188 45.5598 38.9188C40.8058 38.9188 36.448 37.3513 32.9956 34.7565C37.7497 31.1891 40.7493 25.6755 40.7493 19.4594C40.7493 13.2433 37.6929 7.72969 32.9956 4.16205C36.4477 1.56751 40.8058 0 45.5598 0C56.8226 0 65.9348 8.75672 65.9348 19.4594H65.9345Z" fill="#F79E1B"/>
</svg>
