<svg width="28" height="28" viewBox="0 0 28 28" fill="none" xmlns="http://www.w3.org/2000/svg">
<path fill-rule="evenodd" clip-rule="evenodd" d="M15.6188 9.79212C16.1639 9.90828 16.5817 10.1154 16.9387 10.4497C17.3981 10.8835 17.6498 11.4085 17.7605 12.1627C17.8353 12.6545 17.8047 12.8478 17.6304 13.0082C17.4672 13.1574 17.1655 13.1628 16.9829 13.022C16.8501 12.9224 16.8085 12.8174 16.7781 12.5328C16.7422 12.1542 16.6757 11.8891 16.5622 11.6432C16.3188 11.121 15.8898 10.8502 15.1648 10.7618C14.8245 10.7203 14.7221 10.6818 14.6114 10.5518C14.4093 10.3114 14.4869 9.92184 14.7663 9.77812C14.8715 9.72563 14.9157 9.72016 15.1482 9.73394C15.2924 9.74225 15.5054 9.76719 15.6188 9.79212ZM15.0294 7.70591C16.7092 7.95178 18.0097 8.73097 18.8622 9.99644C19.341 10.7093 19.6398 11.5465 19.7422 12.4445C19.7781 12.7732 19.7781 13.3728 19.7393 13.4724C19.7032 13.5662 19.5871 13.6933 19.4876 13.7458C19.3797 13.8012 19.15 13.7955 19.0227 13.7292C18.8097 13.6213 18.746 13.4501 18.746 12.9859C18.746 12.2703 18.5605 11.5159 18.2396 10.9301C17.8743 10.2613 17.3429 9.70878 16.6954 9.32466C16.1392 8.99303 15.3173 8.74716 14.5674 8.68634C14.2962 8.66425 14.1468 8.60891 14.0444 8.49012C13.8867 8.31053 13.8701 8.06728 14.0028 7.86559C14.1466 7.64247 14.3679 7.60638 15.0294 7.70591ZM8.51244 6.00119C8.60934 6.03444 8.75875 6.11166 8.8445 6.167C9.37016 6.51525 10.834 8.38578 11.3129 9.31962C11.5868 9.85294 11.6782 10.248 11.5924 10.5409C11.5038 10.8559 11.3573 11.0217 10.7013 11.5493C10.4383 11.762 10.192 11.9803 10.1533 12.0385C10.0538 12.1822 9.97347 12.4639 9.97347 12.663C9.97631 13.1243 10.2751 13.9617 10.668 14.6055C10.9723 15.1056 11.5174 15.7465 12.0571 16.2385C12.6908 16.8188 13.2497 17.2139 13.8808 17.526C14.6917 17.9294 15.1869 18.0316 15.5494 17.8631C15.6406 17.8216 15.7375 17.7664 15.7679 17.7415C15.7955 17.7166 16.0088 17.4569 16.2411 17.1695C16.6893 16.6057 16.7917 16.5145 17.099 16.4095C17.4893 16.277 17.8876 16.3128 18.289 16.5174C18.5935 16.6749 19.2577 17.0866 19.6864 17.3849C20.251 17.78 21.4574 18.7637 21.6208 18.9599C21.9085 19.3137 21.9583 19.7667 21.7648 20.267C21.56 20.7946 20.7631 21.7838 20.2068 22.2066C19.7033 22.5879 19.3463 22.7342 18.8757 22.7563C18.4883 22.7756 18.3277 22.7426 17.8325 22.538C13.9475 20.9383 10.8454 18.5511 8.3825 15.2712C7.09581 13.5581 6.11603 11.7814 5.44644 9.93847C5.05619 8.86375 5.03694 8.39672 5.35784 7.84678C5.49631 7.61469 6.08563 7.04003 6.51459 6.71956C7.22859 6.18909 7.55781 5.99288 7.82075 5.93753C8.00056 5.89881 8.31338 5.92922 8.51244 6.00119ZM14.8385 5.70281C15.7905 5.82159 16.5596 6.05084 17.4037 6.46275C18.2339 6.86897 18.7653 7.25309 19.4681 7.952C20.1268 8.61241 20.4921 9.11247 20.8795 9.88881C21.4191 10.9718 21.7262 12.2596 21.7787 13.6769C21.7982 14.1603 21.7842 14.2682 21.6735 14.4064C21.4633 14.6744 21.0011 14.6302 20.8434 14.329C20.7935 14.2295 20.7797 14.1439 20.7631 13.757C20.7353 13.1628 20.694 12.7789 20.6108 12.3202C20.2843 10.5214 19.4208 9.08469 18.0427 8.05394C16.8943 7.19184 15.7071 6.77184 14.152 6.68062C13.6262 6.65022 13.5349 6.63097 13.4159 6.53975C13.1946 6.36562 13.1834 5.95678 13.3965 5.76603C13.5266 5.64725 13.6178 5.63062 14.0689 5.64441C14.3045 5.65294 14.6503 5.68072 14.8385 5.70281ZM14 0C21.7319 0 28 6.26806 28 14C28 21.7319 21.7319 28 14 28C6.26806 28 0 21.7319 0 14C0 6.26806 6.26806 0 14 0Z" fill="#7F4DA0"/>
</svg>
