<svg width="81" height="49" viewBox="0 0 81 49" fill="none" xmlns="http://www.w3.org/2000/svg">
<path d="M3.24 0C1.45095 0 0 1.39728 0 3.12102V45.879C0 47.6026 1.45168 49 3.24 49H77.76C79.549 49 81 47.6027 81 45.879V3.12102C81 1.39736 79.5483 0 77.76 0H3.24ZM48.3773 14.6029C50.3486 14.6029 51.9285 15.0224 52.936 15.4125L52.2475 19.5844L51.7919 19.3625C50.8533 18.9724 49.6478 18.5971 47.9849 18.6237C45.9942 18.6237 45.074 19.4791 45.074 20.2794C45.0624 21.1811 46.1493 21.7758 47.9266 22.6664C50.8602 24.0404 52.2161 25.7064 52.197 27.8965C52.1574 31.8928 48.6877 34.4751 43.3426 34.4751C41.0622 34.4509 38.8653 33.9859 37.6776 33.4485L38.3915 29.1376L39.0471 29.4449C40.7171 30.1636 41.7984 30.4544 43.8336 30.4544C45.2951 30.4544 46.8638 29.8649 46.8762 28.5744C46.8857 27.7317 46.2205 27.1309 44.2411 26.1873C42.3124 25.2663 39.7554 23.7235 39.7837 20.9572C39.8139 17.215 43.3528 14.6029 48.3773 14.6029ZM7.1634 15.215H15.3723C16.4777 15.2552 17.3701 15.5981 17.6782 16.7536L19.4476 25.5509C19.4479 25.5517 19.4473 25.5549 19.4476 25.5558L19.9791 28.1916L24.9631 15.215H30.3547L22.3408 34.2093L16.9543 34.2142L12.6664 18.887C15.2177 20.189 17.3898 21.6955 18.6477 23.7685C18.3234 23.1126 17.8961 22.3721 17.3492 21.6423C16.7124 20.7925 15.3371 19.6952 14.7622 19.2284C12.7591 17.6018 10.0387 16.2881 7.10014 15.5929L7.1634 15.215ZM32.4987 15.2369H37.7714L34.473 34.202H29.2005L32.4987 15.2369ZM62.2789 15.2369H66.2732L70.4548 34.202H65.6606C65.6606 34.202 65.185 32.0232 65.0304 31.3589C64.2768 31.3589 59.0066 31.3517 58.4136 31.3517C58.213 31.8651 57.3252 34.2019 57.3252 34.2019H51.9007L59.573 16.8121C60.1162 15.5763 61.0421 15.2369 62.2789 15.2369ZM62.6712 20.3378C62.4118 21.0432 61.9601 22.1824 61.9903 22.1324C61.9903 22.1324 60.3673 26.3021 59.9426 27.3845L64.2076 27.382C63.8114 25.5736 63.4149 23.7653 63.018 21.957L62.6712 20.338V20.3378Z" fill="#CACDCF"/>
</svg>
