<svg width="145" height="26" viewBox="0 0 145 26" fill="none" xmlns="http://www.w3.org/2000/svg">
<path fill-rule="evenodd" clip-rule="evenodd" d="M122.703 0.656526H126.716C127.049 0.656526 127.621 0.5344 127.924 0.656526C128.105 0.717588 128.466 1.57247 128.617 1.75565C128.828 2.03044 129.13 2.21363 129.341 2.48841C129.643 2.91585 129.794 3.37382 130.126 3.80126C130.216 3.89285 130.458 4.01498 130.549 4.10657C130.669 4.25923 130.608 4.44241 130.73 4.6256C130.82 4.74773 131.152 4.89996 131.243 5.02251C131.574 5.44995 131.725 5.90792 132.057 6.33536C132.238 6.61014 132.66 6.88492 132.841 7.15971C135.014 10.0297 137.156 12.9301 139.389 15.7085C139.479 15.0979 139.389 14.243 139.389 13.6629C139.419 9.44956 139.419 4.16763 139.691 0.656526C141.23 0.778651 143.191 0.74812 144.91 0.74812C144.91 8.8084 144.729 16.8687 144.729 25.0511H140.686C140.355 25.0511 139.781 25.1427 139.479 25.0511C139.238 24.9591 137.398 22.1201 137.065 21.6926C136.764 21.2648 136.281 20.8683 135.979 20.471C135.315 19.555 134.833 18.6696 134.169 17.8147C134.079 17.7231 133.837 17.601 133.746 17.5094C133.354 17.0209 133.143 16.5019 132.751 16.0134C132.66 15.9218 132.419 15.7997 132.359 15.7081C132.238 15.5554 132.268 15.3722 132.148 15.1886C132.027 15.0364 131.755 14.9448 131.634 14.7917C131.513 14.6081 131.543 14.4559 131.453 14.2727C131.091 13.7532 130.518 13.2647 130.126 12.7461C129.552 11.9824 129.099 11.1886 128.527 10.4253L128.013 9.81466H127.832C127.832 15.9515 127.712 18.913 127.712 24.9277C127.712 24.9277 127.048 24.9887 127.229 24.9277C125.63 24.9277 123.819 24.9578 122.401 24.8357C122.401 17.1125 122.401 8.10618 122.703 0.656526ZM64.8942 0.74812C65.5881 0.687057 66.5838 0.839714 67.0967 0.839714C68.2433 0.870245 69.782 0.74812 71.4415 0.74812C72.9505 0.74812 74.9419 0.931732 76.1479 0.839714V5.72473H67.6096C66.4329 5.72473 64.9545 5.57207 64.0795 5.93845C63.2347 6.30483 62.4201 7.64821 62.8726 8.99159C62.9028 9.08318 63.114 9.20531 63.1744 9.2969C63.3554 9.54115 63.4459 9.84647 63.6873 9.99912C65.1657 11.0372 69.8424 10.2434 72.226 10.5182C73.4031 10.6403 74.7001 11.1898 75.5449 11.7394C75.6358 11.8005 75.6652 11.9837 75.7561 12.0447C77.3552 13.2656 78.3505 14.762 78.5617 17.4488C78.5617 17.4187 78.6828 17.7541 78.6828 17.9067C78.5617 18.9758 78.3505 20.0439 77.9582 20.8683C77.2035 22.486 75.7255 23.9825 74.0363 24.6232C72.5876 25.2033 70.3855 25.0511 68.4239 25.0511C68.8463 25.0511 68.3032 25.1427 68.3032 25.1427C68.6049 25.1121 67.7601 25.1427 67.6997 25.1427C64.9541 25.0511 61.1826 25.0511 57.9542 25.0511V20.1656C59.6438 19.9519 61.1826 20.1656 62.7821 20.1656C64.1399 20.1351 66.1916 19.9214 68.5148 20.0435C69.0277 20.074 71.4415 20.3183 72.4372 19.9519C72.8294 19.7993 73.6143 18.8528 73.7346 18.4249C73.885 17.9674 73.7647 16.8984 73.5535 16.5324C73.4928 16.4099 73.2212 16.3183 73.1311 16.2267C73.101 16.1656 73.0704 15.9523 73.0402 15.9214C71.8635 14.8833 66.7644 15.616 64.5924 15.4023C61.8166 15.0966 59.8856 13.509 58.8598 11.4332C57.9848 9.69296 57.6529 7.55577 58.4675 5.41857C59.4029 2.94638 61.7261 0.992371 64.8942 0.74812ZM50.7133 0.839714H55.9331C55.9331 10.396 56.0538 17.4182 56.0538 25.0511C54.4546 25.1728 52.1917 25.1728 50.6228 25.0511C50.6228 17.082 50.4116 8.65574 50.7133 0.839714ZM108.523 0.0458984C111.117 0.0458984 113.743 0.992371 115.341 2.06097C115.552 2.21363 115.764 2.51894 115.945 2.6716C116.578 3.12957 117.242 3.55701 117.754 4.10657V4.32029C117.815 4.47295 118.509 5.02251 118.659 5.23623C119.173 5.93845 119.475 6.64067 119.867 7.46502C123.608 15.0368 118.931 22.6081 113.229 24.929C110.966 25.875 107.858 26.3533 104.992 25.5392C97.2076 23.2798 92.9227 14.0598 97.8412 5.84686C95.5783 5.57208 92.8632 5.72473 90.4495 5.72473C90.4495 10.4876 90.5999 15.8917 90.3283 19.3413C90.4796 19.3413 90.4796 19.4333 90.3283 19.4333C90.4495 19.4944 90.2684 19.7692 90.4495 19.8608C90.6607 19.9523 90.3283 19.9523 90.3283 19.9523C90.3283 21.3263 90.2684 23.0055 90.4495 24.2267C90.4495 24.3183 90.3283 24.6236 90.3283 24.5321C90.3283 24.7152 90.3585 24.9595 90.3283 25.1427C89.3029 24.99 89.0008 25.1427 88.0357 25.1427C87.1607 25.1427 86.0443 25.0206 85.109 25.1427C84.928 22.8219 84.9586 19.8913 85.109 17.8152C84.8375 17.8152 85.109 16.6244 85.109 16.6244C85.0482 13.2354 85.0181 9.35796 85.0181 5.84686C82.6952 5.66367 79.9492 5.72473 77.4751 5.72473V0.74812C80.4927 0.931732 84.1733 0.900777 86.8284 0.74812C87.7943 0.687057 89.212 0.809607 90.4495 0.839714C91.2943 0.870245 91.837 0.717588 92.8632 0.74812C93.4361 0.778651 95.9709 0.809607 97.9623 0.74812C98.0524 1.99991 97.8714 4.2287 97.9623 5.1141L98.1433 5.54154C98.3244 5.29729 98.3545 5.05304 98.5657 4.80879C98.7468 4.59507 99.3498 4.25923 99.4709 4.01498V3.80126H99.6519C99.773 3.77072 100.919 2.54947 101.161 2.36628C102.911 1.1145 105.596 0.0458984 108.523 0.0458984ZM108.221 5.63314C103.363 5.87739 99.7429 10.6097 101.673 15.7085C101.854 16.1966 101.915 16.5939 102.187 17.0213C102.217 17.1129 102.428 17.1435 102.488 17.2351C102.911 17.8457 103.213 18.151 103.786 18.6395C103.876 18.7006 103.967 18.9753 104.088 19.0364C104.209 19.128 104.359 19.0364 104.48 19.128C104.571 19.1895 104.601 19.3722 104.691 19.4337C105.838 20.1665 107.769 20.7156 109.609 20.3497C113.984 19.5253 117.243 14.762 114.95 9.81636C114.588 9.02254 114.135 8.1982 113.532 7.67916C113.079 7.28226 112.657 7.06854 112.144 6.76322C111.147 6.15217 109.85 5.54154 108.221 5.63314ZM27.1791 0.839714H36.623C38.2221 0.839714 40.1229 0.778651 41.5712 0.961839C42.1143 1.0229 42.4763 0.992371 42.9591 1.14503C44.4979 1.63353 45.7651 2.94638 46.5797 4.19816C46.7004 4.35082 47.0323 4.65613 47.0927 4.80879C47.1228 4.93092 47.0323 4.99198 47.0927 5.1141C47.847 6.7628 47.9677 8.47255 47.3944 10.4266C46.791 12.4416 45.222 14.1514 43.3815 14.8841C42.7479 15.1589 42.2651 15.0979 41.5712 15.3116L41.36 15.4952C41.7522 16.0448 42.2651 16.5027 42.6574 17.0218C42.8082 17.2355 42.8082 17.4492 42.9591 17.6019C43.0798 17.7541 43.3815 17.8766 43.472 18.0293C43.5927 18.1819 43.5625 18.3651 43.6832 18.5178C43.8039 18.7315 44.1358 18.8536 44.2867 19.0368C45.041 20.0138 45.6444 20.9908 46.3987 21.9984C46.5797 22.2422 47.0022 22.5174 47.1832 22.7922C47.5754 23.3112 47.7866 23.8298 48.209 24.3188C48.2996 24.4409 48.6013 24.5935 48.6918 24.7462C48.7823 24.8683 48.722 25.021 48.8125 25.1435H43.472C43.0496 25.1435 42.3557 25.2958 41.9634 25.1435C41.8126 25.082 41.2091 24.0139 41.0583 23.8303C39.2479 21.5709 37.4079 19.2505 35.6277 17.0218C35.4165 16.7474 34.7527 15.5868 34.5114 15.4952C33.9984 15.3116 33.0631 15.4952 32.52 15.4952C32.2484 18.9452 32.52 21.632 32.52 25.1431C28.5373 25.1431 24.283 25.2042 21.2357 25.2347C20.5417 23.6776 19.8477 22.09 19.2443 20.4718H8.08065C7.35652 21.9988 6.69274 23.6165 6.05912 25.2347H0.115234C0.688503 24.0134 1.08074 22.8532 1.62384 21.5705C2.07642 20.5935 2.71003 19.4944 3.13244 18.5178C3.58502 17.5103 3.79622 16.7164 4.2488 15.7089C4.97293 14.0602 5.93844 12.2589 6.66257 10.6102C8.11082 7.37385 9.40822 4.13753 10.8867 0.962263H16.1064C16.8004 2.64149 17.5848 4.13752 18.2185 5.84728C18.2486 5.90834 18.3995 5.87781 18.4297 5.93888C19.0331 7.28226 19.4253 8.47298 20.0288 9.81636L20.24 9.90795C20.5719 10.7934 20.9943 11.4651 21.3563 12.2589C23.1667 16.3806 25.0072 20.4413 26.9683 24.4409V5.93888C26.908 5.90834 26.9382 5.60303 26.9683 5.32825C26.908 5.29772 26.7571 5.23665 26.9683 5.23665C26.9683 4.90081 26.8778 1.08439 26.8778 1.05386C26.9076 0.992371 27.1494 0.900777 27.1791 0.839714ZM32.3989 5.84686V10.4266C34.2997 10.5792 40.7867 10.854 41.9634 10.1212C42.3858 9.81593 42.8686 8.99159 42.9591 8.38096C42.9893 8.19777 42.8686 7.86193 42.8686 7.86193C42.5975 6.82386 42.2048 6.03005 41.1488 5.84686C40.304 5.66367 39.3083 5.84686 38.4333 5.84686H32.3989ZM13.6017 7.46502C12.7871 9.26637 12.0629 11.0677 11.2789 12.9607C10.947 13.7541 10.5543 14.4872 10.2832 15.4032H17.0116C16.5288 14.0598 16.0762 12.8691 15.5026 11.5253C15.3215 11.0673 14.8995 10.4872 14.7181 9.9987C14.3862 9.20488 14.2353 8.56372 13.9034 7.76991C13.8733 7.67874 13.6319 7.52608 13.6017 7.46502Z" fill="#707070" stroke="#707070" stroke-width="1.56062" stroke-miterlimit="2.613"/>
</svg>
