<svg width="89" height="33" viewBox="0 0 89 33" fill="none" xmlns="http://www.w3.org/2000/svg">
<path d="M9.09533 21.0077L13.3325 10.5515L17.5099 21.0077H9.09533ZM9.11714 0.000144958L11.1391 5.06121L0 32.5483H4.41866L7.57907 24.7494H19.0047L22.1204 32.5483H31.1077L18.1038 0.000144958H9.11714Z" fill="#707070"/>
<path d="M43.3576 17.9951H53.8648L55.406 14.192H43.3576V3.91899H56.5352L58.1235 0.000144958H34.9434V32.5483H56.8781L58.4664 28.629H43.3576V17.9951Z" fill="#707070"/>
<path d="M75.605 17.9949H81.1507V29.0087C80.487 29.1869 79.7275 29.292 78.9229 29.2916C71.4471 29.2916 69.26 22.504 69.26 16.5C69.26 10.7395 71.1365 3.91885 78.3636 3.91885H86.066L87.6538 3.8147e-06H77.4594C67.5608 3.8147e-06 60.5742 6.70045 60.5742 16.5C60.5742 26.1783 67.2847 33 77.6897 33C82.8733 33 86.2335 32.0324 88.9997 31.0869V14.1919H77.146L75.605 17.9949Z" fill="#707070"/>
</svg>
