<svg width="155" height="24" viewBox="0 0 155 24" fill="none" xmlns="http://www.w3.org/2000/svg">
<path fill-rule="evenodd" clip-rule="evenodd" d="M94.4748 17.1044H81.3647L81.0137 18.8639C81.0137 18.8639 80.5947 19.595 81.1909 20.021C81.5975 20.3112 82.4618 20.2618 82.4618 20.2618H95.8339L95.0657 23.5735H78.4313C75.6021 23.5735 74.1874 22.3264 74.1874 19.8323C74.1874 19.2899 74.2589 18.6972 74.4017 18.0552L75.55 12.4398C75.8834 10.7359 76.5678 9.44034 77.7796 8.37936C79.0169 7.2928 80.4651 6.74952 82.1293 6.74952H92.3299C94.6829 6.74952 95.8594 7.95955 95.8594 10.3787C95.8594 10.6257 95.8409 10.9679 95.803 11.3418C95.7527 11.8075 95.6804 12.0818 95.6099 12.5263L94.4748 17.1044ZM88.728 12.6471L89.0332 11.4194C89.0332 11.4194 89.274 10.6574 88.945 10.4061C88.7501 10.2579 88.3356 10.25 88.3356 10.25H84.3527C84.3527 10.25 83.783 10.2685 83.4549 10.4043C83.021 10.586 82.7899 11.4247 82.7899 11.4247L82.4865 12.6471H88.728ZM56.0626 10.2738C53.6222 10.2738 52.6494 13.1145 52.6494 13.1145L50.2144 23.5735H42.657L45.7518 10.1591C45.7518 10.1591 46.079 8.4455 47.8032 7.55474C49.3624 6.74952 51.4923 6.74952 53.5093 6.74776L52.9123 9.13871C53.2747 8.66334 53.9547 8.02746 54.7864 7.55386C56.2637 6.71337 57.3396 6.74864 59.07 6.74864H61.057C61.057 6.74864 60.3188 9.63789 60.2051 10.2729C60.2059 10.2738 59.4378 10.2738 56.0626 10.2738ZM72.8954 3.2923H65.7155L66.4272 0H73.6071L72.8954 3.2923ZM68.0561 23.5735H60.8612L64.8053 6.7557H72.0002L68.0561 23.5735ZM115.571 23.5735H104.197C102.747 23.5735 101.716 23.301 101.103 22.7577C100.492 22.2135 100.185 21.3642 100.185 20.2071C100.185 19.551 100.299 18.6558 100.527 17.5225L102.265 9.56469H99.7206L100.391 6.74864H102.952L103.644 4.0005H111.049L110.563 6.74864H117.836L117.12 9.56469H109.753L107.684 18.8692C107.684 18.8692 107.532 19.6453 107.864 19.8393C108.571 20.2512 109.567 20.1551 109.567 20.1551H116.409L115.571 23.5735ZM139.917 17.1044H126.807L126.456 18.8639C126.456 18.8639 126.037 19.595 126.633 20.021C127.04 20.3112 127.904 20.2618 127.904 20.2618H155L154.232 23.5735H123.874C121.043 23.5735 119.63 22.3264 119.63 19.8323C119.63 19.2899 119.702 18.6972 119.843 18.0552L120.992 12.4398C121.326 10.7359 122.01 9.44034 123.223 8.37936C124.459 7.2928 125.908 6.74952 127.572 6.74952H137.773C140.126 6.74952 141.303 7.95955 141.303 10.3787C141.303 10.6257 141.284 10.9679 141.244 11.3418C141.196 11.8075 141.123 12.0818 141.053 12.5263L139.917 17.1044ZM134.171 12.6471L134.476 11.4194C134.476 11.4194 134.717 10.6574 134.388 10.4061C134.193 10.2579 133.779 10.25 133.779 10.25H129.796C129.796 10.25 129.226 10.2685 128.898 10.4043C128.464 10.586 128.233 11.4247 128.233 11.4247L127.93 12.6471H134.171ZM37.5964 23.5735H28.8122L31.0109 14.5609H23.9589L21.7611 23.5735H12.9417L15.2091 14.1349H0L1.13594 10.2738H16.1369L17.2941 5.45659C17.6345 4.03048 18.4035 2.90689 19.5977 2.0858C20.7927 1.26471 22.2806 0.854606 24.0612 0.854606H37.3398C38.8523 0.854606 40.0226 1.14653 40.8517 1.72949C41.6798 2.29217 42.0952 3.14501 42.0952 4.29066L41.9497 5.45571L37.5964 23.5735ZM32.2457 10.2738L33.0694 6.69308C33.0694 6.69308 33.3657 5.87552 32.8145 5.27932C32.5147 4.95653 32.0728 4.68754 31.5313 4.73428L28.1173 4.77661C27.5863 4.7625 27.126 4.97946 26.8146 5.17437C26.2273 5.54126 25.9424 6.58901 25.9424 6.58901L25.0957 10.2729H32.2457V10.2738ZM144.205 5.63034C144.539 5.63034 144.868 5.71677 145.187 5.88963C145.505 6.06072 145.755 6.30767 145.933 6.6287C146.112 6.94796 146.202 7.28134 146.202 7.62882C146.202 7.97366 146.112 8.30439 145.936 8.62101C145.763 8.93851 145.516 9.18633 145.197 9.36272C144.894 9.5344 144.552 9.62463 144.203 9.62463C143.855 9.62463 143.512 9.5344 143.209 9.36272C142.894 9.18633 142.647 8.93939 142.47 8.62101C142.299 8.31844 142.208 7.97672 142.207 7.62882C142.207 7.28134 142.295 6.94796 142.474 6.6287C142.653 6.30767 142.902 6.06072 143.223 5.88963C143.524 5.722 143.861 5.63281 144.205 5.63034ZM144.205 5.96107C143.925 5.96107 143.65 6.03338 143.383 6.17802C143.121 6.31943 142.905 6.53348 142.761 6.7945C142.611 7.06173 142.537 7.33954 142.537 7.62882C142.537 7.91722 142.61 8.19238 142.756 8.45696C142.904 8.71978 143.111 8.92616 143.376 9.07433C143.641 9.22073 143.917 9.29393 144.204 9.29393C144.492 9.29393 144.768 9.22073 145.032 9.07433C145.292 8.93132 145.506 8.71716 145.649 8.45696C145.795 8.19238 145.867 7.91634 145.867 7.62882C145.867 7.33954 145.793 7.06173 145.643 6.7945C145.501 6.53255 145.285 6.31819 145.022 6.17802C144.772 6.03763 144.491 5.96298 144.205 5.96107ZM143.328 8.7339V6.58371H144.067C144.319 6.58371 144.501 6.604 144.615 6.64457C144.729 6.68337 144.818 6.75305 144.886 6.85094C144.96 6.96104 144.994 7.09353 144.981 7.22575C144.969 7.35798 144.911 7.48174 144.817 7.5759C144.699 7.69539 144.54 7.76542 144.373 7.77169C144.44 7.79829 144.502 7.83684 144.555 7.88547C144.642 7.97014 144.747 8.11213 144.872 8.31145L145.134 8.73302H144.71L144.521 8.39435C144.371 8.128 144.248 7.96131 144.157 7.89428C144.076 7.83956 143.978 7.8135 143.88 7.8202H143.676V8.7339H143.328ZM143.674 7.52387H144.097C144.298 7.52387 144.434 7.49389 144.507 7.43303C144.543 7.40493 144.572 7.36872 144.591 7.32735C144.611 7.28598 144.62 7.2406 144.619 7.1949C144.619 7.13417 144.6 7.07484 144.565 7.02557C144.528 6.97334 144.477 6.93361 144.417 6.9118C144.355 6.8871 144.239 6.87476 144.068 6.87476H143.674V7.52387Z" fill="#707070"/>
</svg>
