<svg width="178" height="46" viewBox="0 0 178 46" fill="none" xmlns="http://www.w3.org/2000/svg">
<mask id="mask0_13_704" style="mask-type:alpha" maskUnits="userSpaceOnUse" x="0" y="-10" width="178" height="56">
<path d="M0.363281 45.6407V-9.59619H177.304V45.6407H0.363281Z" fill="white"/>
</mask>
<g mask="url(#mask0_13_704)">
<path fill-rule="evenodd" clip-rule="evenodd" d="M0.363281 25.5728H6.50219C10.4162 25.5728 11.8956 25.1069 13.0709 24.3955C14.0496 23.793 15.5698 22.3424 15.7219 20.1244C15.7877 19.1659 15.6685 16.2088 11.5579 15.5518C12.2142 15.3592 13.0621 15.1136 13.8902 14.3737C14.4048 13.9086 15.0794 13.0598 15.1583 11.9094C15.2015 11.28 15.0502 9.9661 14.0612 9.14415C12.8918 8.2132 11.237 8.1042 8.58308 8.1042C7.75204 8.1042 2.73143 8.2132 1.55174 8.2132L0.363281 25.5728ZM6.15427 10.2946C7.41436 10.2946 8.0868 10.267 8.58966 10.3491C9.0421 10.4043 10.1034 10.5686 9.95939 12.6761C9.78104 15.2778 8.33311 15.2778 6.21494 15.2778H5.81367L6.15427 10.2946ZM5.66164 17.4951H6.17035C8.42228 17.4951 8.95877 17.4951 9.62755 17.9064C10.2181 18.2894 10.5748 18.9471 10.4886 20.2066C10.3482 22.2596 9.47626 22.862 8.30607 23.1084C7.81636 23.2181 7.76227 23.2181 5.26987 23.2181L5.66164 17.4951ZM20.1994 8.2132L19.011 25.5728H31.9049L32.0942 22.8075H24.1054L25.1046 8.2132H20.1994ZM42.8108 8.2132L33.4194 25.5728H37.3063L39.3492 21.192H45.5678L46.8228 25.5728H52.3455L46.6174 8.2132H42.8108ZM40.4829 18.7276L43.256 12.6761L44.959 18.7276H40.4829ZM68.2223 9.06203C68.1814 8.48718 68.1873 8.40581 67.8693 8.35056C66.8899 8.1587 65.4595 7.91159 63.3684 7.91159C60.634 7.91159 59.0472 8.37744 57.6169 9.30839C57.1096 9.66449 55.6156 10.7328 55.449 13.1688C55.3678 14.3469 55.3825 16.4828 59.0326 17.9878C63.231 19.7138 63.8479 20.0968 63.7601 21.3831C63.6717 22.6709 62.606 23.3548 60.9169 23.3548C59.898 23.3548 58.2842 23.0539 56.8655 22.2327C56.7105 22.1506 55.9175 21.6026 55.8897 21.6026C55.81 21.6026 55.6719 21.6571 55.5608 21.7116L54.8664 22.0685C54.5617 22.2051 54.5858 22.2596 54.5763 22.7799L54.5485 24.7516C54.5419 25.2443 54.6698 25.3264 54.9344 25.3809C56.549 25.6825 58.1965 25.9012 59.7241 25.9012C62.1105 25.9012 63.3976 25.4906 64.0006 25.2995C67.6493 24.0946 68.2362 21.3831 68.3115 20.2879C68.5439 16.8926 65.7044 15.6884 63.4627 14.7575C60.7517 13.6347 59.8132 13.2517 59.8863 12.1834C60.0062 10.4312 62.177 10.4312 62.5264 10.4312C63.41 10.4312 64.9311 10.5402 66.2474 11.28C66.3761 11.3629 66.9396 11.7451 67.1004 11.7451C67.1538 11.7451 67.2912 11.6906 67.3745 11.6638L68.044 11.28C68.2962 11.1158 68.2998 11.0613 68.3013 10.6499L68.2223 9.06203ZM72.7489 8.2132L71.5604 25.5728H85.205L85.3943 22.8075H76.6556L77.002 17.7422H84.4814L84.6561 15.1957H77.1767L77.4764 10.8142H85.8672L86.0456 8.2132H72.7489ZM94.6747 18.2618H95.9077C98.2715 24.45 100.284 25.9841 103.448 25.9841C104.305 25.9841 105.2 25.8467 105.803 25.6549C106.021 25.6004 106.08 25.5183 106.125 25.2443L106.339 24.0946L106.267 23.958C103.616 23.519 101.547 19.2756 100.778 17.6048C104.136 16.7015 104.957 14.5111 105.062 12.9777C105.163 11.4995 104.604 10.267 103.722 9.44501C102.334 8.18558 100.409 8.1042 98.0771 8.1042C97.5406 8.1042 97.246 8.1042 94.6418 8.1587C93.3269 8.18557 92.0112 8.2132 90.6708 8.2132L89.4823 25.5728H94.174L94.6747 18.2618ZM95.2082 10.4588L96.9763 10.4857C98.7992 10.4857 100.056 10.9239 99.9116 13.0322C99.7428 15.4966 98.4981 16.0445 96.5955 16.0445C96.059 16.0445 95.4714 16.0169 94.8296 15.99L95.2082 10.4588ZM124.687 9.11653C124.759 8.84254 124.765 8.76117 124.634 8.70667C124.506 8.6238 122.142 7.91159 119.354 7.91159C111.928 7.91159 108.314 12.5395 107.993 17.2226C107.762 20.6164 109.258 23.027 111.152 24.3402C112.407 25.1898 114.183 25.8736 117.453 25.8736C120.161 25.8736 122.349 25.2443 122.761 25.1069C123.008 25.0255 123.038 24.9703 123.118 24.5873L123.548 22.6157C123.593 22.3424 123.595 22.3141 123.39 22.1774L122.98 21.9042C122.928 21.8766 122.825 21.8213 122.771 21.8213C122.691 21.8213 122.348 22.1229 122.266 22.1506C120.416 23.3279 118.808 23.3279 118.352 23.3279C113.58 23.3279 113.097 19.0285 113.288 16.2364C113.61 11.5264 115.934 10.4857 118.374 10.4857C120.572 10.4857 122.019 11.28 122.586 11.6085C122.611 11.6354 123.178 11.9646 123.178 11.9646C123.231 11.9646 123.261 11.937 123.453 11.8549L123.982 11.5809C124.259 11.4443 124.261 11.4166 124.335 11.1158L124.687 9.11653ZM134.351 8.2132L124.959 25.5728H128.846L130.889 21.192H137.108L138.363 25.5728H143.885L138.157 8.2132H134.351ZM132.023 18.7276L134.796 12.6761L136.499 18.7276H132.023ZM147.671 8.2132L146.482 25.5728H151.388L151.917 17.8519H159.128L159.306 15.2509H152.095L152.399 10.8142H160.977L161.155 8.2132H147.671ZM163.83 8.2132L162.642 25.5728H176.287L176.476 22.8075H167.737L168.084 17.7422H175.563L175.738 15.1957H168.257L168.558 10.8142H176.949L177.127 8.2132H163.83ZM173.839 0.676758L168.94 6.40654L170.567 6.92614L176.505 3.58607L176.697 1.99069L173.839 0.676758Z" fill="#707070"/>
</g>
<path fill-rule="evenodd" clip-rule="evenodd" d="M116.025 34.8569L115.441 45.6405H126.579L127.162 34.8569H116.025Z" fill="#FFFFFE"/>
<path fill-rule="evenodd" clip-rule="evenodd" d="M125.386 41.6367H122.66L122.517 44.2753H119.649L119.793 41.6367H117.067L117.217 38.8599H119.943L120.086 36.2213H122.953L122.81 38.8599H125.536L125.386 41.6367ZM116.025 34.8569L115.441 45.6405H126.579L127.162 34.8569H116.025Z" fill="#707070"/>
</svg>
