<svg width="136" height="27" viewBox="0 0 136 27" fill="none" xmlns="http://www.w3.org/2000/svg">
<g clip-path="url(#clip0_13_448)">
<path d="M117.871 12.3426L134.765 1.23426C135.382 0.848554 135.151 0 134.456 0H128.439C128.054 0 127.745 0.0771412 127.514 0.308565L111.391 11.1855V0.848554C111.391 0.385706 111.005 0 110.543 0H106.608C106.145 0 105.76 0.385706 105.76 0.848554V25.4566C105.76 25.9195 106.145 26.3052 106.608 26.3052H110.543C111.005 26.3052 111.391 25.9195 111.391 25.4566V14.0397L128.362 25.9966C128.594 26.1509 128.979 26.3052 129.288 26.3052H135.382C136.076 26.3052 136.308 25.4566 135.768 24.9938L117.871 12.3426Z" fill="#707070"/>
<path d="M65.6466 15.6597H59.7067V21.6767H41.27V15.6597H35.3301V21.2138C35.3301 24.6852 37.1043 26.3052 41.0385 26.3052C41.27 26.3052 59.7839 26.3052 60.0153 26.3052C63.9495 26.3052 65.7237 24.7623 65.7237 21.2138L65.6466 15.6597Z" fill="#707070"/>
<path d="M59.9391 0C59.7077 0 41.1938 0 40.9624 0C37.0282 0 35.2539 1.54282 35.2539 5.09132V8.48554V10.5683H41.1938V4.55133H59.5534V10.5683H65.4933V8.48554V5.09132C65.6476 1.61997 63.8733 0 59.9391 0Z" fill="#707070"/>
<path d="M25.4566 13.0369C27.6166 12.7283 29.2365 10.9541 29.2365 8.7941V5.09132C29.2365 1.61997 27.4623 0 23.5281 0H0.925695C0.462847 0 0 0.462847 0 0.925695V25.2252C0 25.8423 0.462847 26.228 0.925695 26.228H22.7567C27.0766 26.228 29.3908 24.4538 29.3908 21.0596V17.2025C29.468 15.0425 27.6937 13.1912 25.4566 13.0369ZM5.63131 4.47419H21.291C22.8338 4.47419 23.6052 5.16846 23.6052 6.71129V8.71696C23.6052 10.1826 22.8338 10.8769 21.291 10.8769H5.63131V4.47419ZM23.6824 19.5939C23.6824 21.0596 22.9109 21.7538 21.3681 21.7538H5.63131V15.3511H21.4453C22.9881 15.3511 23.7595 16.0454 23.7595 17.5882V19.5939H23.6824Z" fill="#707070"/>
<path d="M100.67 24.9938L90.4875 16.3539C90.4875 16.3539 93.8817 16.3539 93.9588 16.3539C97.8931 16.3539 99.6673 14.8111 99.6673 11.2626V5.09132C99.6673 1.61997 97.8931 0 93.9588 0H72.5907C72.0507 0 71.5879 0.462847 71.5879 1.00284V25.4566C71.5879 25.9195 71.9736 26.3052 72.4364 26.3052H76.3706C76.8335 26.3052 77.2192 25.9195 77.2192 25.4566V16.2768H82.7734L93.9588 25.8423C94.2674 26.0737 94.576 26.228 95.116 26.228H100.284C100.979 26.228 101.287 25.4566 100.67 24.9938ZM77.2192 4.47419H91.6446C93.1874 4.47419 93.9588 5.16846 93.9588 6.71129V9.79694C93.9588 11.2626 93.1874 11.9569 91.6446 11.9569H77.2192V4.47419Z" fill="#707070"/>
</g>
<defs>
<clipPath id="clip0_13_448">
<rect width="136" height="26.228" fill="white"/>
</clipPath>
</defs>
</svg>
