<svg width="146" height="34" viewBox="0 0 146 34" fill="none" xmlns="http://www.w3.org/2000/svg">
<path fill-rule="evenodd" clip-rule="evenodd" d="M26.1948 23.7374C26.1948 29.0961 21.2541 32.6221 16.2659 32.6221H0V0.80074H14.914C20.6478 0.80074 24.7954 3.66687 24.7954 9.54304C24.7954 14.5725 20.415 16.076 20.415 16.076C20.415 16.1235 26.1948 17.4402 26.1948 23.7374ZM16.6854 10.4372C16.6854 8.65044 15.4743 7.42713 13.6555 7.42713H7.82827V13.3508H13.5146C15.5677 13.3508 16.6854 11.8473 16.6854 10.4372ZM17.7112 22.8448C17.7112 21.0122 16.3593 19.7429 13.5161 19.7429H7.8298V25.9942H13.657C16.0347 25.9942 17.7112 25.1491 17.7112 22.8448ZM58.3744 16.6869C58.3744 26.0401 53.0127 33.3723 43.7391 33.3723C34.5099 33.3723 29.1022 26.0401 29.1022 16.6869C29.1022 7.37967 34.5084 0 43.7375 0C53.0127 0 58.3744 7.3812 58.3744 16.6869ZM50.5431 16.6869C50.5431 11.7034 48.2618 7.66138 43.7406 7.66138C39.2194 7.66138 36.9825 11.7034 36.9825 16.6869C36.9825 21.7164 39.2194 25.7584 43.7406 25.7584C48.2618 25.7584 50.5431 21.7164 50.5431 16.6869ZM85.7052 22.9857C85.7052 29.9887 79.3666 33.3739 73.4017 33.3739C66.5028 33.3739 62.9614 30.7405 60.1657 27.4043L65.2442 22.4207C67.3877 25.1491 70.1865 26.5117 73.3083 26.5117C75.8713 26.5117 77.5952 25.2424 77.5952 23.3608C77.5952 21.3413 76.0718 20.7121 71.9089 19.8363L70.7912 19.6021C65.777 18.5487 61.6554 15.7009 61.6554 10.0131C61.6554 3.76026 66.7355 0 73.4461 0C79.1339 0 82.8146 2.44509 85.053 4.98357L80.1107 9.87222C78.572 8.22634 76.2433 6.90964 73.5854 6.90964C71.768 6.90964 69.718 7.75631 69.718 9.87222C69.718 11.7983 71.8538 12.498 74.5637 13.0691L75.6829 13.3033C80.2225 14.2556 85.7052 15.6535 85.7052 22.9857ZM115.974 26.4642C112.713 31.1646 109.685 33.3739 103.392 33.3739C94.4414 33.3739 88.6617 25.9467 88.6617 16.4986C88.6617 7.52206 93.8826 0.0474621 103.484 0.0474621C108.749 0.0474621 112.525 2.11591 115.744 6.95863L109.311 11.2349C108.005 8.97809 106.328 7.66291 103.531 7.66291C99.9914 7.66291 96.5864 10.8291 96.5864 16.4986C96.5864 22.854 100.27 25.7584 103.765 25.7584C106.794 25.7584 108.192 24.2549 109.498 22.0931L115.974 26.4642ZM145.823 32.6221H137.435V20.0721H127.788V32.6221H119.445V0.80074H127.788V12.5041H137.435V0.80074H145.823V32.6221Z" fill="#707070"/>
</svg>
