<svg width="137" height="49" viewBox="0 0 137 49" fill="none" xmlns="http://www.w3.org/2000/svg">
<path d="M129.941 0.458008H7.32061C3.1374 0.458008 0 3.85686 0 7.77862V36.2767C0 40.1985 3.1374 43.5973 7.32061 43.5973H73.729V45.4275C73.729 47.5191 75.5592 49.0878 77.6508 49.0878H126.542C128.634 49.0878 130.464 47.5191 130.464 45.4275V43.5973C134.124 43.3359 137 40.1985 137 36.2767V7.77862C137 3.85686 133.863 0.458008 129.941 0.458008Z" fill="#707070"/>
<path d="M135.17 36.2766C135.17 39.1526 133.078 41.2442 130.464 41.5056V39.6755C130.464 37.5839 128.634 36.0152 126.542 36.0152H77.6507C75.5591 36.0152 73.7289 37.5839 73.7289 39.6755V41.7671H7.32054C4.44458 41.7671 1.83008 39.414 1.83008 36.2766V7.77854C1.83008 4.90259 4.18313 2.28809 7.32054 2.28809H129.941C132.817 2.28809 135.431 4.64114 135.431 7.77854V36.2766H135.17Z" fill="#F6F7FA"/>
<path d="M96.9977 41.7671C96.7362 41.7671 96.4748 41.7671 96.2133 41.7671C95.9519 41.7671 95.6904 41.7671 95.429 41.5056C95.1675 41.5056 94.9061 41.2442 94.6446 41.2442C94.6446 41.2442 94.3832 40.9827 94.3832 40.7213C94.3832 40.4598 94.3832 40.4598 94.6446 40.1984C94.9061 39.9369 95.1675 39.9369 95.6904 39.9369C96.2133 39.9369 96.4748 39.9369 96.9977 40.1984C97.5206 40.1984 97.782 40.4598 98.0435 40.7213H98.3049V40.4598V39.6755V39.414C98.0435 39.1526 97.5206 39.1526 97.2591 39.1526C96.7362 39.1526 96.4748 38.8911 95.9519 38.8911C95.429 38.8911 95.1675 38.8911 94.6446 39.1526C94.1217 39.1526 93.8603 39.414 93.5988 39.6755C93.3374 39.9369 93.0759 40.1984 93.0759 40.4598C93.0759 40.7213 92.8145 40.9827 92.8145 41.2442C92.8145 41.7671 93.0759 42.0285 93.3374 42.5514C93.5988 42.8129 94.1217 43.0743 94.9061 43.3358C95.1675 43.3358 95.429 43.3358 95.6904 43.5972C95.9519 43.5972 96.2133 43.5972 96.4748 43.5972C96.9977 43.5972 97.2591 43.8587 97.2591 43.8587C97.2591 43.8587 97.5206 44.1201 97.5206 44.3816C97.5206 44.643 97.5206 44.9045 97.2591 44.9045C96.9977 45.1659 96.7362 45.1659 96.2133 45.1659C95.9519 45.1659 95.429 45.1659 94.9061 44.9045C94.3832 44.643 94.1217 44.643 93.5988 44.3816H93.3374V44.643V45.9503C93.5988 46.2117 94.1217 46.2117 94.3832 46.2117C94.9061 46.2117 95.429 46.4732 95.9519 46.4732C96.9977 46.4732 97.782 46.2117 98.3049 45.9503C98.8278 45.4274 99.0893 44.9045 99.0893 44.3816C99.0893 43.8587 98.8278 43.3358 98.5664 43.0743C98.0435 42.29 97.5206 42.0285 96.9977 41.7671Z" fill="#F6F7FA"/>
<path d="M82.0953 41.7671C81.8339 41.7671 81.5724 41.7671 81.311 41.7671C81.0495 41.7671 80.7881 41.7671 80.5266 41.5056C80.2652 41.5056 80.0037 41.2442 79.7423 41.2442C79.7423 41.2442 79.4808 40.9827 79.4808 40.7213C79.4808 40.4598 79.4808 40.4598 79.7423 40.1984C80.0037 39.9369 80.2652 39.9369 80.7881 39.9369C81.0495 39.9369 81.5724 39.9369 82.0953 40.1984C82.6182 40.1984 82.8797 40.4598 83.1411 40.7213H83.664V40.4598V39.6755V39.414H83.4026C83.1411 39.1526 82.6182 39.1526 82.3568 39.1526C81.8339 39.1526 81.5724 38.8911 81.0495 38.8911C80.5266 38.8911 80.2652 38.8911 79.7423 39.1526C79.4808 39.1526 78.9579 39.414 78.6965 39.6755C78.435 39.9369 78.1736 40.1984 78.1736 40.4598C77.9121 40.7213 77.9121 40.9827 77.9121 41.2442C77.9121 41.7671 78.1736 42.0285 78.435 42.5514C78.6965 42.8129 79.2194 43.0743 80.0037 43.3358C80.2652 43.3358 80.5266 43.3358 80.7881 43.5972C81.0495 43.5972 81.311 43.5972 81.311 43.5972C81.8339 43.5972 82.0953 43.8587 82.0953 43.8587C82.0953 43.8587 82.3568 44.1201 82.3568 44.3816C82.3568 44.643 82.3568 44.9045 82.0953 44.9045C81.8339 45.1659 81.5724 45.1659 81.0495 45.1659C80.5266 45.1659 80.2652 45.1659 79.7423 44.9045C79.2194 44.643 78.9579 44.643 78.435 44.3816H78.1736V44.643V45.9503H78.435C78.6965 46.2117 79.2194 46.2117 79.4808 46.2117C80.0037 46.2117 80.5266 46.4732 81.0495 46.4732C82.0953 46.4732 82.8797 46.2117 83.4026 45.9503C83.9255 45.4274 84.1869 44.9045 84.1869 44.3816C84.1869 43.8587 83.9255 43.3358 83.664 43.0743C83.1411 42.29 82.6182 42.0285 82.0953 41.7671Z" fill="#F6F7FA"/>
<path d="M90.7223 39.1528H90.4609L88.6307 43.336L86.5391 39.1528H86.2777H84.9704H84.709L84.9704 39.4143L87.5849 45.4276L86.2777 47.7807V48.3036H86.5391H87.8464H88.1078V48.0421L92.291 39.4143V39.1528H92.0296H90.7223Z" fill="#F6F7FA"/>
<path d="M105.102 39.1526H102.749V37.5839V37.061H102.488H101.181H100.919V37.3225V38.8912H100.396H100.135V39.1526V39.937V40.1984H100.396H100.919V43.3358C100.919 44.1202 101.181 44.9045 101.442 45.166C101.965 45.4274 102.488 45.6889 103.272 45.6889C103.534 45.6889 103.795 45.6889 104.057 45.6889C104.318 45.6889 104.579 45.6889 104.841 45.4274H105.102V45.166V44.1202V43.8587H104.841C104.841 43.8587 104.579 43.8587 104.318 43.8587C104.057 43.8587 104.057 43.8587 103.795 43.8587C103.534 43.8587 103.272 43.8587 103.272 43.8587L103.011 43.5973C103.011 43.3358 102.749 43.3358 102.749 43.0744C102.749 42.8129 102.749 42.5515 102.749 42.29V39.6755H105.102H105.364V39.4141L105.102 39.1526Z" fill="#F6F7FA"/>
<path d="M110.332 38.8911C109.286 38.8911 108.241 39.1526 107.718 39.9369C106.933 40.4598 106.672 41.5056 106.672 42.5514C106.672 43.5972 106.933 44.643 107.718 45.1659C108.502 45.6888 109.286 45.9503 110.594 45.9503C111.117 45.9503 111.639 45.9503 111.901 45.6888C112.424 45.6888 112.685 45.4274 113.208 45.4274H113.47V45.1659V44.1201V43.8587H113.208C112.947 44.1201 112.685 44.1201 112.162 44.3816C111.639 44.643 111.378 44.643 110.855 44.643C110.594 44.643 110.332 44.643 109.809 44.643C109.548 44.643 109.286 44.3816 109.025 44.3816C108.763 44.1201 108.763 44.1201 108.502 43.8587C108.502 43.5972 108.241 43.3358 108.241 43.0743H113.208H113.47V42.8129V42.29C113.47 41.2442 113.208 40.4598 112.685 39.9369C112.162 39.1526 111.378 38.8911 110.332 38.8911ZM111.901 41.5056H108.241C108.241 41.2442 108.502 40.9827 108.763 40.7213C109.025 40.4598 109.548 40.1984 110.071 40.1984C110.594 40.1984 111.117 40.1984 111.378 40.4598C111.639 40.7213 111.901 40.9827 111.901 41.5056Z" fill="#F6F7FA"/>
<path d="M125.496 39.6755C124.973 39.1526 124.45 38.8911 123.666 38.8911C123.143 38.8911 122.62 38.8911 122.358 39.1526C122.097 39.414 121.574 39.414 121.312 39.9369C121.051 39.6755 120.79 39.414 120.528 39.414C120.267 39.1526 119.744 39.1526 119.221 39.1526C118.698 39.1526 118.436 39.1526 117.914 39.414C117.652 39.414 117.391 39.6755 117.129 39.9369V39.414H115.561V46.2117H117.129V41.2442C117.391 40.9827 117.652 40.9827 117.914 40.7213C118.175 40.7213 118.437 40.4598 118.698 40.4598C118.959 40.4598 119.221 40.4598 119.482 40.4598C119.744 40.4598 119.744 40.7213 119.744 40.7213C119.744 40.7213 119.744 40.9827 120.005 41.2442C120.005 41.5056 120.005 41.7671 120.005 42.0285V45.9503H121.574V41.7671V41.5056V41.2442C121.835 40.9827 122.097 40.9827 122.358 40.7213C122.62 40.4598 122.881 40.4598 123.143 40.4598C123.404 40.4598 123.666 40.4598 123.927 40.4598C124.188 40.4598 124.188 40.7213 124.188 40.7213C124.188 40.7213 124.188 40.9827 124.45 41.2442C124.45 41.5056 124.45 41.7671 124.45 42.0285V45.9503H126.019V41.5056C126.28 40.7213 126.019 39.9369 125.496 39.6755Z" fill="#F6F7FA"/>
<path fill-rule="evenodd" clip-rule="evenodd" d="M17.5169 27.6489C14.118 27.6489 13.5951 25.2958 13.5951 19.8054C13.5951 14.3149 14.118 11.9618 17.5169 11.9618C19.347 11.9618 20.1314 13.0076 20.1314 15.8836H26.1447C26.4062 11.1775 23.7917 8.56299 17.5169 8.56299C7.32031 8.56299 7.32031 14.0534 7.32031 19.8054C7.32031 25.5573 7.32031 31.0477 17.5169 31.0477C23.2688 31.0477 26.4062 29.2176 26.4062 23.4657H20.3928C20.3928 25.0344 20.3928 27.6489 17.5169 27.6489ZM44.1848 20.3283C44.1848 17.4523 43.139 15.3607 35.8184 15.3607C33.7268 15.3607 31.6352 15.6221 30.3279 16.4065C29.0207 17.1909 28.2363 18.2367 28.2363 20.0668H33.9882C33.9882 18.7596 34.2497 17.7138 36.0799 17.7138C38.1715 17.7138 38.4329 18.7596 38.4329 19.8054V20.8512C32.9424 20.8512 27.7134 21.1126 27.7134 26.0802C27.7134 28.6947 29.2821 30.7863 33.2039 30.7863C35.8184 30.7863 37.3871 30.0019 38.6944 28.4332L38.9558 30.5248H44.4463C44.4463 29.479 44.1848 28.6947 44.1848 27.6489V20.3283ZM35.8184 28.1718C33.9882 28.1718 33.7268 26.8645 33.7268 25.8187C33.7268 23.2042 35.8184 23.2042 38.6944 23.2042C38.6944 25.0344 39.2173 28.1718 35.8184 28.1718ZM57.5188 15.3607H53.0741V13.5305C53.0741 11.9618 53.597 11.4389 55.9501 11.4389V8.82444C55.1657 8.82444 54.6428 8.82444 53.8585 8.82444C46.7993 8.82444 47.3222 11.1775 47.3222 15.6221H44.7077V18.2367H47.3222V30.7863H53.0741V18.2367H57.5188V30.7863H63.2707V18.2367H65.8852V15.6221H63.2707V13.5305C63.2707 11.9618 63.7936 11.4389 66.1466 11.4389V8.82444C65.3623 8.82444 64.8394 8.82444 64.055 8.82444C56.9959 8.82444 57.5188 11.1775 57.5188 15.3607ZM67.4539 12.2233H73.2058V8.82444H67.4539V12.2233ZM67.4539 30.5248H73.2058V15.3607H67.4539V30.5248ZM82.8795 11.1775L77.1276 13.0076V15.3607H74.7745V17.9752H77.1276V27.3874C77.1276 28.4332 77.9119 30.7863 82.8795 30.7863C84.1867 30.7863 84.9711 30.7863 85.7554 30.5248V27.9103C85.494 27.9103 85.2325 27.9103 84.7096 27.9103C82.8795 27.9103 82.8795 27.126 82.8795 26.0802V17.9752H85.7554V15.3607H82.8795V11.1775ZM103.011 20.3283C103.011 17.4523 101.965 15.3607 94.6447 15.3607C92.5531 15.3607 90.4615 15.6221 89.1543 16.4065C87.847 17.1909 87.0627 18.2367 87.0627 20.0668H92.8146C92.8146 18.7596 93.076 17.7138 94.9062 17.7138C96.9978 17.7138 97.2592 18.7596 97.2592 19.8054V20.8512C91.7688 20.8512 86.5398 21.1126 86.5398 26.0802C86.5398 28.6947 88.1085 30.7863 92.0302 30.7863C94.6447 30.7863 96.2134 30.0019 97.5207 28.4332L97.7821 30.5248H103.273C103.273 29.479 103.011 28.6947 103.011 27.6489V20.3283ZM94.6447 28.1718C92.8146 28.1718 92.5531 26.8645 92.5531 25.8187C92.5531 23.2042 94.6447 23.2042 97.5207 23.2042C97.5207 25.0344 98.0436 28.1718 94.6447 28.1718ZM105.626 30.5248H111.378V8.82444H105.626V30.5248ZM124.45 15.3607L121.313 26.0802L118.437 15.3607H112.423L118.175 30.5248L116.084 36.0153H122.097L130.202 15.0992H124.45V15.3607Z" fill="#707070"/>
</svg>
