<svg width="167" height="38" viewBox="0 0 167 38" fill="none" xmlns="http://www.w3.org/2000/svg">
<path d="M10.1336 6.56644H10.8416C12.7922 6.56644 13.4001 7.27452 13.4001 9.36536V20.2404C13.4001 22.3312 12.7922 23.0393 10.8416 23.0393H10.1336V6.56644ZM0 0.2672V5.38408C1.04208 5.82496 1.10888 6.65996 1.14228 7.67532V21.7167C1.10888 22.692 1.00868 23.567 0 24.0079V29.1248H12.7321C15.4575 29.1248 18.016 28.9578 20.0734 27.0006C22.2644 24.9498 22.398 22.7588 22.398 19.9264V9.12488C22.398 6.36604 22.1642 3.73412 19.8062 1.88376C17.7488 0.30728 14.9164 0.27388 12.4582 0.27388L0 0.2672ZM35.6979 15.3907H32.5984V14.5824C32.5984 13.7408 32.732 12.4248 34.1482 12.4248C35.5643 12.4248 35.6979 13.7408 35.6979 14.5824V15.3907ZM24.6492 21.3827C24.6492 23.9411 24.7494 26.2992 26.9738 27.9491C28.724 29.2584 31.9905 29.7995 35.2236 29.5657C38.4902 29.3319 41.7567 28.3566 43.5068 26.8402V21.5163H35.5576V22.2912C35.5576 23.3666 35.4574 24.6158 34.0747 24.6158C32.6919 24.6158 32.5583 23.233 32.5917 22.191V20.2404H43.5002V15.2237C43.6338 10.04 41.7166 7.44152 33.901 7.47492C26.4595 7.50832 24.5089 9.83296 24.6425 15.6245V21.3827H24.6492ZM45.3305 29.1315V24.0146C46.406 23.3399 46.3058 22.2644 46.3058 21.189V8.2164C46.3058 7.14092 46.406 6.05876 45.3305 5.38408V0.2672H56.279V5.38408C55.2035 6.05876 55.3037 7.13424 55.3037 8.2164V22.9992H56.1788C58.47 22.9992 58.4366 21.6165 58.4366 19.7995V15.1168H66.3524V29.1248L45.3305 29.1315ZM76.3457 15.5911C76.3457 14.4088 76.1453 12.4248 77.8621 12.4248C79.5788 12.4248 79.345 14.4422 79.345 15.5911V21.7234C79.345 22.8656 79.4452 24.6225 77.8287 24.6225C76.2455 24.6225 76.3457 22.8723 76.3457 21.7234V15.5911ZM87.2876 15.5243C87.2876 12.8323 87.1206 10.2738 84.5621 8.72408C82.7118 7.6486 79.4786 7.4816 77.321 7.4816C74.9296 7.4816 72.3377 7.682 70.4139 9.19836C68.4299 10.7481 68.3965 13.2398 68.3965 15.531V21.0554C68.3965 23.8476 68.3965 26.4394 70.9884 28.1629C72.8387 29.4054 75.9382 29.579 78.1293 29.579C80.5541 29.579 83.3798 29.3786 85.3036 27.7287C87.2208 26.0787 87.2876 23.4201 87.2876 21.062V15.5243ZM97.9288 9.23176C100.086 7.7822 101.97 7.4148 103.654 7.4816C105.304 7.5484 106.753 8.08948 107.555 8.89776C109.004 10.2805 109.171 11.8303 109.171 13.6472V21.5964C109.171 22.6385 109.071 23.8209 110.113 24.3954V29.1448H101.67C101.195 26.9872 101.229 24.736 101.229 22.545V16.346C101.229 16.2124 101.329 15.2371 100.995 14.4555C100.454 13.6472 99.5788 13.0394 98.2695 13.6472V21.5964C98.2695 22.6385 98.1693 23.8209 99.2448 24.3954V29.1448H89.345V24.382C90.3871 23.7741 90.3203 22.7988 90.3203 21.7234V15.2905C90.3203 14.1482 90.3537 13.4068 89.345 12.6586V7.90912H97.9288V9.23176ZM123.259 23.1662C122.825 23.4 122.338 23.5336 121.843 23.5403C120.227 23.5403 120.227 21.6833 120.227 20.541V15.8583C120.227 14.6492 120.227 13.2331 121.81 13.2331C122.311 13.2331 122.852 13.4001 123.259 13.6673V23.1662ZM132.184 7.9158H123.46V9.13156C121.943 7.98928 120.093 7.4816 118.203 7.4816C113.453 7.4816 112.277 10.374 112.277 14.9899V22.9725C112.277 27.6151 114.569 29.5724 118.577 29.5724C120.093 29.5724 121.843 29.0981 123.259 28.0226V29.372C123.259 30.581 123.46 32.6719 121.71 32.6719C121.068 32.6719 120.701 32.3379 120.467 31.8636C120.267 31.3893 120.233 30.7881 120.233 30.3138H112.859V35.3973C115.958 37.1141 118.617 37.6552 122.15 37.6552C124.575 37.6552 127.641 37.3546 129.458 35.571C131.309 33.7874 131.209 30.5543 131.209 28.1629V15.2905C131.209 14.215 131.135 13.2999 132.184 12.6586V7.9158ZM143.293 8.85768C144.916 7.8824 146.786 7.40144 148.683 7.47492C150.333 7.54172 151.783 8.0828 152.591 8.89108C154.034 10.2738 154.208 11.8236 154.208 13.6406V21.5898C154.208 22.6318 154.108 23.8142 155.15 24.3887V29.1382H146.693C146.219 26.9805 146.252 24.7294 146.252 22.5383V16.3393C146.252 16.2057 146.352 15.2304 146.018 14.4488C145.477 13.6406 144.602 13.0327 143.286 13.6406V21.5898C143.286 22.6318 143.186 23.8142 144.261 24.3887V29.1382H134.362V24.382C135.404 23.7741 135.337 22.7988 135.337 21.7234V7.8156C135.37 6.73344 135.437 5.59116 134.328 5.02336V0.2672H143.286L143.293 8.85768ZM165.991 21.5898C165.991 22.6652 165.891 23.7474 167 24.3887V29.1382H157.067V24.382C158.109 23.7407 158.042 22.7988 158.042 21.7234V15.4575C158.042 14.382 158.142 13.2999 157.067 12.6586V7.90912H165.991V21.5898ZM157.401 3.23312C157.401 0.94188 159.759 0 161.716 0C163.7 0 165.991 1.07548 165.991 3.36672C165.991 5.58448 163.74 6.63324 161.783 6.63324C159.699 6.63324 157.401 5.62456 157.401 3.23312ZM25.6646 3.507H42.7921V4.98996H25.6646V3.507Z" fill="#707070"/>
</svg>
