<svg width="155" height="21" viewBox="0 0 155 21" fill="none" xmlns="http://www.w3.org/2000/svg">
<path fill-rule="evenodd" clip-rule="evenodd" d="M145.977 15.7253L147.484 17.9852C148.176 18.6975 147.732 19.7242 147.005 19.9455C146.846 19.9976 146.74 20.0813 146.74 20.2134V20.5017L155.001 20.4997V20.1798C155.001 20.0905 154.966 19.9845 154.877 19.9491C154.824 19.9343 154.771 19.9194 154.717 19.9008C153.866 19.605 153.139 19.1568 152.448 18.2212L148.406 12.6246L150.214 10.2625C151.402 8.85819 152.909 7.90032 153.795 7.70874C153.973 7.67153 154.008 7.58783 154.008 7.42788V7.17679H153.725L149.062 7.17853H148.796C148.796 7.17853 148.796 7.31244 148.796 7.42778C148.796 7.56913 148.849 7.66213 148.956 7.72164C148.991 7.75141 148.991 7.75326 149.026 7.77931C149.381 8.00437 149.682 8.60514 148.885 9.58161C148.885 9.60392 148.317 10.3367 147.502 11.3635V11.3485L146.332 9.68946C145.623 8.95666 146.119 7.88158 146.864 7.70489C147.041 7.66955 147.076 7.58771 147.076 7.42776V7.1748L146.793 7.17653H139.01C139.01 7.17653 138.992 7.31229 138.992 7.42762C138.992 7.63036 139.134 7.73263 139.311 7.78286C140.145 8.07672 140.871 8.52498 141.563 9.45311L145.073 14.4489L142.804 17.3226C141.616 18.7101 140.605 19.7592 139.79 19.947C139.613 19.9861 139.524 20.0809 139.524 20.213V20.5013L144.311 20.4993V20.1868C144.311 20.0957 144.275 20.0045 144.187 19.9543C144.116 19.9264 144.08 19.9115 144.045 19.8799C143.708 19.6418 143.442 19.0466 144.222 18.0943C144.222 18.0739 145.162 16.7366 145.977 15.7099V15.7247" fill="#707070"/>
<path d="M41.6792 4.32163C41.2537 3.2503 40.1545 2.79463 38.9844 2.79463H34.2332V9.46817L37.9739 9.47744C39.2504 9.47744 40.4027 9.23008 40.6332 8.22196C40.6509 8.10293 40.7395 8.01554 40.8459 8.01367L41.0587 8.0154V12.7155L40.8459 12.7172C40.7395 12.7189 40.6686 12.6168 40.6155 12.4829C40.3141 11.6142 39.1794 11.1958 37.9739 11.1958H34.2332V16.545C34.2332 18.139 34.7828 18.5705 36.3074 18.5705H38.9844C40.2432 18.5705 41.6437 17.9232 42.1224 16.6659C42.1579 16.5711 42.2288 16.5245 42.3351 16.5245H42.5124V20.4863H28.3828V20.2296C28.3828 20.0975 28.4715 19.9766 28.6487 19.9618C29.5174 19.8948 30.1911 18.9499 30.1911 17.4955V3.7708C30.1911 2.31817 29.5174 1.36775 28.6487 1.29892C28.4715 1.28402 28.3828 1.16313 28.3828 1.0311V0.774414H42.0692V4.46457H41.8919C41.8033 4.46086 41.7146 4.40134 41.6792 4.32135" fill="#707070"/>
<path d="M51.0577 20.4866L51.0755 20.2299C51.0755 20.0978 50.9868 19.9769 50.7918 19.9621C49.9408 19.8951 49.2494 18.9391 49.2494 17.4865V3.25405C49.2494 2.1604 49.2494 0.000976562 49.2494 0.000976562L43.7891 0.774726V1.03141C43.7891 1.16344 43.8777 1.28432 44.055 1.29922C44.9237 1.36804 45.5974 2.3129 45.5974 3.76554C45.5974 3.73204 45.6151 17.492 45.6151 17.492C45.6151 18.9428 44.9237 19.8951 44.0727 19.9621C43.8777 19.9769 43.7891 20.0978 43.7891 20.2299L43.8068 20.4866H51.0577" fill="#707070"/>
<path d="M123.39 20.4866L123.407 20.2299C123.407 20.0978 123.319 19.9769 123.124 19.9621C122.273 19.8951 121.581 18.9391 121.581 17.4865V3.25405C121.581 2.1604 121.581 0.000976562 121.581 0.000976562L116.121 0.774726V1.03141C116.121 1.16344 116.21 1.28432 116.387 1.29922C117.238 1.36804 117.929 2.3129 117.929 3.76554C117.929 3.73204 117.947 17.492 117.947 17.492C117.947 18.9428 117.256 19.8951 116.405 19.9621C116.21 19.9769 116.121 20.0978 116.121 20.2299V20.4866H123.39" fill="#707070"/>
<path d="M95.3618 6.94243C95.3618 6.94243 95.3618 8.82469 95.3618 9.92018C95.9291 8.82281 97.046 6.68945 99.4571 6.68945C99.9003 6.68945 100.255 6.78991 100.503 6.8866L99.4925 10.5545C99.3684 10.5545 98.4288 10.5545 97.9502 10.5545C96.3901 10.5545 95.415 11.6146 95.415 12.9203V17.4847C95.415 18.9373 96.1064 19.8952 96.9574 19.9621C97.1524 19.977 97.241 20.0979 97.2233 20.23V20.4866H90.0078V20.23C90.0078 20.0979 90.0964 19.977 90.2915 19.9621C91.1424 19.8952 91.8338 18.941 91.8338 17.4884C91.8338 16.4245 91.8338 11.9792 91.8338 10.7032C91.8338 9.25246 91.2488 8.37828 90.2915 8.23694C90.1496 8.21834 90.0078 8.05467 90.0078 7.91329C90.0078 7.77194 90.0078 7.71428 90.0078 7.71428L95.3618 6.94243Z" fill="#707070"/>
<path d="M138.744 20.4998H135.411C134.276 20.4998 133.94 19.7521 133.94 19.129C132.468 20.3064 131.404 20.8104 129.49 20.8811C127.345 20.9518 125.377 19.555 125.377 17.0533L125.359 10.7127C125.359 9.25821 124.668 8.31335 123.817 8.24453C123.639 8.22963 123.533 8.10873 123.551 7.97855V7.72002L129.135 6.94629V15.1915C129.135 18.8779 132.592 18.4855 133.94 17.4458V10.709C133.94 9.25634 133.248 8.31335 132.397 8.24453C132.202 8.22963 132.114 8.10873 132.114 7.97855V7.72002L137.698 6.94629V17.4718C137.698 18.6082 137.911 19.7781 138.762 19.9679C138.904 19.9995 139.01 20.0646 139.01 20.271C139.01 20.3808 139.01 20.4998 139.01 20.4998H138.744" fill="#707070"/>
<path d="M78.2708 11.1181V7.65299C78.2708 7.65299 76.3561 6.73975 73.2713 6.73975C69.247 6.73975 66.4636 8.8787 66.4281 14.0717C66.3927 18.1748 68.6797 20.9201 73.1118 20.9201C76.037 20.9201 77.7389 19.4042 78.3594 18.7941C78.7494 18.4891 78.7494 18.2138 78.7494 17.866C78.7494 17.5182 78.7672 16.9063 78.7672 16.9063C77.5794 17.8102 75.9661 18.4314 74.406 18.4314C71.1971 18.4314 70.2575 16.0488 70.2575 13.4058C70.2575 12.3159 70.5943 8.59785 73.5905 8.56251C75.5228 8.56251 76.622 9.17441 77.7566 11.159C77.9516 11.4603 78.0757 11.5254 78.2708 11.4826V11.1181" fill="#707070"/>
<path d="M108.091 8.53444C105.697 8.53444 105.024 10.4986 105.024 13.5879C105.024 16.0784 105.059 19.2013 108.126 19.2013C111.069 19.1307 111.033 16.5323 111.033 13.6921C111.033 10.3758 110.253 8.55304 108.091 8.53444ZM107.878 6.67263C110.98 6.62053 115.2 7.44265 115.235 13.5526C115.235 18.3215 113.533 20.9199 107.931 20.9199C104.048 20.9199 100.893 20.0048 100.893 13.8669C100.857 7.62494 105.201 6.70982 107.878 6.67448V6.67276" fill="#707070"/>
<path d="M64.8148 13.3424H55.9683C55.791 17.5515 57.9716 18.3922 60.0813 18.4275C61.8719 18.4275 63.237 17.784 64.4071 16.9228C64.4071 16.9228 64.4071 17.771 64.4071 17.9886C64.4071 18.2081 64.3007 18.381 64.2475 18.4852C63.4497 19.6123 61.411 20.9217 58.6099 20.9217C54.7805 20.9217 52.1035 18.8516 52.1035 14.1143C52.1035 8.91013 54.8514 6.76745 58.6808 6.74512C62.6342 6.74512 64.673 8.69995 64.8148 12.963V13.3424ZM58.6453 8.2889C57.422 8.35957 56.3052 8.91943 55.9683 11.6926H61.1982C61.2337 8.84875 59.8686 8.35957 58.6099 8.2889H58.6453Z" fill="#707070"/>
<path d="M88.7307 7.79227V7.18592H84.6531V3.22607L79.2637 9.08309H80.9833V16.8484C80.9833 18.1727 81.3734 20.9645 84.9368 20.9998C86.5146 20.9998 87.6315 20.4084 88.5002 19.6067C88.8193 19.3352 88.8193 19.1622 88.837 18.8925C88.8548 18.66 88.837 18.3885 88.837 17.9328C86.5855 19.2645 84.6531 18.4275 84.6531 15.8441V9.08309H87.5428C88.1102 8.98636 88.7307 8.66089 88.7307 7.79227Z" fill="#707070"/>
<path fill-rule="evenodd" clip-rule="evenodd" d="M19.3063 0.416016H0V20.6617H19.3063V0.416016ZM12.1972 19.5141V1.56172C15.8847 2.70747 18.5794 6.3158 18.5794 10.5323C18.5794 14.7637 15.8847 18.3553 12.1972 19.5141ZM0.744596 10.1008C0.95733 5.13286 4.87534 1.18046 9.66202 1.18046C10.2293 1.18046 10.7966 1.23812 11.3462 1.34971C11.3462 6.20791 7.60553 10.1008 2.96064 10.1008H0.744596ZM2.96064 10.975C7.60553 10.975 11.3462 14.8605 11.3462 19.728C10.7966 19.8377 10.2293 19.8953 9.66202 19.8953C4.87534 19.8953 0.95733 15.943 0.744596 10.975H2.96064Z" fill="#707070"/>
</svg>
