<svg width="130" height="27" viewBox="0 0 130 27" fill="none" xmlns="http://www.w3.org/2000/svg">
<path fill-rule="evenodd" clip-rule="evenodd" d="M14.3299 14.2511C13.6118 14.1739 12.1662 14.1707 10.6543 15.0436C8.51435 16.2791 8.67116 19.1091 9.4705 20.4936C10.27 21.8782 11.6638 22.3155 11.6638 22.3155L10.2685 26.4107C10.2685 26.4107 6.96377 25.1633 5.27897 23.35C4.50352 20.8438 4.85046 18.5959 6.52698 16.1511C8.13053 13.8125 11.3287 12.5498 14.2558 13.4685C14.6817 12.885 15.4071 11.6349 15.4071 9.88914C15.4071 7.41817 12.878 6.13913 11.2791 6.13913C9.68029 6.13913 8.6047 7.12746 8.6047 7.12746L5.75575 3.87161C5.75575 3.87161 8.48851 1.63317 10.9013 1.08083C13.4594 1.66226 15.2327 3.08673 16.5118 5.76116C17.7352 8.31923 17.2297 11.7202 14.9705 13.7958C15.263 14.4564 15.9828 15.7097 17.4946 16.5825C19.6346 17.818 22.0069 16.2673 22.8062 14.8826C23.6057 13.4979 23.2875 12.0723 23.2875 12.0723L27.5316 11.233C27.5316 11.233 28.1037 14.7188 27.3757 17.0845C25.5931 19.0091 23.473 19.8327 20.5173 19.6031C17.6904 19.3837 14.9979 17.2454 14.3299 14.2511ZM20.1515 12.6785C20.1515 12.6785 22.2818 10.384 21.9814 8.23002C21.6807 6.07592 19.5541 5.11668 19.5541 5.11668L18.7621 2.41041L21.2709 0.972119L22.249 3.98731C22.249 3.98731 24.7346 5.32159 24.7377 7.87447C24.7408 10.4273 22.4525 12.5301 20.1515 12.6785ZM10.6977 9.54026C10.6977 9.54026 7.6453 8.84264 5.93027 10.1799C4.21509 11.5171 4.44763 13.8384 4.44763 13.8384L2.50006 15.8776L0 14.424L2.12209 12.0694C2.12209 12.0694 2.03499 9.24954 4.24417 7.97051C6.45353 6.69147 9.41866 7.62162 10.6977 9.54026ZM12.7069 19.2966C12.7069 19.2966 13.6289 22.2887 15.6445 23.1056C17.66 23.9223 19.5541 22.5601 19.5541 22.5601L22.2939 23.2273L22.2852 26.1192L19.1849 25.4588C19.1849 25.4588 16.7864 26.9442 14.5741 25.6703C12.3617 24.3965 11.6849 21.3636 12.7069 19.2966ZM49.5131 19.1794H37.8349C37.8349 19.1794 37.6665 21.2659 39.5848 22.5112C41.5032 23.7564 44.0273 23.2179 44.5658 23.0161C45.1043 22.8141 46.4168 22.5786 47.1235 23.6219C47.8302 24.6651 47.9313 24.8671 47.9313 24.8671C47.9313 24.8671 46.4168 26.5161 42.109 26.5161C37.8011 26.5161 33.7961 24.3286 33.7288 18.3716C33.6616 12.4147 37.9021 9.48679 42.109 9.48679C46.3159 9.48679 49.8496 12.5156 49.8496 16.8235C49.8496 18.0687 49.5131 19.1794 49.5131 19.1794ZM45.9792 16.3186H37.9694C37.9694 16.3186 38.3732 12.7513 41.9744 12.7513C45.5754 12.7513 45.9456 15.4437 45.9792 16.3186ZM51.9415 23.3402V2.78919L55.7723 0.941406V21.5376C55.7723 23.3402 56.4033 24.5572 57.6202 24.7824C56.9444 26.8069 51.9415 27.8438 51.9415 23.3402ZM73.6101 19.1794H61.9318C61.9318 19.1794 61.7635 21.2659 63.6818 22.5112C65.6001 23.7564 68.1242 23.2179 68.6628 23.0161C69.2013 22.8141 70.5138 22.5786 71.2205 23.6219C71.9272 24.6651 72.0283 24.8671 72.0283 24.8671C72.0283 24.8671 70.5138 26.5161 66.2059 26.5161C61.8982 26.5161 57.8932 24.3286 57.8258 18.3716C57.7585 12.4147 61.9991 9.48679 66.2059 9.48679C70.4129 9.48679 73.9466 12.5156 73.9466 16.8235C73.9466 18.0687 73.6101 19.1794 73.6101 19.1794ZM70.0762 16.3186H62.0664C62.0664 16.3186 62.4702 12.7513 66.0714 12.7513C69.6724 12.7513 70.0425 15.4437 70.0762 16.3186ZM76.0531 26.405V2.78919L79.8839 0.941406V16.0459L85.6526 9.45917H90.3398L84.571 15.9491L91.3313 26.45H87.6356C86.7794 26.45 86.4638 26.1796 85.923 25.3684C85.3822 24.5572 81.6416 18.9237 81.6416 18.9237L79.8839 20.7476V26.405H76.0531ZM94.3509 21.808C94.313 20.6125 94.3147 16.3896 94.3248 12.6141H89.7088L92.3227 9.50434H94.3352C94.3431 7.47959 94.3509 6.03399 94.3509 6.03399L98.1817 4.63698V9.50434H102.688V12.6141H98.1817V20.5911C98.1817 22.2136 98.9029 24.6022 103.139 22.5741V26.0444C103.139 26.0444 98.9477 26.8556 97.1451 26.0894C95.3423 25.3232 94.4135 23.7944 94.3509 21.808ZM104.852 9.50434H108.638V11.3737C109.308 10.4691 111.324 8.56704 115.758 10.0451C115.037 10.7211 114.542 12.3887 115.037 13.6507C113.377 12.3312 109.346 12.1783 108.638 16.1514V26.45H104.852V9.50434ZM117.516 13.5153C117.516 13.5153 116.479 10.2254 119.589 9.63954C122.699 9.05357 125.583 9.90994 126.575 10.9015C127.566 11.8929 128.603 12.9295 128.603 16.8053V21.2671C128.603 22.9797 128.873 24.6922 130 25.3232C129.144 26.5852 126.349 27.2162 125.313 24.6472C123.916 26.1346 121.347 27.081 118.417 26.2246C115.488 25.3684 114.677 22.6192 115.173 19.9601C115.668 17.3011 118.643 15.8139 120.536 15.5435C122.428 15.2731 124.051 15.2731 124.727 15.6337C124.817 13.6055 123.6 12.7943 121.482 12.7491C119.364 12.7041 117.516 13.5153 117.516 13.5153ZM124.772 18.5631V20.3207C124.772 21.5826 124.411 23.3854 121.572 23.3854C118.733 23.3854 118.868 21.6728 118.868 20.9967C118.868 20.3207 119.769 17.4363 124.772 18.5631Z" fill="#707070"/>
</svg>
