<svg width="180" height="81" viewBox="0 0 180 81" fill="none" xmlns="http://www.w3.org/2000/svg">
<path fill-rule="evenodd" clip-rule="evenodd" d="M16.9258 54.377V48.7909H18.6135V32.0931H16.9258V26.5265H37.5279V35.1898H32.2114V32.092H27.3819V37.7584H31.044V43.2253H27.3819V48.7909H29.5397V54.377H16.9258ZM48.2941 48.7898H50.5786V54.376H38.4412V48.7898H40.189V32.092H38.4412V26.5254H50.9228C55.0054 26.5254 57.9214 27.1543 59.6749 28.4055C61.4227 29.6633 62.297 31.7299 62.297 34.6206C62.297 36.119 62.0259 37.4169 61.4779 38.5012C60.9364 39.5854 60.1068 40.4886 58.9946 41.2042L62.4131 48.7898H63.7242V54.376H55.4584L50.922 42.8892H48.2941V48.7898ZM48.2941 32.092V37.9926H48.9915C50.3634 37.9926 51.3701 37.7519 52.0122 37.277C52.6544 36.8021 52.975 36.0529 52.975 35.0358C52.975 34.0394 52.6487 33.2967 52.0017 32.7946C51.3547 32.2991 50.3748 32.0519 49.0588 32.0519C48.9817 32.0519 48.86 32.0584 48.6935 32.0725C48.5606 32.0838 48.4274 32.0903 48.2941 32.092ZM74.9215 41.4059H78.8466L77.0436 33.4636L74.9215 41.4059ZM72.9886 48.7898H74.4588V54.376H66.5314V48.7898H67.7402L72.1776 32.0519H70.4841V26.5254H86.0555V32.0519H84.3344L88.7336 48.7898H89.9806V54.376H78.8141V48.7898H80.4743L79.5651 44.6566H74.0447L72.9886 48.7898ZM96.8688 37.0699V48.7909H98.8935V54.377H90.3402V48.7909H92.0012V32.0931H90.3402V26.5265H100.38L107.78 42.7363V32.053H105.802V26.5265H114.35V32.053H112.689V54.377H104.876L96.8688 37.0699ZM143.35 48.7898H143.844V54.376H131.975V48.7898H133.527L128.099 40.0126L133.907 32.0519H131.719V26.5254H141.819V32.0519H140.479L136.298 37.7921L143.35 48.7898ZM117.38 54.377V48.7909H119.04V32.0931H117.38V26.5265H129.331V32.0931H127.669V48.7909H129.331V54.377H117.38ZM144.002 54.377V48.7909H145.663V32.0931H144.002V26.5265H164.278V35.1898H159.045V32.092H154.292V37.7584H158.359V43.2253H154.292V48.7909H159.045V45.267H164.277V54.377H144.002Z" fill="#707070"/>
</svg>
