<svg width="123" height="37" viewBox="0 0 123 37" fill="none" xmlns="http://www.w3.org/2000/svg">
<path d="M14.8667 0.832623C11.325 1.88115 7.78332 4.47915 5.76783 7.49657C4.09019 10.0247 3.30963 12.5994 3.19313 15.9896C3.05332 20.3468 4.19505 23.772 6.828 26.9292C8.31924 28.7233 11.0454 30.7272 13.224 31.6242L14.1444 32.0087L7.49207 32.0436L0.828125 32.0669V34.1057V36.1445H61.8754H122.923V34.1057V32.0669H121.769H120.616L120.371 31.1699C120.243 30.6689 118.356 23.7487 116.201 15.7799L112.274 1.29863L110.876 1.33358L109.478 1.36853L105.331 16.6886L101.172 32.0087L98.0145 32.0436L94.8456 32.0669V16.6886V1.31028H92.8651H90.8846V16.6886V32.0669H87.2147H83.5449V24.3195V16.5721H81.5061H79.4673V21.9895C79.4673 24.9719 79.4324 27.4068 79.3858 27.4068C79.3508 27.4068 78.8149 27.069 78.1974 26.6612C76.1703 25.3214 74.4694 23.2827 73.6538 21.2206C73.0014 19.5895 72.8966 18.9371 72.8849 16.5721C72.8849 14.7081 72.9199 14.277 73.1529 13.3799C73.4674 12.1334 74.2596 10.4208 74.9703 9.41886C76.2635 7.61307 78.6401 5.83058 80.9003 4.98011L81.4479 4.77041V2.69666C81.4479 1.22873 81.4129 0.611268 81.3197 0.611268C81.0051 0.611268 78.71 1.45009 77.8712 1.88115C75.5179 3.05782 72.7568 5.42282 71.4636 7.36841C69.7976 9.84992 68.9238 12.5994 68.784 15.7566C68.5277 21.5235 70.8461 26.3583 75.448 29.6903C76.0305 30.0981 77.2305 30.8087 78.1159 31.2514L79.7469 32.0669H70.9277H62.1084V24.3195V16.5721H60.0696H58.0308V22.0011V27.4301L57.4833 27.1156C56.5629 26.5913 55.293 25.5778 54.5474 24.7739C52.6018 22.7001 51.5883 20.2536 51.4252 17.2711C51.1339 11.6208 54.0348 7.18201 59.5221 4.94516L60.1279 4.70051L60.1046 2.68501L60.0696 0.669519L59.6735 0.70447C59.4522 0.72777 58.893 0.879224 58.4503 1.04233C54.3028 2.52191 50.6213 5.73738 48.9087 9.37226C48.3728 10.5023 47.8252 12.2499 47.5806 13.578C47.3126 15.0809 47.3126 18.1216 47.6039 19.6012C48.5825 24.7855 51.6931 28.7699 56.6911 31.2631L58.3221 32.0669L50.9941 32.0436L43.6661 32.0087L39.507 16.6886L35.3595 1.36853L33.9498 1.33358L32.5401 1.29863L32.4586 1.62484C32.4236 1.79959 30.5479 8.69654 28.3111 16.9566C26.0742 25.2049 24.2451 31.9854 24.2451 32.0087C24.2451 32.0436 22.8005 32.0669 21.0413 32.0669H17.8375V24.3195V16.5721H15.8569H13.8764V21.9895C13.8764 24.9719 13.8298 27.4068 13.7832 27.4068C13.6201 27.4068 12.1289 26.3933 11.29 25.7059C9.64736 24.3545 8.14448 22.0011 7.57362 19.8924C7.20081 18.4828 7.13091 15.4071 7.44547 13.8926C8.21438 10.1761 10.5328 7.27521 14.1677 5.46942C14.622 5.24807 15.1812 5.00341 15.4259 4.93351L15.8569 4.78206V2.69666C15.8569 1.10058 15.822 0.611268 15.7171 0.622918C15.6356 0.622918 15.2511 0.71612 14.8667 0.832623ZM36.3264 20.6031C36.3031 20.638 35.208 20.638 33.9032 20.6264L31.5149 20.5914L32.6566 16.3974C33.2741 14.0906 33.8216 12.0751 33.8682 11.912C33.9265 11.7023 34.276 12.844 35.1614 16.0945C35.8255 18.5527 36.3497 20.5798 36.3264 20.6031ZM112.146 16.2809L113.323 20.5914L110.935 20.6264C109.63 20.638 108.535 20.638 108.511 20.6031C108.488 20.5798 109.001 18.5643 109.665 16.1178C110.329 13.6712 110.888 11.7489 110.923 11.8188C110.946 11.9004 111.505 13.9042 112.146 16.2809ZM37.7478 25.6244C37.8876 26.1253 38.3303 27.768 38.738 29.2709L39.4837 32.0087L33.9964 32.0436C30.9906 32.0553 28.4975 32.0436 28.4742 32.0203C28.4392 31.9854 30.1751 25.4147 30.3615 24.8671C30.3965 24.7622 31.2236 24.7273 33.9614 24.7273H37.5031L37.7478 25.6244ZM115.42 28.3389C115.956 30.2961 116.399 31.9271 116.399 31.9737C116.399 32.032 113.905 32.0669 110.853 32.0669C105.366 32.0669 105.319 32.0669 105.389 31.8339C105.506 31.4728 107.311 24.8321 107.311 24.7739C107.311 24.7506 108.919 24.7389 110.876 24.7506L114.453 24.7855L115.42 28.3389Z" fill="#707070"/>
</svg>
