<svg width="127" height="38" viewBox="0 0 127 38" fill="none" xmlns="http://www.w3.org/2000/svg">
<path fill-rule="evenodd" clip-rule="evenodd" d="M99.3879 1.92773H100.791H103.863V6.27836H102.46H99.3879V1.92773V1.92773ZM97.382 34.511V30.8883C99.2813 30.8883 99.3879 30.1957 99.3879 28.4742V8.62175H104.058V26.5383V26.573V29.6096C104.058 30.4448 103.969 31.2434 103.81 31.9714C103.437 33.5692 101.377 34.439 99.9386 34.4926C99.6194 34.511 97.4179 34.475 97.382 34.511ZM90.2439 16.2216C90.2439 14.304 88.9829 12.2085 86.8174 12.2085C83.9586 12.2085 82.9462 14.3929 82.9462 17.0562V27.2486L78.2228 27.2126V9.40332V9.38566V8.97689H82.6793V11.143C84.3661 8.85263 85.3249 8.30193 88.4682 8.30193C89.9417 8.30193 91.2203 8.79899 92.5343 9.59822C94.8607 11.0011 94.7011 14.1261 94.7011 16.4878V27.2133H90.2445V16.2216H90.2439ZM69.8596 16.168C69.789 15.0849 69.4685 14.1791 68.9361 13.4694C68.4038 12.7598 67.4979 12.3334 66.2016 12.2085C64.959 12.3327 64.0708 12.7592 63.5384 13.4871C62.9877 14.1974 62.6502 15.1032 62.5083 16.168H69.8596ZM119.826 16.168C119.755 15.0849 119.435 14.1791 118.902 13.4694C118.37 12.7598 117.465 12.3334 116.168 12.2085C114.943 12.3327 114.055 12.7592 113.505 13.4871C112.954 14.1974 112.617 15.1032 112.475 16.168H119.826ZM74.4765 21.9221C72.7008 27.4611 69.7177 27.7816 66.0421 27.7993C63.3075 27.7993 60.8392 26.6266 59.5076 24.8332C58.176 23.0399 57.5011 20.8031 57.4481 18.1569C57.4481 18.1209 57.4481 18.0679 57.4481 18.015C57.4481 17.9443 57.4481 17.8907 57.4481 17.8554C57.4481 16.2929 57.6966 14.7834 58.2113 13.3275C58.7084 11.8893 59.6142 10.6643 60.8929 9.68782C61.5142 9.19076 62.1892 8.85328 62.9524 8.62241C63.7163 8.40919 64.4796 8.30258 65.2605 8.30258H66.6098C67.0715 8.30258 67.5156 8.3379 67.959 8.40919C68.4208 8.47983 68.8465 8.56878 69.2906 8.67538C70.4986 8.9952 71.5634 9.65185 72.4516 10.6466C73.3574 11.6408 73.9957 12.7415 74.3509 13.9848C74.4751 14.5708 74.5824 15.1392 74.6354 15.6892C74.6884 16.2576 74.7243 16.8259 74.7243 17.3936C74.7243 17.6245 74.7243 17.873 74.7243 18.1039C74.7243 18.3524 74.7067 19.0627 74.6884 19.3289H62.4017C62.3664 21.9568 63.8929 24.053 66.095 24.123C68.2259 24.1766 69.2383 23.4487 69.9663 21.9221H74.4765ZM124.46 21.9221C122.667 27.4611 119.684 27.7816 116.008 27.7993C113.274 27.7993 110.788 26.6266 109.455 24.8332C108.123 23.0399 107.449 20.8031 107.397 18.1569C107.397 18.1209 107.397 18.0679 107.397 18.015C107.397 17.9443 107.397 17.8907 107.397 17.8554C107.397 16.2929 107.645 14.7834 108.16 13.3275C108.674 11.8893 109.563 10.6643 110.841 9.68782C111.481 9.19076 112.173 8.85328 112.918 8.62241C113.682 8.40919 114.446 8.30258 115.227 8.30258H116.594C117.038 8.30258 117.482 8.3379 117.943 8.40919C118.388 8.47983 118.831 8.56878 119.257 8.67538C120.465 8.9952 121.531 9.65185 122.436 10.6466C123.323 11.6408 123.963 12.7415 124.318 13.9848C124.46 14.5708 124.549 15.1392 124.602 15.6892C124.673 16.2576 124.691 16.8259 124.691 17.3936C124.691 17.6245 124.691 17.873 124.691 18.1039C124.691 18.3524 124.674 19.0627 124.656 19.3289H112.368C112.332 21.9568 113.86 24.053 116.079 24.123C118.192 24.1766 119.204 23.4487 119.933 21.9221H124.46ZM45.6049 8.79965H50.1504V11.7291C51.0209 10.8232 51.9261 8.16001 56.2054 8.32024V13.1496C55.0694 13.1496 52.9385 13.132 51.6422 14.304C50.7187 15.1385 50.2753 16.3988 50.257 18.1209L50.221 27.3186H45.6049C45.6049 21.3002 45.6049 14.8364 45.6049 8.79965ZM28.203 18.1399C28.203 19.6141 28.5405 20.8914 29.2508 22.0104C29.9434 23.1295 31.1684 23.7861 32.9264 23.9281C34.6668 23.7861 35.8742 23.1295 36.5485 21.9928C37.2411 20.8391 37.5786 19.5788 37.5786 18.1399C37.5786 18.0686 37.5786 17.998 37.5786 17.9084C37.5786 17.8377 37.5786 17.7488 37.5786 17.6422C37.5249 16.4701 37.1875 15.3694 36.5838 14.3576C35.9978 13.3275 34.95 12.6885 33.4405 12.4223C33.3692 12.4223 33.2986 12.4223 33.2456 12.4223C33.192 12.4047 33.1213 12.387 33.0684 12.3694C32.9977 12.3694 32.9264 12.3694 32.8728 12.3517C32.8192 12.3517 32.7486 12.3517 32.6956 12.3517C31.1148 12.476 29.9787 13.0979 29.2684 14.2163C28.5582 15.3347 28.203 16.648 28.203 18.1399ZM23.7465 18.2995C23.7465 15.4054 24.4744 13.0966 25.9479 11.3386C27.4221 9.58056 29.4817 8.69304 32.1096 8.69304H33.4588C33.7963 8.67538 34.1514 8.67538 34.5066 8.7107C34.8794 8.74602 35.2345 8.79965 35.5897 8.87028C37.8448 9.24308 39.4779 10.3621 40.5086 12.1731C41.5381 13.9842 42.0711 15.9554 42.1064 18.0503C42.1064 18.1033 42.1064 18.1392 42.1064 18.1745C42.1064 18.2099 42.1064 18.2452 42.1064 18.2988C42.0888 21.0157 41.3962 23.2884 40.0109 25.0818C38.6257 26.8751 36.4772 27.781 33.6008 27.781L32.2515 27.8156C29.3927 27.781 27.2619 26.8751 25.8596 25.0818C24.4384 23.2891 23.7465 21.0163 23.7465 18.2995ZM7.54477 19.495C7.71024 20.48 8.05295 21.4074 8.60038 22.2773C9.11902 23.1014 9.8607 23.6096 10.8483 23.7933C11.1609 23.8509 11.467 23.8725 11.7836 23.8509C12.8588 23.7744 13.6842 23.1805 14.2473 22.3473C14.7941 21.5108 15.123 20.499 15.2323 19.325C15.314 18.4466 15.3101 17.5061 15.1741 16.6376C15.0354 15.752 14.7378 14.9207 14.3186 14.1437C13.883 13.3517 13.2035 12.8448 12.2793 12.5996C11.7652 12.4635 11.3447 12.3831 10.8175 12.4969C9.76913 12.7219 8.96663 13.2987 8.42313 14.215C7.91822 15.0659 7.61279 16.0346 7.49637 17.1301C7.41462 17.9012 7.41723 18.7324 7.54477 19.495ZM15.8621 26.1295C14.0406 27.5638 11.5958 27.6253 9.37933 27.4494C7.14123 27.2695 5.44009 26.3048 4.2491 24.5677C2.95281 22.6324 2.29551 20.4663 2.33148 18.0863C2.33148 15.6716 2.97047 13.5224 4.26676 11.6048C5.56305 9.70483 7.49833 8.72836 10.0909 8.72836C14.1747 8.7107 14.4769 9.74015 15.6312 11.6761V9.2614H20.0878L20.1506 25.1733C20.1565 26.5592 20.3494 30.4553 18.9334 32.3984C18.2232 33.3566 17.3526 34.0486 16.2696 34.4573C15.1865 34.8661 14.0681 35.0793 12.9314 35.1316C12.7895 35.1316 12.6469 35.1676 12.5049 35.1676C12.363 35.1676 12.2204 35.1676 12.0792 35.1676L10.7299 35.2036C10.641 35.1859 10.5527 35.1676 10.4814 35.1676C10.3924 35.1676 10.3218 35.1676 10.2328 35.1676C10.1622 35.1676 10.0909 35.1676 10.0196 35.1676C9.94834 35.1676 9.89536 35.1676 9.86004 35.1676C8.17264 35.1499 6.89466 34.7425 5.49176 33.9603C4.0712 33.1964 3.36093 31.5802 3.30729 29.645L8.33288 29.6809C8.54609 31.6875 9.66449 31.9537 11.4578 31.9537C15.5475 31.9537 15.8621 29.1459 15.8621 26.1295Z" fill="#707070"/>
</svg>
