<svg width="238" height="93" viewBox="0 0 238 93" fill="none" xmlns="http://www.w3.org/2000/svg">
<path fill-rule="evenodd" clip-rule="evenodd" d="M117.57 20.5646C118.474 21.8447 119.151 23.5292 118.603 25.1462C114.437 33.8039 110.95 42.731 107.559 51.7256C106.3 55.2963 105.719 59.1703 103.943 62.5391C103.717 62.9097 103.297 63.4486 102.877 63.3476C101.747 63.1459 100.617 62.7415 99.9065 61.6634C97.6781 56.7116 100.1 51.2542 101.392 46.5378C104.233 38.2845 107.366 30.166 111.434 22.4178C112.306 21.1041 113.081 19.6214 114.405 18.6447C114.825 18.4087 115.406 18.476 115.858 18.5439L117.57 20.5646Z" fill="#707070"/>
<path fill-rule="evenodd" clip-rule="evenodd" d="M130.445 21.231C131.092 21.9334 131.708 22.6693 131.968 23.5047C132.13 25.4782 131.644 26.9835 130.963 28.5548C127.365 35.946 124.352 43.5712 121.467 51.2629C120.074 55.2424 119.037 59.3896 117.222 63.2021C116.25 63.6368 115.181 63.1012 114.37 62.4662C113.366 61.4966 112.426 60.2925 112.199 58.9214C112.75 51.3632 115.148 44.5741 117.87 37.9523C120.431 31.7656 123.25 25.6459 127.171 20.0944C128.5 19.1908 129.473 20.5958 130.445 21.231Z" fill="#707070"/>
<path fill-rule="evenodd" clip-rule="evenodd" d="M106.443 20.7104C107.416 22.667 106.803 25.1286 105.47 26.7141C104.281 27.9622 103.056 29.3113 101.578 30.2892C100.606 30.4919 99.5239 30.2554 98.7675 29.615C97.5061 28.4342 97.47 26.5794 98.0106 25.0613C99.0555 22.4979 101.722 20.1371 104.678 19.7998C105.398 19.8671 106.119 20.0698 106.443 20.7104Z" fill="#707070"/>
<path fill-rule="evenodd" clip-rule="evenodd" d="M100.321 35.0692C100.017 38.1168 98.8017 40.8599 97.958 43.7379C95.9336 48.8849 94.1106 54.0995 92.7943 59.5515C92.3556 60.8383 92.0524 62.2265 91.1412 63.3105C89.7907 63.2766 87.7999 63.7507 86.9561 62.328C84.3238 58.1972 86.8551 53.4903 88.0022 49.4948C89.4201 45.1598 90.8373 40.7916 93.0309 36.7622C94.0768 35.0692 95.6296 32.9019 97.8906 33.0034C98.971 33.1732 99.9157 34.1211 100.321 35.0692Z" fill="#707070"/>
<path fill-rule="evenodd" clip-rule="evenodd" d="M139.312 38.6647C139.779 40.5463 138.444 41.9494 137.678 43.4203C135.543 46.1912 134.176 49.3043 132.341 52.2126C131.974 52.9656 131.574 53.7185 131.674 54.6761C132.642 55.6341 133.609 54.0606 134.509 53.5812C139.212 49.0312 142.347 43.4545 145.349 38.0149C145.849 37.5012 146.382 36.8857 147.083 36.8857C148.317 37.8776 149.684 38.9728 150.451 40.3754C150.651 42.1545 149.784 43.7284 149.351 45.3708C146.882 51.9394 143.614 58.6106 137.477 63.2289C132.475 67.5737 127.205 71.3033 121.435 73.8352C120.568 73.9375 119.435 74.0741 118.801 73.3902L118.867 73.1507C123.337 70.3454 127.472 66.7184 131.641 63.0238C132.441 62.0318 133.675 61.1082 134.176 59.9449C133.208 60.2181 132.208 60.766 131.207 61.1082C130.074 61.3133 128.573 62.0318 127.539 61.0741C126.005 59.6025 124.437 57.9944 124.27 55.8396C125.371 48.6548 128.94 42.5309 132.742 36.4753C133.408 35.7565 133.876 34.4571 134.976 34.3198C137.011 34.8328 138.278 36.954 139.312 38.6647Z" fill="#707070"/>
<path fill-rule="evenodd" clip-rule="evenodd" d="M145.866 67.32C146.96 67.32 147.841 66.1383 147.841 64.6731C147.841 63.2217 146.96 62.04 145.866 62.04C144.767 62.04 143.881 63.2217 143.881 64.6731C143.881 66.1383 144.767 67.32 145.866 67.32ZM145.866 67.0021C144.902 67.0021 144.125 65.9654 144.125 64.6731C144.125 63.3946 144.902 62.358 145.866 62.358C146.825 62.358 147.603 63.3946 147.603 64.6731C147.603 65.9654 146.825 67.0021 145.866 67.0021ZM146.182 64.7906C146.576 64.7771 146.882 64.5628 146.882 63.9823C146.882 63.7336 146.799 63.4705 146.633 63.3464C146.467 63.2148 146.281 63.2013 146.094 63.2013H145.13V66.1527H145.4V64.7906H145.898L146.529 66.1527H146.851L146.182 64.7906ZM145.4 64.5071V63.4636H146.032C146.307 63.4636 146.607 63.5193 146.607 63.9749C146.607 64.5763 146.125 64.5071 145.814 64.5071H145.4Z" fill="#707070"/>
</svg>
