<svg width="145" height="64" viewBox="0 0 145 64" fill="none" xmlns="http://www.w3.org/2000/svg">
<path d="M133.456 36.8872C130.378 37.7143 134.167 30.7285 134.167 30.7285L139.378 19.8366L128.249 20.4288C114.514 20.5476 109.425 28.0049 109.425 28.0049C104.092 34.4003 100.658 34.9902 100.658 34.9902C97.4629 35.4646 99.5961 32.3878 99.5961 32.3878L105.631 21.4931C106.697 19.7178 105.275 20.0733 105.275 20.0733L99.1189 21.2564C97.5845 21.4931 98.5295 20.666 98.5295 20.666L104.686 12.9692C106.225 10.9567 103.619 12.0209 103.619 12.0209L92.2515 15.3372L89.4119 20.1921C86.5677 23.7428 90.123 22.5601 90.123 22.5601C76.0841 38.133 75.8362 33.8988 75.8362 33.8988C73.0293 32.8786 81.7071 20.1121 81.7071 20.1121L71.7709 21.7303C66.4099 33.2177 60.1693 31.6768 60.1693 31.6768C55.4304 31.0841 62.892 20.4288 62.892 20.4288L54.1253 21.6119C48.5116 27.2303 37.4339 32.625 37.4339 32.625L44.9422 19.8586L34.0002 22.2046L28.1994 30.8469C25.3552 35.1119 23.5775 37.4771 23.5775 37.4771C22.5156 38.307 17.8983 42.332 17.8983 42.332C13.0425 46.3593 0.846764 61.6318 0.846764 61.6318C-1.64197 64.9481 5.7026 62.1062 5.7026 62.1062L14.4646 59.7381C17.7767 58.9083 20.1485 56.4214 20.1485 56.4214L33.0506 40.3195C35.5393 39.608 49.2741 31.5584 49.2741 31.5584C45.4849 43.0431 53.6575 42.332 53.6575 42.332C59.5752 42.332 66.5596 38.0698 66.5596 38.0698C67.2706 43.5169 71.7709 42.2132 71.7709 42.2132C80.5329 41.8604 94.3847 23.3872 94.3847 23.3872L96.0407 23.1529L91.4235 30.7285C84.2005 42.9242 92.2515 42.4503 92.2515 42.4503C98.885 42.332 107.408 36.4128 107.408 36.4128C107.881 43.1614 113.331 42.332 113.331 42.332C118.659 42.332 124.932 37.7143 124.932 37.7143C125.288 42.0948 129.667 42.2132 129.667 42.2132C134.284 42.2132 137.128 35.9389 137.128 35.9389L136.417 35.5829C134.878 36.766 133.456 36.8872 133.456 36.8872ZM125.76 28.3605C124.104 31.5584 119.721 33.6893 119.721 33.6893C111.792 35.2274 117.115 28.8344 117.115 28.8344C119.249 26.7035 122.21 25.6392 122.21 25.6392C128.956 23.7428 125.76 28.3605 125.76 28.3605Z" fill="#707070"/>
<path d="M43.5901 2.31417L51.8797 0.654399C51.8797 0.654399 53.8913 -0.0538659 52.4691 2.31417C52.4691 2.31417 49.3909 9.77102 43.5901 10.7193C43.5901 10.7193 38.0233 12.2579 39.4454 8.11451C39.4454 8.11451 41.34 3.14126 43.5901 2.31417Z" fill="#707070"/>
<path d="M138.742 39.2081C138.742 40.6635 139.926 41.8461 141.385 41.8461C142.84 41.8461 144.024 40.6635 144.024 39.2081C144.024 37.7523 142.84 36.5669 141.385 36.5669C139.926 36.5669 138.742 37.7523 138.742 39.2081ZM139.252 39.2081C139.252 38.0307 140.211 37.0768 141.385 37.0768C142.555 37.0768 143.514 38.0307 143.514 39.2081C143.514 40.3795 142.555 41.3362 141.385 41.3362C140.211 41.3362 139.252 40.3795 139.252 39.2081Z" fill="#707070"/>
<path d="M140.244 37.6895H141.517C141.722 37.6895 141.896 37.7222 142.031 37.7886C142.288 37.9182 142.419 38.1577 142.419 38.5053C142.419 38.6873 142.382 38.836 142.317 38.9521C142.246 39.0676 142.148 39.1588 142.022 39.2304C142.129 39.2772 142.214 39.3432 142.27 39.4203C142.326 39.4975 142.354 39.6271 142.363 39.8035L142.377 40.2147C142.382 40.3302 142.391 40.4158 142.405 40.4738C142.429 40.5702 142.471 40.6334 142.527 40.661V40.7274H142.055C142.045 40.6998 142.031 40.6666 142.026 40.6254C142.017 40.5838 142.017 40.5038 142.012 40.3854L141.984 39.8755C141.98 39.6767 141.91 39.542 141.788 39.4755C141.718 39.4372 141.61 39.4203 141.46 39.4203H140.623V40.7274H140.244V37.6895ZM141.47 39.0788C141.643 39.0788 141.779 39.04 141.877 38.9628C141.98 38.8856 142.026 38.7476 142.026 38.5493C142.026 38.3318 141.961 38.1853 141.816 38.1081C141.746 38.067 141.643 38.0478 141.517 38.0478H140.623V39.0788H141.47Z" fill="#707070"/>
</svg>
