<svg width="139" height="23" viewBox="0 0 139 23" fill="none" xmlns="http://www.w3.org/2000/svg">
<path fill-rule="evenodd" clip-rule="evenodd" d="M64.0137 0.920898H70.7508L67.3822 8.42923L64.0137 0.920898V0.920898Z" fill="#707070"/>
<path fill-rule="evenodd" clip-rule="evenodd" d="M35.216 21.4102V0.920898H38.0229L50.4422 19.0951V0.920898H52.5477V21.4102H49.46L37.3215 3.5168V21.4102H35.216ZM18.2754 0.920898V21.4102H32.2393V19.5862H20.3802V11.7272H31.3269V9.90252H20.3802V2.7456H32.2393V0.920898H18.2754V0.920898ZM0.873047 0.920898V21.4102H2.97859V0.920898H0.873047ZM5.89208 10.5693L16.2419 0.920898H13.3298L3.01534 10.534L14.0312 21.4102H16.8381L5.89208 10.5693ZM54.0511 0.920898L63.243 22.8842L67.3835 13.6916L71.5233 22.8842L80.7159 0.920898H78.4699L71.3821 17.7615L67.3835 9.06075L63.3834 17.8314L56.2964 0.920898H54.0511V0.920898Z" fill="#707070"/>
<path fill-rule="evenodd" clip-rule="evenodd" d="M128.592 0.850773H121.786V21.3401H129.715C134.627 21.3401 138.416 16.7092 138.416 10.7447C138.416 4.99054 133.363 0.850773 128.592 0.850773ZM129.364 19.5154H123.891V2.67474H128.382C131.117 2.67474 136.311 5.34121 136.311 10.955C136.311 16.8489 132.24 19.5154 129.364 19.5154ZM89.1807 0.475098C83.9485 0.475098 79.7051 5.33974 79.7051 11.341C79.7051 17.3422 83.9478 22.2068 89.1807 22.2068C94.4144 22.2068 98.6593 17.3422 98.6593 11.341C98.6593 5.33974 94.4144 0.475098 89.1807 0.475098ZM89.1807 20.3219C85.0983 20.3219 81.7886 16.3005 81.7886 11.341C81.7886 6.38149 85.0983 2.36009 89.1807 2.36009C93.2646 2.36009 96.5744 6.38149 96.5744 11.341C96.5744 16.3005 93.2646 20.3219 89.1807 20.3219V20.3219ZM109.875 0.475098C104.641 0.475098 100.399 5.33974 100.399 11.341C100.399 17.3422 104.641 22.2068 109.875 22.2068C115.109 22.2068 119.352 17.3422 119.352 11.341C119.352 5.33974 115.109 0.475098 109.875 0.475098ZM109.875 20.3219C105.793 20.3219 102.483 16.3005 102.483 11.341C102.483 6.38149 105.793 2.36009 109.875 2.36009C113.959 2.36009 117.269 6.38149 117.269 11.341C117.269 16.3005 113.958 20.3219 109.875 20.3219Z" fill="#1D1C20"/>
</svg>
