<svg width="126" height="28" viewBox="0 0 126 28" fill="none" xmlns="http://www.w3.org/2000/svg">
<path d="M0.00280681 27.5106H5.38062V14.9304H5.458L15.103 27.5106H22.1331L10.645 13.1811L21.6721 0.40918H15.0639L5.37977 12.0609V0.40918H0.00195312V27.5226" fill="#707070"/>
<path fill-rule="evenodd" clip-rule="evenodd" d="M38.1813 0.380281C42.7496 0.380281 46.4395 4.1232 46.4395 8.74434C46.4395 12.5831 43.5022 15.6467 40.0115 16.6279L48.9796 27.4889H41.9495L32.2298 14.9087V27.4889H26.8496V0.375488L38.1813 0.380281ZM32.2179 13.4278L32.229 4.64797H36.6005C38.996 4.64797 40.9115 6.61409 40.9115 9.03907C40.9115 11.4605 38.9687 13.4278 36.5696 13.4278H32.2171" fill="#707070"/>
<path fill-rule="evenodd" clip-rule="evenodd" d="M92.9316 4.68534C95.3722 4.68534 97.3363 6.685 97.3363 9.15192C97.3363 11.6212 95.3911 13.4316 92.9482 13.4316H88.6087L88.6059 4.65179L92.9316 4.68534ZM94.5069 0.380502C99.0751 0.380502 102.765 4.12342 102.765 8.74456C102.765 13.3621 99.0621 17.105 94.4938 17.105H88.6289L88.6067 27.4879H83.2266V0.374512H94.5073" fill="#707070"/>
<path fill-rule="evenodd" clip-rule="evenodd" d="M69.8062 18.4648C69.8062 21.4625 67.3988 23.8923 64.4344 23.8923C61.4687 23.8923 59.0648 21.4625 59.0648 18.4648V0.385254H53.6953V17.71C53.6953 24.973 57.6887 27.9623 64.4344 27.9623C71.1777 27.9623 75.1734 24.973 75.1734 17.71V0.385254H69.8039L69.8066 18.4648" fill="#707070"/>
<path fill-rule="evenodd" clip-rule="evenodd" d="M124.131 0.911177C122.174 0.249098 120.325 0.000488281 118.023 0.000488281C113.303 0.000488281 108.662 2.20982 108.662 8.26031C108.662 17.2162 120.402 15.0848 120.402 20.2415C120.402 22.6856 117.677 23.7328 115.643 23.7328C113.534 23.7328 110.69 23.163 108.557 22.2807V26.7389C111.171 27.5881 113.036 27.9993 115.952 27.9993C121.361 27.9993 126.003 25.7504 126.003 19.815C126.003 10.7416 114.26 12.7197 114.26 8.02668C114.26 5.07931 116.639 4.26698 118.484 4.26698C120.362 4.26698 122.444 4.73904 124.129 5.47708V0.912256" fill="#707070"/>
</svg>
