<svg width="133" height="33" viewBox="0 0 133 33" fill="none" xmlns="http://www.w3.org/2000/svg">
<path d="M14.8893 33.2475H22.083L22.8358 29.865H26.1818V33.2475H33.4591V9.8175H20.0755L14.8893 33.2475ZM26.1818 15.51V23.8425H23.9233L26.1818 15.51ZM9.78679 25.9875H14.8057L13.2164 33.165H0L5.35346 9.8175H13.5509L9.78679 25.9875ZM54.873 9.8175L49.6031 33.165H36.2195V9.8175H43.5805V26.4L47.3447 9.8175H54.873ZM127.479 9.8175H114.179V33.165H121.373V29.7825H124.803L125.555 33.165H132.749L127.479 9.8175ZM121.373 23.8425V15.51L123.548 23.8425H121.373ZM111.921 26.3175L113.343 33.2475H98.8717L100.377 17.325H95.3585L94.0201 9.9H109.244L107.487 26.3175H111.921ZM95.4421 26.3175L96.8642 33.2475H82.3931L83.8987 17.325H78.8799L77.5415 9.9H92.7654L91.0088 26.3175H95.4421ZM59.8918 0L52.2799 33.2475H61.6484L62.7359 27.555H70.0969L71.1843 33.2475H80.4692L72.8572 0H59.8918ZM63.9069 20.2125L66.3327 7.5075L68.8421 20.2125H63.9069Z" fill="#707070"/>
</svg>
