<svg width="147" height="60" viewBox="0 0 147 60" fill="none" xmlns="http://www.w3.org/2000/svg">
<path fill-rule="evenodd" clip-rule="evenodd" d="M140.208 25.9461C140.885 25.9461 141.577 25.9461 142.206 25.859C142.757 25.6842 143.135 25.4955 143.513 25.3064C143.874 25.0738 144.268 24.9138 144.551 24.6233C144.928 24.2891 145.212 23.9544 145.479 23.5617C146.329 22.3267 146.581 20.7128 146.219 19.2885C145.873 18.0815 145.291 17.224 144.693 16.6865C144.441 16.4824 143.969 16.1047 143.67 15.9013C142.254 15.0725 140.13 14.8982 138.304 15.6542C137.329 16.1047 136.479 16.7735 135.881 17.6018C134.968 18.896 134.669 20.684 135.22 22.1954C135.85 23.8529 137.282 25.2486 139.248 25.7717C139.579 25.859 139.909 25.8733 140.208 25.9461ZM140.476 25.0158C142.175 25.0738 143.733 24.3762 144.63 23.1114C145.432 21.9485 145.511 20.3493 145.118 19.0123C144.881 18.4597 144.551 18.0815 144.268 17.6453C143.418 16.6572 141.876 15.9883 140.334 16.1482C139.579 16.2067 138.808 16.4824 138.304 16.7592C138.257 16.7735 138.21 16.8171 138.179 16.8899C137.927 16.9334 137.816 17.122 137.517 17.2968C136.4 18.2563 135.818 19.724 136.038 21.1631C136.259 22.3554 136.794 23.1697 137.628 23.9252C138.367 24.5212 139.406 24.8995 140.476 25.0158ZM142.521 23.4604H143.607L142.002 20.9162C142.883 20.7128 143.214 20.4657 143.434 19.9276C143.67 19.39 143.607 18.9395 143.292 18.3434C142.584 17.3254 140.696 17.5582 138.556 17.5439V23.4604H139.642V20.9597H140.885L142.458 23.4604C142.458 23.4604 142.458 23.4604 142.521 23.4604ZM139.705 20.0152L141.703 20.0732C142.852 19.9568 142.757 18.5176 141.703 18.387H139.642V20.0152H139.705ZM0.917524 59.8675C2.34873 58.8287 3.14562 57.5447 4.16801 56.1091C4.92435 54.976 5.55794 54.0882 6.35537 53.0494C9.79008 48.3656 13.4699 43.7189 17.15 39.2236C18.5397 37.4484 20.0937 35.7671 21.3814 33.992C23.2421 31.8201 25.0207 29.7044 26.8814 27.5134C31.9105 21.6967 37.6758 15.4824 43.6047 10.0993C43.666 10.0993 43.768 10.1375 43.8295 10.1375C43.87 10.1941 43.87 10.2503 43.9315 10.2884C43.3999 11.7806 42.4388 12.9138 41.6827 14.3494C40.5582 16.162 39.4951 17.8058 38.4322 19.5242C37.9413 20.1095 37.6758 20.8088 37.2465 21.3566L30.6227 31.7635C29.5596 33.4443 28.9048 34.5773 28.1691 35.6728C27.0447 37.5052 26.5134 38.2797 25.7563 39.6203C24.9594 40.9617 24.1618 42.1323 23.4669 43.417C22.0157 45.7964 20.257 47.8555 19.0713 50.575C18.9285 51.1795 18.8059 51.7086 19.0305 52.1998C19.2353 52.4641 19.6236 52.6525 20.0324 52.6525C21.2794 52.0674 23.2421 49.8387 25.3889 47.2135C26.0838 46.2313 26.9427 45.3059 27.6783 44.3613C30.52 40.9992 33.5052 37.7887 36.8782 34.5773C37.8393 33.841 38.5342 33.1042 39.1678 32.4056C40.7216 31.1776 41.948 29.3459 43.6047 28.7605C43.1339 30.7248 41.4172 32.3113 40.5175 34.2939L38.9637 36.4097L37.9413 38.0904C37.7373 38.1854 37.7779 38.4306 37.5731 38.6382C35.263 42.8316 29.9271 48.6484 30.786 51.4629C30.9903 51.9164 31.1543 52.4074 31.7472 52.5017C32.8101 52.5017 33.3417 51.9164 34.1593 51.3686C37.1443 48.4031 40.3948 45.5888 43.4407 42.5291C45.8533 40.1681 48.4704 37.4484 51.4141 35.5785C51.4141 35.5785 51.5161 35.6161 51.5161 35.6728L49.4921 38.6764L48.0409 40.8107L44.7897 46.0798C44.6876 46.6275 44.2588 46.9677 44.0335 47.572C42.6023 50.2922 41.3146 53.843 42.8071 56.6945C43.3386 57.828 44.4016 58.4324 45.5873 58.8668C47.3045 59.2254 48.8992 58.2815 50.1262 57.6389C52.8039 56.0523 55.196 54.3907 57.9356 52.8984C59.3256 54.0883 61.4109 54.5226 63.3329 54.1257C66.1133 53.4838 68.0346 52.1998 70.1614 50.8776C71.4084 50.084 72.5123 49.3853 73.698 48.6109C73.9028 48.4974 73.9028 48.4599 74.0661 48.4031C74.1681 48.4031 74.2908 48.4031 74.3316 48.4599L73.9028 49.7439C73.3297 51.0285 72.6756 52.1998 72.3075 53.9373C72.3075 54.6359 72.5123 55.3161 72.9004 55.8072C73.6365 56.6945 75.2518 56.6002 76.4782 56.1658C80.8531 54.6359 84.0016 52.2558 87.7022 49.782C87.7022 49.782 87.8044 49.782 87.8044 49.8955C87.7022 51.1795 86.2097 52.1998 86.782 53.5971C87.048 54.1257 87.6409 54.1824 88.1724 54.2774C88.8266 54.1824 89.2968 54.0883 89.7869 53.7863C91.4437 52.8984 92.0771 51.4252 92.9354 50.084C93.6923 48.2522 95.287 46.4765 94.7962 44.3613C94.694 44.1537 94.5299 44.0213 94.4279 43.8703C93.631 43.5111 92.6086 43.6246 91.7497 43.9646C89.3989 45.1544 87.4361 46.4765 85.1873 47.8178C84.3904 48.3656 83.8583 48.6484 83.0406 49.1019C81.0786 50.1789 79.4634 51.2738 78.7678 51.4629C78.5637 51.4629 78.4002 51.3119 78.2977 51.1228C78.4617 50.3297 78.727 49.5929 78.8705 49.0453C79.7287 46.8351 80.9146 45.0035 82.039 43.266C86.6799 37.3918 94.5299 32.8966 100.153 27.6269C100.316 27.5134 100.357 27.4759 100.418 27.4759C103.935 24.3219 106.715 21.205 109.557 17.9943C110.579 16.7665 111.274 15.8224 112.072 14.7271C112.868 13.7067 113.625 12.9513 113.891 11.5349C113.83 10.8361 113.768 10.0427 113.196 9.6083C112.235 8.90951 111.008 9.30639 109.986 9.49483C106.776 10.5903 104.486 12.1202 102.013 13.7067C100.52 14.8404 98.9668 15.9734 97.6991 17.1065L93.5695 20.6578C92.8334 21.3941 92.1791 22.0929 91.4842 22.8863C89.6236 24.6996 88.0704 26.6823 86.5165 28.6089C86.3117 29.0624 86.0464 29.3459 85.7803 29.7426C85.4535 29.9878 85.4535 30.2336 85.1873 30.4789C85.024 30.9699 84.6964 31.2725 84.4311 31.7253C83.5928 33.0099 82.7751 34.2379 81.9775 35.5218C81.5481 35.8619 81.3847 36.504 80.9559 36.9008C80.7511 37.5427 80.3215 37.8453 80.0562 38.393C79.7287 38.884 79.5246 39.375 79.2586 39.8096C79.0953 40.1681 78.8705 40.5082 78.7678 40.9049C77.6433 42.189 76.3149 42.9258 74.9857 43.9646L71.4084 46.2313C70.7128 46.5332 70.3247 46.8734 69.6291 47.1752C68.7708 47.8178 67.8712 48.1574 67.013 48.7619C65.6838 49.291 64.4574 50.2922 62.8421 50.1406C62.8014 50.084 62.7401 50.0273 62.6381 49.933C62.5766 49.8955 62.5766 49.782 62.5766 49.782C63.4963 48.8 64.5594 48.1197 65.5203 47.2135C67.3803 45.6831 69.3231 44.1156 71.0196 42.5291C72.2055 41.4527 73.1664 40.5082 73.8613 39.375C74.0661 39.0349 74.1681 38.5816 74.3929 38.242C74.5976 37.5052 74.2908 36.7116 73.9028 36.2588C72.1033 35.2199 69.5271 35.6161 67.4418 36.2206C66.1133 36.8065 64.9889 37.3918 63.803 38.1472C63.2717 38.2797 61.7177 39.8662 61.0228 40.4139C60.5526 40.9992 60.1845 41.4902 59.6324 42.1323C59.2641 42.5857 57.5676 45.0976 56.9133 46.8351C56.5859 47.9121 56.3819 48.7619 56.0551 49.782C54.8894 50.7266 53.867 51.4252 52.7018 52.1998C52.5385 52.2558 52.4363 52.3506 52.2723 52.4074C51.6794 53.106 50.8213 53.2003 50.1877 53.748C48.8378 54.6359 47.8768 55.3729 46.3849 55.0703C46.2823 55.0703 46.2216 55.0136 46.2216 55.0136C45.526 52.4641 47.3045 49.6872 48.3064 47.3644C48.6337 47.081 48.695 46.6841 48.8992 46.4389C50.0237 44.3047 51.1481 42.4348 52.4363 40.5648C54.031 38.3363 54.6239 37.5052 55.891 35.6728L62.3106 26.9283C62.9034 25.8894 64.1298 25.0582 63.9665 23.7169C63.8645 23.5284 63.7005 23.3773 63.5985 23.3207C62.9034 23.1697 62.1472 23.1697 61.4109 23.3207C59.1008 24.3595 57.1795 25.7385 55.196 27.2682L53.6015 28.6089C49.9622 31.2725 46.7524 34.9365 43.1751 37.6937C43.1751 37.6937 43.0731 37.6937 43.0117 37.637C42.8071 37.5052 43.0117 37.1084 43.1339 36.9008C44.8311 33.841 46.4869 30.7248 48.3064 27.9103C49.1653 26.4937 49.9622 25.3041 50.8213 24.0195C52.0477 21.9986 53.3967 20.2229 54.5626 18.2402C54.8894 17.409 55.891 16.3703 55.3187 15.52C54.8279 15.2371 54.133 15.0857 53.5402 15.3314C53.1314 15.5767 52.6406 15.8224 52.2117 16.162C51.3527 16.6537 50.6571 17.258 50.0236 17.7492C49.6561 18.1836 49.1653 18.5421 48.8378 18.8255C48.1022 19.3732 47.4073 20.1663 46.6504 20.9031C46.6097 20.9597 46.5484 20.9974 46.4464 20.9974L43.9315 23.4716C43.2979 24.3595 42.3368 24.8505 41.5192 25.8517C39.9239 27.3816 37.7373 29.1942 35.8558 30.7248C35.8153 30.7248 35.7538 30.6871 35.7538 30.6298C36.9397 28.1556 38.5342 26.097 39.9239 23.8685C40.2927 23.2832 40.5175 23.0749 40.783 22.6787C42.2755 19.9777 43.9315 17.5033 45.424 14.7271C46.4869 13.1029 47.4073 11.4782 48.2657 9.79741C49.0625 8.41849 49.9216 7.19069 50.6571 5.75563C51.3121 4.62197 51.9457 3.52646 52.2117 2.20487C52.2117 1.90245 52.1503 1.59988 52.109 1.35462C51.9457 0.957903 51.5161 0.768792 51.0866 0.712646C49.4921 0.920249 48.4704 2.05341 47.346 2.82784C46.9165 3.33786 46.3849 3.58311 46.0576 3.97999C44.9944 4.96203 43.768 6.15251 42.6436 7.19069C42.7051 7.13388 41.6419 8.32419 40.9878 8.90951L39.8219 10.0427L34.9562 14.9347C34.098 15.7658 32.6461 17.1065 32.442 17.3523C31.4811 18.4478 23.5082 27.4759 21.9744 29.3077C21.1566 30.2902 20.5232 31.1776 19.8282 31.9144C19.194 32.6514 18.6625 33.2933 18.2331 33.8977C17.1087 35.3334 15.7595 37.1465 14.4923 38.733L12.1409 41.8494L8.82897 46.4389L2.45075 55.9582C1.91919 56.8078 1.38762 57.4879 0.95826 58.4701C0.754218 58.8287 0.487981 59.377 0.69275 59.7166C0.754217 59.8107 0.754217 59.8675 0.856238 59.8675H0.917524ZM62.2085 45.9855C63.435 45.1919 64.7229 44.3613 65.7858 43.266C66.3179 42.9826 66.6447 42.4916 67.115 42.038C68.0346 41.1501 69.3638 40.3196 69.3231 39.0349C69.2616 38.9217 69.1596 38.8273 68.9956 38.7707C67.2783 38.9216 66.4201 40.1115 65.0909 41.0935C64.2939 41.7928 63.9258 42.5857 63.2717 43.266C62.9034 44.2104 61.9838 44.9092 62.1058 46.0422L62.2085 45.9855ZM87.7429 32.8966L90.9114 30.6298C91.811 29.9878 93.3035 28.6089 93.2629 28.6656C94.4279 27.7212 95.8798 26.588 97.0043 25.5493C100.684 22.2438 105.12 18.9765 106.674 14.7271C106.572 14.3869 106.613 14.4812 106.449 14.3494C104.794 14.3494 103.791 15.52 102.504 16.2755C100.888 17.5033 99.1916 18.8822 97.6991 20.4121C96.7382 21.2998 95.9206 22.0361 95.3483 22.8297C93.9991 24.2086 92.6086 25.7951 91.3409 27.4759C90.1552 28.9115 88.3972 30.7814 87.6409 32.8966C87.7022 32.8966 87.7022 32.8966 87.7429 32.8966ZM131.677 57.7332C134.191 57.7332 136.379 56.5625 138.26 55.5238C140.08 54.2774 142.042 52.9551 143.493 51.2738L143.801 50.6699C143.801 50.6318 143.759 50.575 143.698 50.575C142.144 50.8209 141.306 52.0674 139.691 52.5584C137.442 53.5971 134.294 55.4672 131.574 54.3907C130.614 53.6914 130.287 52.7475 130.45 51.6705C131.411 47.1752 135.214 45.041 136.379 41.0935C136.277 40.9617 136.113 40.8108 136.052 40.6591C135.582 40.2629 134.723 40.5648 134.191 40.8482C133.599 41.2068 133.129 41.5845 132.597 41.9437C130.246 41.3011 127.466 40.3196 125.115 41.698C123.131 43.0201 120.188 43.6621 117.571 43.757C117.407 43.6621 117.366 43.6621 117.305 43.6246C117.305 43.5679 117.243 43.5111 117.203 43.4736C117.203 43.266 117.407 43.0767 117.468 42.8316C119.125 39.9605 120.985 37.5427 122.702 34.9365C123.172 34.4263 123.724 33.6896 124.092 33.1042C126.607 29.7044 128.467 28.0612 129.653 24.8129C129.428 24.3595 129.653 23.9628 128.427 24.4538C127.343 24.8505 126.443 25.606 125.585 26.3428C124.726 27.0224 123.99 27.9103 123.233 28.6089C122.498 29.4968 122.068 29.9878 121.148 30.9699C120.29 31.8768 119.82 32.8023 118.961 33.6896C115.915 35.8619 112.807 37.3918 109.761 39.6203C108.923 40.1115 108.269 40.6591 107.369 41.0558C107.267 41.0558 107.206 40.9992 107.206 40.9049C108.33 38.733 109.659 36.7116 110.947 34.6341C111.581 33.7844 111.908 33.2557 112.378 32.5189C113.298 31.1776 114.259 30.0445 115.158 28.7605C116.937 26.3804 118.797 23.9628 120.515 21.6967C120.719 21.2616 121.107 20.9597 121.107 20.4687C121.107 20.3177 120.985 20.2229 120.821 20.1663C118.797 19.8267 116.937 20.6578 115.71 22.1495C115.056 22.9806 114.32 23.7169 113.728 24.4538C112.439 25.9461 111.479 27.4193 110.354 28.9115C109.189 30.6871 108.064 32.4056 106.94 34.1429C106.183 35.1818 105.713 36.1638 105.059 37.0517L102.504 41.0935C102.34 41.698 101.911 42.0947 101.583 42.6239C100.786 43.8137 98.7008 43.3227 97.8011 44.4556C97.5764 45.041 97.8424 45.6455 98.0672 46.1931C99.2936 48.5541 96.3499 50.5375 97.045 52.8984C97.2696 53.2385 97.6991 53.4461 98.1287 53.5404C98.8643 53.6914 99.6619 53.5404 100.153 53.2004C100.193 52.9927 100.418 52.9927 100.52 52.8984C102.77 45.8346 108.8 41.3011 115.322 37.8828C115.424 37.8828 115.485 37.8828 115.547 37.8828C115.812 37.9396 115.71 38.242 115.649 38.393C113.625 40.3572 113.298 43.9646 109.986 44.6633C109.332 44.7009 108.964 44.9467 108.8 45.4002C108.33 46.5332 109.883 47.2135 109.393 48.309C108.698 50.1406 107.267 51.8214 107.369 53.7863C107.676 54.3907 108.432 54.2774 109.025 54.2774C112.602 53.0494 112.664 48.7052 114.954 46.5708C116.119 46.0798 117.898 45.5512 119.227 45.8346C118.593 47.3644 116.876 49.0076 117.366 51.1228C117.571 52.0674 118.266 52.6525 119.063 53.0494C120.944 53.6914 122.968 53.2952 124.685 52.6525C125.421 52.4074 126.075 52.1048 126.709 51.8596C126.771 51.8596 126.811 51.8596 126.873 51.9164C126.914 52.0105 126.914 52.1615 126.914 52.3125C126.975 53.2385 127.036 54.0882 127.343 54.976C127.936 56.3549 129.264 57.2995 130.941 57.6389C131.207 57.6389 131.472 57.6388 131.677 57.7332ZM123.99 50.0273C124.787 50.084 125.687 49.782 126.382 49.442C127.241 48.8 128.263 47.9688 128.733 46.9677C129.122 46.4389 129.551 45.5512 129.326 44.8524C129.224 44.7009 129.224 44.6066 129.162 44.55C128.467 44.0213 127.343 44.0589 126.382 44.4556C124.849 45.041 123.602 46.1365 122.805 47.572C122.702 48.2522 122.6 49.0076 122.968 49.442C123.131 49.5363 123.172 49.6496 123.295 49.7439L123.99 50.0273ZM95.9206 40.5082C97.2696 40.5648 98.2307 39.9229 98.9668 39.0349C99.4571 38.3363 99.8252 37.3918 99.4571 36.5607C99.0896 36.0129 98.5988 35.5218 97.9652 35.4275C96.7382 35.069 95.6138 35.7671 94.9187 36.4664C94.3259 37.2975 93.6923 38.5816 94.3259 39.5261C94.6527 40.0546 95.287 40.4139 95.9206 40.5082Z" fill="#707070"/>
</svg>
