<svg width="95" height="39" viewBox="0 0 95 39" fill="none" xmlns="http://www.w3.org/2000/svg">
<path d="M93.8989 5.8442C94.1545 6.00171 94.2039 6.16751 94.0555 6.43694C93.7752 6.95091 93.4783 7.4566 93.165 7.94571C92.5548 8.89491 91.9199 9.82753 91.3138 10.7809C90.5016 12.0617 89.7141 13.3591 88.8978 14.6357C87.9248 16.1611 87.0342 17.7362 86.2055 19.3486C85.752 20.2315 85.3232 21.1185 85.0016 22.0594C84.8408 22.5236 84.7501 23.0003 84.7831 23.4977C84.8243 24.0573 85.2242 24.335 85.752 24.1485C86.2344 23.9785 86.6425 23.6967 87.0136 23.3402C88.0526 22.3371 88.9596 21.218 89.8254 20.0698C90.4109 19.2947 90.9427 18.4823 91.5076 17.6864C91.6642 17.4667 91.8292 17.2802 92.1342 17.2719C92.7362 17.2554 93.0165 17.732 92.7486 18.2792C92.4558 18.8843 92.1507 19.4895 91.8044 20.0698C90.9345 21.5247 89.9697 22.9133 88.9225 24.2438C87.6526 25.8645 86.2962 27.4106 84.7254 28.7494C84.0575 29.3173 83.3442 29.8147 82.5732 30.2126C81.9589 30.5317 81.2828 30.6768 80.5571 30.5981C79.7284 30.5069 79.213 29.8561 79.0605 29.052C78.8049 27.7297 79.1141 26.4945 79.6088 25.2883C79.9923 24.3516 80.3468 23.4024 80.8787 22.5361C80.9447 22.4283 80.9612 22.2915 81.0436 22.0304C81.0106 22.0552 80.9818 22.076 80.9529 22.0967L79.9882 21.5661C80.5942 21.0895 81.1302 20.5382 81.6167 19.9372C82.3753 19.0004 83.1422 18.0719 83.8637 17.1061C84.3378 16.4678 84.7377 15.7714 85.1707 15.1041C85.7726 14.1715 86.3704 13.2347 86.9847 12.3145C87.8052 11.0835 88.6257 9.8524 89.4667 8.64207C90.0769 7.76333 90.7407 6.9219 91.3633 6.05145C91.6972 5.57892 92.1961 5.61208 92.6702 5.57892C92.9011 5.56234 93.1361 5.60379 93.3629 5.64939C93.5484 5.68669 93.7381 5.74887 93.8989 5.8442Z" fill="#707070"/>
<path d="M79.987 21.5661L80.9518 22.0967C80.7456 22.2459 80.6137 22.3412 80.4859 22.4324C79.9994 22.7764 79.5252 23.1453 79.014 23.4562C78.445 23.8002 77.7689 23.9205 77.1051 23.85C76.6887 23.8085 76.4784 23.966 76.2393 24.3267C75.2992 25.7567 74.2562 27.1079 73.0564 28.339C72.3472 29.0685 71.5845 29.7151 70.7434 30.2706C70.3064 30.5607 69.8281 30.7638 69.3087 30.8675C68.3604 31.054 67.474 30.598 66.9504 29.8271C66.3814 28.9939 66.2866 28.053 66.3443 27.0789C66.4103 25.9391 66.7318 24.8614 67.1441 23.8044C67.2596 23.506 67.3833 23.2075 67.4245 22.8593C67.0411 23.1744 66.6494 23.4769 66.2783 23.8044C65.4208 24.5546 64.4519 25.1308 63.3387 25.338C62.5059 25.4914 61.6318 25.5411 60.8856 24.9526C60.5104 24.6583 60.2218 24.3101 60.1022 23.8334C60.0692 23.7049 60.028 23.5806 59.9785 23.4396L60.8938 23.3816C61.0793 23.9205 61.6689 24.3847 62.2956 24.4303C62.914 24.48 63.483 24.2728 64.0478 24.0738C65.0208 23.7381 65.8042 23.0997 66.5669 22.4365C67.742 21.4127 68.7521 20.2273 69.7828 19.0667C69.956 18.8719 70.125 18.677 70.2982 18.4822C71.5062 17.1268 72.7389 15.7921 74.1861 14.6771C74.8622 14.1549 75.5879 13.6906 76.3959 13.4088C77.0721 13.1725 77.7854 13.1642 78.4492 13.4585C79.1542 13.7735 79.3603 14.4326 79.418 15.1414C79.55 16.8698 79.2655 18.5278 78.5028 20.0863C78.2141 20.6749 78.1111 21.2925 78.1317 21.9392C78.1399 22.1464 78.3048 22.3122 78.511 22.3329C78.8532 22.3619 79.1171 22.1796 79.3644 22.0179C79.5788 21.877 79.7891 21.7236 79.987 21.5661ZM77.9338 16.6833C77.8719 16.4139 77.8142 16.0284 77.6905 15.6678C77.5174 15.1704 77.2411 15.0792 76.7299 15.216C76.0867 15.3901 75.592 15.7963 75.1385 16.2481C73.8604 17.5164 72.9863 19.0335 72.4874 20.7703C72.2565 21.562 72.1287 22.3495 72.2895 23.1826C72.4503 24.0241 73.0688 24.4096 73.8645 24.0738C74.3551 23.8666 74.7303 23.506 75.1096 23.1453C75.4518 22.822 75.6621 22.4739 75.5837 21.9889C75.559 21.8645 75.5507 21.736 75.5755 21.6076C75.7404 20.8324 76.0084 20.1402 76.8824 19.9288C77.0061 19.8957 77.1422 19.7465 77.1999 19.618C77.5957 18.7226 77.8101 17.7776 77.9338 16.6833Z" fill="#707070"/>
<path d="M70.2126 13.9104C70.5259 14.5198 70.4806 15.1415 70.3198 15.784C70.1301 16.5549 69.8374 17.2679 69.3261 17.8772C69.2767 17.9352 69.2313 17.9891 69.1818 18.043C68.8355 18.416 68.4438 18.7186 67.9573 18.9176C67.343 19.1746 66.807 19.0129 66.3288 18.6482C65.8423 18.2751 65.5743 17.7694 65.698 17.1187C65.9165 15.9622 66.7246 15.4441 67.8708 15.7218C67.9079 15.7301 67.9491 15.7342 67.9862 15.7425C68.4645 15.8627 68.5016 15.871 68.683 15.4399C68.8561 15.042 68.9551 14.6109 68.7902 14.1674C68.6912 13.9063 68.4521 13.7405 68.1717 13.7281C67.6399 13.7115 67.1822 13.9353 66.7452 14.213L66.4731 13.641C66.5803 13.5871 66.6875 13.5374 66.7947 13.4876C67.5986 13.1312 68.4438 12.9074 69.3344 13.1436C69.7508 13.2514 70.0188 13.5415 70.2126 13.9104Z" fill="#707070"/>
<path d="M66.4731 13.6409L66.7453 14.2129C65.7228 14.8637 64.8899 15.7258 64.086 16.6253C63.0305 17.8025 62.1317 19.0998 61.402 20.4926C60.9773 21.3008 60.7382 22.1961 60.8412 23.1453C60.8495 23.2241 60.866 23.3029 60.8948 23.3816L59.9796 23.4396C59.9342 23.3029 59.8765 23.1495 59.8188 22.9671C59.5631 23.4562 59.3488 23.8417 59.155 24.2355C58.6437 25.2676 58.116 26.2914 57.6336 27.3359C57.209 28.252 56.8297 29.1929 56.4462 30.1296C56.3225 30.4364 56.1576 30.5814 55.7989 30.5773C54.5744 30.5566 53.3458 30.5732 52.1172 30.569C51.6142 30.569 51.4781 30.341 51.6678 29.8685C51.6884 29.8146 51.7131 29.7607 51.742 29.711C52.917 27.6675 54.0714 25.6075 55.2794 23.5847C56.4256 21.6614 57.6171 19.7672 58.8128 17.8688C59.2663 17.1475 59.7775 16.4595 60.264 15.7548C60.3712 15.5973 60.4702 15.4315 60.6392 15.1704C60.4042 15.2326 60.2187 15.3196 60.062 15.4232L59.1962 14.7559C59.7487 14.3663 60.3383 14.0305 60.9608 13.7611C61.8225 13.388 62.7584 13.1476 63.7314 13.4005C64.3086 13.5497 64.4941 13.8357 64.2674 14.3746C64.0406 14.9093 63.7603 15.4191 63.5046 15.9372C63.5294 15.9414 63.55 15.9621 63.5665 15.9828C63.7479 15.8129 63.9417 15.6554 64.1107 15.473C64.8034 14.7352 65.5785 14.0968 66.4731 13.6409Z" fill="#707070"/>
<path d="M59.1948 14.756L60.0606 15.4233C59.8998 15.5228 59.7679 15.6388 59.6318 15.7508C57.9991 17.1145 56.5973 18.6978 55.2244 20.3185C53.4804 22.3786 51.8271 24.5216 49.9265 26.4448C48.8339 27.5515 47.729 28.6458 46.4137 29.4872C45.6675 29.9639 44.8718 30.3453 44.0142 30.6188C43.503 30.7805 42.9876 30.8551 42.4764 30.88C41.3261 30.938 40.4273 30.2126 40.0397 29.1722C39.6439 28.1111 39.7388 27.0251 39.9078 25.9391C40.1098 24.6293 40.5757 23.4231 41.1529 22.2584C41.8332 20.8823 43.235 18.8056 44.2533 17.6575C45.2387 16.5507 46.3189 15.5559 47.5517 14.7352C48.5206 14.0928 49.543 13.5415 50.7016 13.3591C51.1716 13.2845 51.6622 13.3508 52.1446 13.3757C52.5157 13.3964 52.7177 13.6575 52.895 13.9518C53.2866 14.6067 53.2413 15.3155 53.0558 15.9912C52.6888 17.3341 51.9261 18.4616 50.9737 19.4605C50.3594 20.1071 49.6956 20.6999 48.9576 21.2056C47.9681 21.8812 46.9044 22.3579 45.7293 22.5693C45.4655 22.6149 45.3995 22.7309 45.4243 22.9547C45.4943 23.6262 46.0015 24.3392 46.9374 24.1941C48.1041 24.0117 49.1679 23.5889 50.1491 22.9382C51.3695 22.1299 52.4332 21.1392 53.4763 20.1196C54.8616 18.7642 56.2222 17.3797 57.6281 16.0492C58.1187 15.5808 58.6423 15.1456 59.1948 14.756ZM51.2705 15.9124C51.3654 15.357 50.8871 14.9756 50.2604 15.328C49.8811 15.5477 49.5183 15.8212 49.1926 16.1197C48.1083 17.102 47.2053 18.2502 46.4467 19.4978C46.1169 20.0408 45.919 20.6626 45.6716 21.2553C45.6386 21.3299 45.6593 21.4708 45.7129 21.5206C45.7582 21.562 45.8901 21.5413 45.9726 21.5123C46.8755 21.2014 47.7042 20.7496 48.4422 20.1486C49.4111 19.3569 50.2852 18.474 50.8582 17.3466C51.0726 16.9196 51.2623 16.4637 51.2705 15.9124Z" fill="#707070"/>
<path d="M49.0286 5.53337C49.0904 5.68259 49.0451 5.84424 48.8265 5.86911C48.1174 5.94372 47.5814 6.36651 47.0372 6.77272C46.159 7.43177 45.4416 8.25248 44.7201 9.06904C43.4544 10.5032 42.403 12.0866 41.4259 13.7322C40.4282 15.4192 39.6118 17.1891 38.9687 19.0336C38.5852 20.132 38.2389 21.2553 37.9957 22.391C37.5957 24.2438 37.369 26.1257 37.4597 28.0324C37.4762 28.3432 37.4885 28.6583 37.4679 28.9733C37.4143 29.9017 37.7071 30.7515 38.0616 31.5722C38.5151 32.6126 39.2985 33.3877 40.3746 33.7359C41.3929 34.0633 42.4525 34.1877 43.5245 33.9141C44.3202 33.711 45.0252 33.3379 45.6684 32.8364C46.1095 32.4965 46.361 32.5711 46.526 33.0934C46.7362 33.7649 46.5218 34.3866 46.192 34.942C45.4952 36.1192 44.5099 37.0311 43.339 37.7192C42.3082 38.3244 41.2033 38.7181 39.9829 38.6518C39.3232 38.6145 38.6471 38.656 38.0122 38.5067C36.9897 38.2663 36.0496 37.7938 35.258 37.0643C34.1861 36.0778 33.6089 34.826 33.2378 33.4416C32.7761 31.738 32.7596 30.0054 32.8297 28.2686C32.8503 27.709 32.9533 27.1453 33.0605 26.5899C33.3739 24.9609 33.7491 23.3485 34.3799 21.8107C34.7922 20.8035 35.1632 19.7755 35.6126 18.7849C36.1404 17.616 36.7341 16.4803 37.4143 15.3901C38.0946 14.3 38.7502 13.1933 39.4717 12.1322C40.0283 11.3156 40.6673 10.5529 41.2651 9.76955C41.3105 9.71152 41.3476 9.6452 41.3888 9.58302C41.36 9.55815 41.3311 9.53328 41.3064 9.50427C41.1332 9.64934 40.9477 9.78613 40.7827 9.94363C39.2861 11.411 37.9173 12.9985 36.5815 14.6109C35.3075 16.1528 34.0665 17.7238 32.7967 19.2699C31.2918 21.1019 29.7993 22.9465 28.245 24.7371C26.8968 26.2915 25.4703 27.7837 23.8582 29.0727C23.2728 29.5411 22.6543 29.9929 21.9287 30.2416C21.5453 30.3743 21.1453 30.453 20.7495 30.5401C20.5929 30.5732 20.4073 30.5401 20.3785 30.3494C20.3579 30.2126 20.4032 30.0551 20.4527 29.9183C20.4733 29.8603 20.5764 29.8313 20.6382 29.7815C21.5947 29.0272 22.3327 28.0821 23.013 27.0832C23.751 25.993 24.2334 24.7827 24.6869 23.5641C25.3095 21.9019 25.8867 20.2273 26.468 18.5486C27.1277 16.6378 27.7873 14.7269 28.5707 12.8617C28.8634 12.1571 29.1891 11.4648 29.4365 10.7187C29.2386 10.9384 29.0201 11.1457 28.851 11.3861C27.3379 13.5539 25.8166 15.7176 24.3323 17.9062C23.3923 19.2906 22.5224 20.7247 21.6071 22.1216C20.4238 23.9288 19.2488 25.7402 18.0202 27.5142C17.1214 28.8075 16.1607 30.0551 15.1877 31.2945C14.0539 32.7369 12.7428 34.0094 11.2256 35.0291C9.41153 36.2477 7.41192 36.7949 5.21029 36.4591C4.30325 36.3223 3.44156 36.0736 2.68294 35.5514C1.66871 34.855 0.955445 33.9265 0.510171 32.7535C0.0484052 31.5473 0.00717624 30.308 0.102003 29.0603C0.159724 28.3308 0.374115 27.6054 0.675088 26.9256C1.18633 25.7568 1.85836 24.6832 2.80251 23.8252C3.22717 23.4397 3.73016 23.1247 4.23316 22.8511C4.45167 22.7309 4.76501 22.7599 5.033 22.7807C5.28038 22.7972 5.32161 23.0252 5.28038 23.2242C5.18143 23.7008 5.06599 24.1734 4.9423 24.6459C4.7444 25.4169 4.69905 26.1754 4.96704 26.9505C5.30511 27.9163 5.92767 28.5546 6.88419 28.9028C7.65105 29.1805 8.3808 29.1349 9.16416 28.9401C10.3722 28.6417 11.407 28.0572 12.4006 27.3277C14.2024 26.0055 15.7072 24.3848 17.1131 22.6687C18.3706 21.1392 19.5663 19.5559 20.7701 17.9808C22.5884 15.6015 24.3612 13.185 26.2165 10.8348C27.3091 9.44624 28.5171 8.14471 29.688 6.82246C30.224 6.21729 30.8012 5.64528 31.4155 4.99866C31.0568 4.94893 30.7311 4.87846 30.4095 4.84116L30.5167 3.68056C30.7723 3.70128 31.0279 3.72615 31.2836 3.75102C31.5516 3.77589 31.8154 3.82149 32.0834 3.8505C32.438 3.89195 32.7513 3.83807 33.0647 3.61424C34.0954 2.864 35.1137 2.08474 36.264 1.52517C37.8101 0.770779 39.4222 0.277526 41.1662 0.34799C41.2445 0.352135 41.3228 0.343846 41.4012 0.352136C42.2175 0.4226 42.5432 0.961448 42.2794 1.74485C41.9495 2.72307 41.2074 3.28679 40.3622 3.75102C39.4882 4.23184 38.5275 4.46396 37.571 4.66707C36.7959 4.82872 35.9919 4.87432 35.2003 4.9282C34.9076 4.94478 34.6355 5.094 34.4623 5.33026C34.1531 5.74476 33.815 6.15097 33.5594 6.59863C32.5823 8.29807 31.9185 10.126 31.3908 12.0078C31.131 12.9446 30.8177 13.8648 30.5497 14.7974C30.3477 15.5062 30.1869 16.2274 29.9931 16.9404C29.7292 17.9144 29.453 18.8885 29.1809 19.8626C29.0036 20.5092 28.8263 21.1558 28.616 21.9102C28.7974 21.7734 28.917 21.7195 28.9912 21.6242C29.9436 20.4719 30.8878 19.3113 31.8443 18.159C33.11 16.6336 34.384 15.1124 35.6538 13.5871C37.0639 11.8959 38.5687 10.2918 40.1643 8.77889C41.3682 7.63488 42.6381 6.56133 44.0934 5.74476C44.8191 5.33855 45.5694 4.97794 46.4023 4.86188C47.1939 4.74997 47.9937 4.70437 48.7193 5.15203C48.8513 5.23493 48.9667 5.38829 49.0286 5.53337Z" fill="#707070"/>
<path d="M30.5175 3.68061L30.4103 4.84121C30.3031 4.82877 30.1959 4.82048 30.0887 4.81634C28.8642 4.7666 27.6397 4.70857 26.4152 4.72515C25.4669 4.73758 24.5186 4.75002 23.5745 4.91167C23.0591 4.99872 22.5314 4.98214 22.0078 5.03188C21.1214 5.11892 20.2638 5.32617 19.4062 5.57073C18.6806 5.77797 17.9838 6.03496 17.3035 6.34169C15.9512 6.95101 14.904 7.92508 14.199 9.21002C13.8692 9.81105 13.6919 10.5198 13.5435 11.1996C13.3538 12.0618 13.3703 12.9281 13.6094 13.8068C13.9764 15.1332 15.1431 16.0451 16.4996 16.099C17.7859 16.1487 18.7713 15.6057 19.5258 14.5861C19.5918 14.499 19.633 14.3954 19.7154 14.2337C19.4475 14.2793 19.2454 14.3084 19.0475 14.3457C17.9715 14.5322 17.3324 13.8897 17.5179 12.7871C17.6457 12.0162 17.9962 11.3488 18.5116 10.7727C18.9156 10.3209 19.3691 9.94369 19.9587 9.72815C20.2885 9.60794 20.6101 9.59965 20.9317 9.6411C21.3234 9.6867 21.6202 10.0556 21.6821 10.5033C21.7068 10.6939 21.6986 10.8929 21.6986 11.0877C21.6862 12.6835 21.2162 14.1467 20.4782 15.5477C20.0906 16.2814 19.6165 16.9321 19.0146 17.4959C18.4745 18.0057 17.8849 18.4658 17.2005 18.7228C16.0626 19.1497 14.8545 19.3404 13.663 19.0046C12.2406 18.6026 11.1109 17.7445 10.3152 16.472C9.41642 15.0379 9.17317 13.4794 9.39993 11.8131C9.65143 9.94783 10.5626 8.4432 11.8613 7.14582C12.4797 6.52822 13.193 6.02253 13.9434 5.57487C14.9081 5.00286 15.91 4.50961 16.9985 4.21117C17.7529 4.00392 18.5033 3.79253 19.2537 3.59771C19.5134 3.53139 19.7773 3.49409 20.0453 3.46922C20.7132 3.41119 21.3811 3.29927 22.0531 3.28684C22.8736 3.27026 23.6941 3.26611 24.5145 3.26611C25.4999 3.27026 27.1078 3.3573 28.085 3.44849C28.8972 3.52725 29.7094 3.60186 30.5175 3.68061Z" fill="#707070"/>
</svg>
