<svg width="180" height="44" viewBox="0 0 180 44" fill="none" xmlns="http://www.w3.org/2000/svg">
<path fill-rule="evenodd" clip-rule="evenodd" d="M149.2 20.7706V23.4368H153.452V20.7706C153.452 19.6291 152.492 18.6759 151.344 18.6759C150.156 18.6759 149.2 19.6291 149.2 20.7706ZM160.501 16.9991C154.715 14.1429 148.663 13.9512 142.724 16.4655C137.822 18.5222 135.524 24.1621 137.629 29.0388C138.702 31.5531 140.501 33.3041 143.07 34.2573C148.932 36.466 154.715 36.314 160.423 33.7237C162.913 32.6185 164.639 30.7898 165.558 28.2375H158.049C157.205 30.9055 154.333 32.4269 151.615 31.5911C151.384 31.5151 151.19 31.4374 150.924 31.3234C149.849 30.8278 149.2 29.8003 149.2 28.6191V26.7144H165.749C166.245 22.6373 164.215 18.8641 160.501 16.9991ZM101.846 20.7706C101.846 19.6291 100.929 18.6759 99.743 18.6759C98.5917 18.6759 97.6366 19.6291 97.6366 20.7706V23.4368H101.846V20.7706ZM114.146 26.7144C114.644 22.6373 112.612 18.8641 108.898 16.9991C103.15 14.1429 97.06 13.9512 91.1228 16.4655C86.2171 18.5222 83.9596 24.1621 86.0243 29.0388C87.0975 31.5531 88.9365 33.3041 91.5031 34.2573C97.3275 36.466 103.15 36.314 108.86 33.7237C111.31 32.6185 113.036 30.7898 113.955 28.2375H106.444C105.64 30.9055 102.768 32.4269 100.045 31.5911C99.8177 31.5151 99.5867 31.4374 99.3592 31.3234C98.2843 30.8278 97.6366 29.8003 97.6366 28.6191V26.7144H114.146ZM118.433 30.6758V13.5713H115.448V9.38021H132.612V30.6758H135.637V34.8669H115.448V30.6758H118.433ZM72.4255 15.2084L78.5954 12.0085L76.6401 8.31301L70.4719 11.4749L72.4255 15.2084ZM81.0474 30.6758V15.704H64.4583V19.8951H67.4816V30.6758H64.4583V34.8669H84.0707V30.6758H81.0474ZM39.4018 19.3235L46.6449 9.38021H61.7389V13.5713H58.7121V30.6758H61.7389V34.8669H42.123V30.6758H45.1498V19.5894L34.0012 34.8669L22.8144 19.5894V30.6758H25.8412V34.8669H15V30.6758H17.9868V13.5713H15V9.38021H32.124L39.4018 19.3235Z" fill="#707070"/>
</svg>
