<svg width="118" height="38" viewBox="0 0 118 38" fill="none" xmlns="http://www.w3.org/2000/svg">
<path d="M19.2256 0.13208C8.95492 0.13208 0.629494 8.46575 0.629494 18.7464C0.629464 25.667 4.40446 31.711 10.0067 34.9189L0.154297 34.8871V37.8679H17.8316V34.5384C9.7761 33.8141 3.449 27.0292 3.449 18.778C3.449 10.0436 10.5313 2.95446 19.2572 2.95446C27.9831 2.95446 35.0338 10.0436 35.0338 18.778C35.0338 27.1967 28.4317 34.0513 20.1443 34.5384V37.8679H37.7266V34.9505H28.4444C34.0694 31.7503 37.8216 25.6873 37.8216 18.7464C37.8216 8.46575 29.4962 0.13208 19.2256 0.13208ZM6.52194 12.309V25.3739H9.30977V16.3364L14.5686 25.3739H32.1192V12.309H29.3948V21.3467L23.7558 12.309H6.52194ZM41.8133 12.309V25.3739H63.4506V22.6786H55.0554V19.983H63.4506V17.478H55.0554V15.0362H63.4506V12.309H41.8133ZM70.0083 12.309V25.3739H83.2822V19.983H91.6773V17.478H83.2822V15.0362H91.6773V12.309H70.0083ZM96.2075 12.309V25.3739H109.545V19.983H117.845V17.5096H109.545V15.0362H117.845V12.309H96.2075Z" fill="#707070"/>
</svg>
