<svg width="149" height="26" viewBox="0 0 149 26" fill="none" xmlns="http://www.w3.org/2000/svg">
<path d="M135.564 4.09961H135.491H135.418C133.337 4.09961 126.509 4.73034 126.473 12.9298C126.473 21.4797 133.957 21.9002 135.454 21.9002H135.527C136.477 21.9002 139.726 21.7249 142.063 19.5174C143.706 17.9756 144.509 15.733 144.509 12.9298C144.472 4.73034 137.645 4.09961 135.564 4.09961ZM138.229 18.4311C137.718 18.8516 136.878 19.3422 135.6 19.3422H135.345C134.067 19.3422 133.227 18.8516 132.716 18.4311C131.438 17.3449 130.781 15.3826 130.781 12.6144C130.817 7.18317 133.629 6.37724 135.308 6.37724H135.564C137.243 6.37724 140.055 7.18317 140.091 12.6144C140.164 15.3826 139.507 17.3449 138.229 18.4311Z" fill="#707070"/>
<path d="M27.6758 24.5634C26.0328 23.9677 23.6231 22.2507 22.1992 20.6388C20.4467 18.7116 16.2114 13.3154 16.1749 13.2803C15.5908 12.5445 14.9336 11.7035 14.2399 10.8275C12.3778 8.37468 10.2602 5.64153 8.14258 3.99463V21.8652H10.6983V12.6146L10.7348 12.6847C11.4285 13.5256 12.1588 14.4367 12.889 15.3477C14.0938 16.8194 15.2987 18.3612 16.321 19.4825C17.0147 20.2534 18.8402 22.1105 19.3514 22.531C21.688 24.6685 25.4851 26.0351 29.2457 26.0351C30.8887 26.0351 32.4587 25.7898 33.9191 25.3343V25.2291C33.3349 25.3343 32.6777 25.4043 32.0205 25.4043C30.5966 25.3343 29.0997 25.089 27.6758 24.5634Z" fill="#707070"/>
<path d="M11.5739 5.39623C13.3264 7.28841 17.7077 12.6846 17.7807 12.7547C18.3649 13.4906 19.0221 14.3315 19.7158 15.2075C21.5778 17.6604 23.6954 20.3935 25.7765 22.0404V4.09973H23.2573V13.3854L23.1843 13.3154C22.4906 12.4744 21.7604 11.5633 21.0301 10.6523C19.8253 9.18059 18.6204 7.63881 17.5981 6.51752C16.9044 5.74663 14.9329 3.88949 14.4217 3.469C12.085 1.33154 8.28792 0 4.52732 0C2.88434 0 1.46043 0.245283 0 0.735849V0.84097C0.584171 0.700809 1.24136 0.665768 1.93507 0.665768C3.35898 0.665768 4.74639 0.946092 6.13379 1.4717C7.77677 2.03235 10.1865 3.74933 11.5739 5.39623Z" fill="#707070"/>
<path d="M110.298 13.2103C108.217 11.4933 105.917 11.0729 104.165 9.91652C102.96 8.97043 102.996 7.70897 103.654 7.07825C105.15 5.50143 108.144 6.13215 108.911 6.30736C109.824 6.5176 110.298 6.76288 111.138 7.14833V5.15102C107.487 4.09981 101.645 3.11868 99.3818 6.6928C98.542 8.1645 98.323 10.8276 100.769 12.4044C103.215 14.2615 107.451 15.1375 107.925 16.6793C108.254 17.5203 107.889 18.3262 107.305 18.8869C105.15 20.8491 101.426 19.6578 99.1992 18.6766V20.8141C101.645 21.8653 104.712 22.1456 107.451 21.585C109.313 21.1295 111.43 19.5526 111.722 17.5553C112.051 15.558 111.649 14.2966 110.298 13.2103Z" fill="#707070"/>
<path d="M123.808 13.2103C121.727 11.4933 119.427 11.0729 117.674 9.91652C116.47 8.97043 116.506 7.70897 117.163 7.07825C118.66 5.50143 121.654 6.13215 122.421 6.30736C123.334 6.5176 123.808 6.76288 124.648 7.14833V5.15102C120.997 4.09981 115.155 3.11868 112.892 6.6928C112.052 8.1645 111.833 10.8276 114.279 12.4044C116.725 14.2615 120.96 15.1375 121.435 16.6793C121.764 17.5203 121.399 18.3262 120.814 18.8869C118.624 20.8491 114.936 19.6578 112.709 18.6766V20.8141C115.155 21.8653 118.222 22.1456 120.96 21.585C122.822 21.1295 124.94 19.5526 125.269 17.5553C125.524 15.558 125.123 14.2966 123.808 13.2103Z" fill="#707070"/>
<path d="M86.0918 21.4097H97.8117V19.3774H90.1445V13.7709H96.2783V11.8087H90.1445V6.62268H97.8117V4.59033H86.0918V21.4097Z" fill="#707070"/>
<path d="M52.4293 13.2103C50.3482 11.4933 48.0481 11.0729 46.2955 9.91652C45.0907 8.97043 45.1272 7.70897 45.7844 7.07825C47.2813 5.50143 50.2752 6.13215 51.0419 6.30736C51.9547 6.5176 52.4293 6.76288 53.2691 7.14833V5.15102C49.618 4.09981 43.7763 3.11868 41.5126 6.6928C40.6729 8.1645 40.4538 10.8276 42.9 12.4044C45.3463 14.2615 49.5815 15.1375 50.0561 16.6793C50.3847 17.5203 50.0196 18.3262 49.4355 18.8869C47.2813 20.8491 43.5572 19.6578 41.3301 18.6766V20.8141C43.7763 21.8653 46.8432 22.1456 49.5815 21.585C51.4435 21.1295 53.5612 19.5526 53.8898 17.5553C54.1453 15.558 53.7437 14.2966 52.4293 13.2103Z" fill="#707070"/>
<path d="M28.2598 21.4097H40.0162V19.3774H32.3124V13.7709H38.4462V11.8087H32.3124V6.62268H40.0162V4.59033H28.2598V21.4097Z" fill="#707070"/>
<path d="M63.3834 4.41504H55.6797V21.6199H59.7689C59.7689 21.6199 59.7689 21.2344 59.7689 20.5687L59.6959 15.3126C59.6959 15.3126 65.8296 15.6981 67.6917 13.3153C69.0426 11.8086 69.1521 9.46086 68.568 7.56868C67.8012 5.43121 65.6471 4.45008 63.3834 4.41504ZM64.2597 12.159C63.1644 13.3153 61.3023 13.1401 59.6959 13.035V6.62259C59.6959 6.62259 62.9818 5.92178 64.3692 7.6738C65.1359 8.61989 65.1725 10.9676 64.2597 12.159Z" fill="#707070"/>
<path d="M82.149 13.2802C83.4634 11.8085 83.5729 9.49588 83.0253 7.63873C82.295 5.57135 80.1774 4.59022 77.9503 4.55518H70.3926V21.4096H74.4088L74.3722 15.2075C74.3722 15.2075 75.1025 15.2775 76.3073 15.2075L80.1774 21.4447H84.5952L80.1409 14.5067C80.8711 14.2263 81.7109 13.8409 82.149 13.2802ZM78.8996 12.1589C77.8042 13.2802 75.9787 13.1401 74.4453 13.035V6.72768C74.4453 6.72768 77.6582 6.02687 79.0091 7.74386C79.7758 8.68995 79.8123 11.0026 78.8996 12.1589Z" fill="#707070"/>
<path d="M146.773 17.6604C145.495 17.6604 144.473 18.6065 144.473 19.7979C144.473 20.9892 145.495 21.9353 146.773 21.9353C147.978 21.9353 149 21.0243 149 19.7979C149 18.6065 147.978 17.6604 146.773 17.6604ZM146.773 21.69C145.641 21.69 144.692 20.8841 144.692 19.7979C144.692 18.7467 145.604 17.9057 146.773 17.9057C147.868 17.9057 148.781 18.7817 148.781 19.7979C148.781 20.8841 147.868 21.69 146.773 21.69Z" fill="#707070"/>
<path d="M147.394 19.7978C147.467 19.7278 147.795 19.6226 147.795 19.2021C147.795 18.7817 147.503 18.5364 146.992 18.5364H145.787V20.9191H146.189V19.973H146.882C147.284 19.973 147.394 20.1482 147.394 20.5687C147.394 20.7439 147.394 20.849 147.467 20.9542H147.941C147.832 20.849 147.832 20.5687 147.832 20.2884C147.795 19.903 147.576 19.7978 147.394 19.7978ZM146.955 19.6226H146.225V18.8517H146.955C147.175 18.8517 147.43 18.8868 147.43 19.2372C147.394 19.4825 147.248 19.6226 146.955 19.6226Z" fill="#707070"/>
</svg>
