<svg width="180" height="57" viewBox="0 0 180 57" fill="none" xmlns="http://www.w3.org/2000/svg">
<path d="M57 47V17H51V47H57Z" fill="#707070"/>
<path d="M69.7309 47H76.3133L84 17H78.3454L73.0884 38.4161L67.6988 17H62L69.7309 47Z" fill="#707070"/>
<path d="M119.369 47V27.6423L128.407 47H134V17H128.676V34.781L120.443 17H114V47H119.369Z" fill="#707070"/>
<path d="M25.3277 47V25.3379L37.5424 47H43V11L37.6723 13.6634V37.3231L25.9341 16.5931H20V47H25.3277Z" fill="#707070"/>
<path fill-rule="evenodd" clip-rule="evenodd" d="M94.4583 25.3485C94.4583 21.9972 95.8333 21.0711 98 21.0711C100.167 21.0711 101.542 21.9972 101.542 25.3485V37.6515C101.542 41.0028 100.167 41.9289 98 41.9289C95.8333 41.9289 94.4583 41.0028 94.4583 37.6515V25.3485ZM89 36.9019C89 44.3542 92.7083 47 98 47C103.292 47 107 44.3101 107 36.9019V26.0982C107 18.6458 103.292 16 98 16C92.7083 16 89 18.6899 89 26.0982V36.9019Z" fill="#707070"/>
<path fill-rule="evenodd" clip-rule="evenodd" d="M149.022 23.4474L151.865 35.5965H146.179L149.022 23.4474ZM143.555 47L145.173 40.6842H153.089L154.533 47H160L152.783 17H145.435L138 47H143.555Z" fill="#707070"/>
</svg>
