<svg width="158" height="24" viewBox="0 0 158 24" fill="none" xmlns="http://www.w3.org/2000/svg">
<path fill-rule="evenodd" clip-rule="evenodd" d="M37.8296 6.67968H43.6741L43.9312 8.60626C44.3807 7.06535 47.3358 5.97305 49.1338 5.97305C53.3089 5.97305 54.9783 8.54243 54.9783 13.0384V22.7361H48.4919V14.0651C48.4919 12.3318 48.171 11.0471 46.4368 11.0471C44.8312 11.0471 43.996 12.7813 43.996 14.0021V22.7361H37.8305V6.67968H37.8296ZM0 22.8008V0.0647278H10.8538C17.3411 0.0647278 20.2952 3.21128 20.2952 7.77198C20.2952 12.6545 17.5982 15.9944 10.8538 15.9944H7.19301V22.8017H0V22.8008ZM10.0842 10.469C11.8184 10.469 13.6803 10.0833 13.6803 8.09293C13.6803 6.03778 11.6899 5.58827 10.0842 5.58827H7.19391V10.469H10.0842ZM109.251 6.67968H115.159L115.353 8.60626C115.867 7.06535 118.82 5.97305 120.62 5.97305C124.73 5.97305 126.463 8.54243 126.463 13.0384V22.8008H119.977V14.0651C119.977 12.3318 119.59 11.0471 117.858 11.0471C116.316 11.0471 115.48 12.7813 115.48 14.0021V22.8008H109.25V6.67968H109.251ZM79.4504 17.021C79.4504 17.6638 79.7713 18.6258 80.1561 18.9476C80.6056 19.2686 81.1837 19.5904 81.8912 19.5904C83.0465 19.5904 83.9455 19.2695 83.9455 18.1772C84.0102 15.4801 74.1831 17.8562 74.1831 11.4337C74.1831 6.93859 77.6524 5.91012 81.2484 5.91012C84.8445 5.91012 89.7909 6.61674 89.5976 11.4975H84.1388C84.1388 11.048 83.9455 10.727 83.6893 10.3414C83.3027 9.89186 82.8532 9.69946 82.0198 9.63473C80.9275 9.5709 79.9008 9.76329 79.9008 10.5985C79.9637 13.104 90.048 11.4337 90.048 17.3429C90.048 21.4532 87.1576 23.3168 81.5703 23.3168C78.0371 23.2521 73.6059 21.4541 73.6059 17.0219H79.4504V17.021ZM145.924 12.9098C145.924 12.5233 145.924 12.0108 145.412 11.368C145.154 11.0471 144.576 10.3405 143.677 10.3405C141.236 10.3405 140.593 12.7166 140.593 14.6449C140.593 16.8925 141.623 18.7552 143.548 18.7552C145.218 18.7552 146.054 17.2134 146.054 15.9278H151.706C151.835 19.2677 149.521 23.2503 143.292 23.2503C138.217 23.2503 134.621 19.7172 134.621 14.5793C134.621 8.34914 139.245 5.97215 143.226 5.97215C148.622 5.97215 151.706 9.24816 151.64 12.9089H145.924V12.9098ZM30.9576 22.8008L30.3157 21.4523C29.0957 22.4799 27.811 23.057 25.7559 23.057C23.7645 22.9941 19.8466 22.7361 19.8466 18.4334C19.8466 11.368 30.3804 14.5793 30.3804 11.1109C30.3804 9.95478 29.0957 10.0186 28.3891 10.0186C27.1044 10.0186 26.2701 10.2757 26.0768 12.2014H20.6818C20.6818 8.86248 21.7103 6.03688 28.7748 6.03688C35.6477 6.03688 36.3534 9.63294 36.3534 13.1661V20.4885C36.3534 21.4523 36.4182 21.9018 37.0601 22.6075V22.7361L30.9576 22.8008ZM30.4442 15.4145C28.2605 16.4439 25.4987 16.3782 25.4349 17.9848C25.4349 19.0124 26.013 19.5248 27.2977 19.5248C29.4167 19.5248 30.5728 17.342 30.4442 15.4145ZM67.1824 22.8008L66.5406 21.4523C65.3206 22.4799 63.9712 23.057 61.9799 23.057C59.9247 22.9941 56.0068 22.7361 56.0068 18.4334C56.0068 11.368 66.5406 14.5793 66.6044 11.1109C66.6044 9.95478 65.2559 10.0186 64.614 10.0186C63.2654 10.0186 62.4941 10.2757 62.3017 12.2014H56.9067C56.9067 8.86248 57.8696 6.03688 64.9987 6.03688C71.807 6.03688 72.5136 9.63294 72.5136 13.1661V20.4885C72.5136 21.4523 72.5774 21.9018 73.2202 22.6075V22.7361L67.1824 22.8008ZM66.6682 15.4145C64.4845 16.4439 61.658 16.3782 61.658 17.9848C61.658 19.0124 62.1713 19.5248 63.5208 19.5248C65.5768 19.5248 66.7968 17.342 66.6682 15.4145ZM133.593 22.8008V6.67968H127.621V22.8008H133.593ZM127.621 4.62453H133.594V0H127.621V4.62453ZM99.6162 6.10161C104.947 6.10161 108.223 9.82713 108.223 14.7079C108.223 19.6543 104.946 23.315 99.6162 23.315C94.2859 23.315 90.9452 19.6543 90.9452 14.7079C90.9461 9.82713 94.2859 6.10161 99.6162 6.10161ZM96.7915 14.7079C96.7915 16.6992 97.4343 19.14 99.6171 19.2047C101.802 19.2047 102.379 16.6992 102.379 14.7079C102.379 12.7813 101.801 10.2766 99.6171 10.2766C97.4343 10.2766 96.8562 12.7822 96.7915 14.7079ZM155.496 19.6543C155.881 19.6543 156.458 19.7172 156.458 19.2047C156.458 18.7552 156.073 18.6905 155.752 18.6905H154.982V19.6543H155.496ZM156.779 21.1961H156.394L155.624 19.9105H154.981V21.1961H154.66V18.4343H155.817C156.333 18.4343 156.792 18.5889 156.792 19.2047C156.792 19.7172 156.458 19.9105 155.946 19.9105L156.779 21.1961ZM157.712 19.879C157.712 18.659 156.749 17.6944 155.593 17.6944C155.306 17.692 155.021 17.7469 154.755 17.8558C154.488 17.9648 154.247 18.1256 154.043 18.3289C153.84 18.5323 153.679 18.774 153.57 19.0402C153.461 19.3063 153.406 19.5915 153.409 19.879C153.409 21.0342 154.372 21.998 155.593 21.998C156.154 21.9931 156.69 21.7682 157.086 21.3719C157.483 20.9756 157.707 20.4395 157.712 19.879ZM153.118 19.8457C153.118 19.1984 153.376 18.5776 153.833 18.1198C154.291 17.6621 154.912 17.4049 155.559 17.4049C156.207 17.4049 156.827 17.6621 157.285 18.1198C157.743 18.5776 158 19.1984 158 19.8457C158 21.1961 156.908 22.2866 155.559 22.2866C154.211 22.2866 153.118 21.1961 153.118 19.8457Z" fill="#707070"/>
</svg>
