<svg width="159" height="30" viewBox="0 0 159 30" fill="none" xmlns="http://www.w3.org/2000/svg">
<path d="M16.6467 11.0489C16.6467 14.6652 14.8975 17.1145 10.4677 17.1145H9.06794V5.59733C9.56555 5.56921 10.0303 5.56921 10.4677 5.56921C14.6621 5.56881 16.6467 7.55105 16.6467 11.0489ZM12.0996 22.1291C20.0258 22.1291 25.0372 18.0462 25.0372 10.9336C25.0368 3.11834 19.6755 0.320068 10.934 0.320068C7.5533 0.320068 3.47373 0.552598 0.560547 0.902382V28.7781H9.06833V22.1291H12.0996ZM126.091 11.0489C126.091 14.6652 124.344 17.1145 119.913 17.1145H118.518V5.59733C119.011 5.56921 119.477 5.56921 119.913 5.56921C124.108 5.56881 126.091 7.55105 126.091 11.0489ZM121.549 22.1291C129.469 22.1291 134.483 18.0462 134.483 10.9336C134.483 3.11834 129.122 0.320068 120.38 0.320068C117 0.320068 112.918 0.552598 110.005 0.902382V28.7781H118.517V22.1291H121.549ZM145.554 8.01651C145.554 6.50091 147.071 5.80015 149.516 5.80015C152.198 5.80015 155.114 6.38365 157.094 7.20325L156.395 1.1365C154.179 0.669852 152.198 0.320068 148.586 0.320068C141.708 0.320068 137.048 3.03278 137.048 8.71845C137.048 18.5128 150.337 16.5317 150.337 21.0801C150.337 22.8279 149.053 23.7604 145.904 23.7604C143.111 23.7604 138.796 22.8279 136.232 21.5456L137.167 27.9621C139.729 28.895 143.225 29.3601 146.024 29.3601C153.131 29.3601 158.961 27.0269 158.961 20.028C158.961 10.7011 145.554 12.4488 145.554 8.01651V8.01651ZM103.597 0.902382H95.0887V28.7781H103.597V0.902382ZM69.0951 0.902382H60.5865V28.7781H69.0951V0.902382ZM83.8976 23.178V0.902382H75.389V28.7781H90.7758L92.0567 23.178H83.8976V23.178ZM54.293 0.902382H45.7845V11.9822H36.926V0.902382H28.4159V28.7781H36.9257V17.8136H45.7841V28.7781H54.2926L54.293 0.902382V0.902382Z" fill="#707070"/>
</svg>
