<svg width="155" height="20" viewBox="0 0 155 20" fill="none" xmlns="http://www.w3.org/2000/svg">
<path fill-rule="evenodd" clip-rule="evenodd" d="M32.6197 0.656167L36.5832 0.573319L41.0429 0.601485C47.4297 0.601485 49.5498 2.11596 49.5498 8.72232V9.603C49.5498 16.5673 49.1364 18.9351 40.8781 19.2101L36.666 19.293C36.0877 19.3203 35.4821 19.3203 34.9047 19.3203C33.6379 19.3203 32.372 19.2656 31.106 19.1845C27.0589 18.8804 24.6364 17.5051 24.4434 13.0727C24.3887 11.9435 24.3887 10.8151 24.3887 9.68584C24.3878 2.47303 25.2412 0.766355 32.6197 0.656167C25.2412 0.766355 32.6197 0.656167 32.6197 0.656167ZM57.1719 14.53H68.644V19.1273H51.5838V0.766352H57.1719V14.53ZM127.15 19.1273H121.562V0.766352H127.15V19.1273ZM132.999 0.785409C129.877 0.785409 128.351 3.31644 128.351 6.43818C128.351 9.55992 129.878 12.163 132.999 12.163L144.543 12.1407C145.215 12.1407 145.759 12.6858 145.759 13.3577C145.759 14.0296 145.215 14.5747 144.543 14.5747H128.877V19.1281L147.052 19.1364C150.245 19.1364 151.685 16.549 151.685 13.3577C151.685 10.1647 150.245 7.57817 147.052 7.57817L135.581 7.579C134.951 7.579 134.44 7.06866 134.44 6.43818C134.44 5.80853 134.951 5.3686 135.581 5.3686H150.889V0.77381L132.999 0.785409ZM153.265 0.229496C154.11 0.229496 154.725 0.889796 154.725 1.73402C154.725 2.58737 154.11 3.2485 153.265 3.2485C152.416 3.2485 151.798 2.58737 151.798 1.73402C151.798 0.889796 152.416 0.229496 153.265 0.229496V4.9615e-06C152.804 -0.00109556 152.361 0.180926 152.034 0.506072C151.707 0.831217 151.522 1.27288 151.521 1.73402C151.521 2.69755 152.3 3.47716 153.265 3.47716C153.493 3.47684 153.719 3.43147 153.93 3.34365C154.141 3.25583 154.333 3.12729 154.494 2.96538C154.655 2.80347 154.783 2.61138 154.869 2.40008C154.956 2.18879 155 1.96245 155 1.73402C154.999 1.27412 154.816 0.833203 154.491 0.508082C154.166 0.18296 153.725 0.000224275 153.265 4.9615e-06V0.229496Z" fill="#707070"/>
<path fill-rule="evenodd" clip-rule="evenodd" d="M152.858 0.936294H153.411C153.65 0.936294 153.898 0.972751 153.898 1.27598C153.898 1.67034 153.495 1.62394 153.22 1.62394H152.858V1.81283H153.292L153.848 2.7076H154.133L153.545 1.81283C153.89 1.80372 154.155 1.66122 154.155 1.28012C154.155 0.958664 153.98 0.766453 153.467 0.766453H152.618V2.7076H152.858V0.936294ZM101.755 5.22537H111.059C111.583 5.22537 112.161 5.25271 112.656 5.39024C113.702 5.69347 113.731 6.43662 113.758 7.40015C113.758 9.4374 113.536 9.96017 110.921 9.96017H101.755V14.4199H111.087C113.427 14.4199 113.511 15.3569 113.511 17.3669V19.1274H119.181V15.6047C119.181 13.072 117.777 12.3827 115.436 12.0803C116.593 11.695 117.915 11.4473 118.63 10.3454C119.318 9.24436 119.401 7.84091 119.401 6.57498C119.401 2.14257 117.584 0.766453 113.262 0.766453H96.1675V19.1274H101.755V5.22537ZM88.5852 14.5401V19.1274H94.1775V6.50952C94.1775 2.13677 90.2338 0.773912 88.0839 0.773912H76.4685C74.3178 0.773912 70.375 2.13677 70.375 6.50952V19.1274H75.9673V8.01572C75.9673 6.2237 77.9035 5.3629 78.978 5.3629H85.5736C86.6498 5.3629 88.5852 6.2237 88.5852 8.01572V9.95106H75.9673V14.5401H88.5852ZM5.58897 5.22537H13.6278C15.665 5.22537 16.6004 5.55594 16.6004 7.72989C16.6004 9.7398 15.6369 10.0969 13.7098 10.0969H5.58897V14.5566H15.7471C21.3907 14.5566 22.2441 12.2717 22.2441 7.53768C22.2441 1.94871 20.1521 0.765625 14.8664 0.765625H0V19.1266H5.58897V5.22537Z" fill="#707070"/>
<path fill-rule="evenodd" clip-rule="evenodd" d="M47.362 9.95096L39.619 11.0263L40.6944 13.1771L38.1849 11.9584L36.967 16.9765L35.7475 11.9584L33.238 13.1771L34.3134 11.0263L26.5703 9.95096L34.3134 8.87558L33.238 6.724L35.7475 7.94271L36.967 2.92456L38.1849 7.94271L40.6944 6.724L39.619 8.87558L47.362 9.95096Z" fill="white"/>
</svg>
