<svg width="147" height="17" viewBox="0 0 147 17" fill="none" xmlns="http://www.w3.org/2000/svg">
<path d="M0.456241 0.436142L0.0957031 0.782259V8.29586V15.8095L0.456241 16.1556C0.787935 16.5017 0.860042 16.5161 3.02327 16.5161C5.21533 16.5161 5.24418 16.5161 5.59029 16.1412C5.92199 15.795 5.93641 15.6652 5.97967 13.6895L6.02294 11.6128H7.14781H8.25827L10.234 14.0645L12.2242 16.5161H15.2815C17.4736 16.5161 18.3966 16.4728 18.5264 16.3431C18.9446 15.9248 18.6994 15.4345 17.2573 13.6462C16.4641 12.6656 15.8584 11.8147 15.9017 11.7426C15.9449 11.6705 16.392 11.6128 16.8823 11.6128C17.5746 11.6128 17.8918 11.5407 18.137 11.3388L18.4831 11.0648L18.5264 6.01726L18.5696 0.969738L18.1803 0.522672L17.8053 0.0756054H9.31104H0.802356L0.456241 0.436142ZM12.6136 5.75768C12.6424 7.84879 12.5991 8.82945 12.4838 8.95925C12.354 9.11788 11.705 9.16115 9.39757 9.16115C7.78236 9.16115 6.36905 9.11788 6.23926 9.07462C6.03736 9.00251 6.00852 8.58429 6.00852 5.93073C6.00852 4.24342 6.05178 2.81569 6.10947 2.758C6.16715 2.71474 7.63815 2.6859 9.38315 2.70032L12.5703 2.74358L12.6136 5.75768Z" fill="#707070"/>
<path d="M21.8 0.436386L21.4395 0.782503V8.2961V15.8097L21.8 16.1558L22.1461 16.5164H30.3087H38.4712L38.8174 16.1558C39.3221 15.6655 39.3077 14.8146 38.8029 14.3387L38.428 13.9926L32.8901 13.9493L27.3523 13.9061V12.8533C27.3523 12.0168 27.3955 11.7717 27.583 11.6996C27.7128 11.6563 30.2366 11.613 33.193 11.613H38.5866L38.875 11.2381C39.1635 10.8631 39.1779 10.6901 39.1779 5.81561V0.782503L38.8174 0.436386L38.4712 0.0758495H30.3087H22.1461L21.8 0.436386ZM33.2362 5.83003C33.2651 8.20957 33.2218 8.94507 33.092 9.04602C32.8757 9.17581 27.9291 9.20466 27.583 9.07486C27.3811 9.00276 27.3523 8.57011 27.3523 5.83003V2.67172L30.2798 2.70056L33.193 2.74383L33.2362 5.83003Z" fill="#707070"/>
<path d="M42.207 8.2961V16.5164H49.2015C55.7921 16.5164 56.2391 16.5019 56.7439 16.2423C57.3929 15.9107 59.0225 14.2522 59.2244 13.7042C59.3109 13.4734 59.3686 11.339 59.3686 8.28168C59.3686 2.48424 59.4263 2.77267 57.9697 1.34494C56.6141 0.0181656 57.0468 0.0758514 49.1293 0.0758514H42.207V8.2961ZM53.5135 2.90246C53.6433 3.24858 53.6144 13.5311 53.4846 13.7474C53.3837 13.8772 52.7491 13.9205 50.7734 13.8916L48.192 13.8484L48.1487 8.58453C48.1343 5.68581 48.1487 3.17647 48.192 2.98899C48.2641 2.67172 48.2929 2.67172 50.8455 2.67172C53.0664 2.67172 53.4414 2.70056 53.5135 2.90246Z" fill="#707070"/>
<path d="M62.8726 0.422058L62.4688 0.768175V8.26735V15.7665L62.8149 16.1415C63.161 16.5165 63.1898 16.5165 65.3819 16.5165C67.5451 16.5165 67.6172 16.502 67.9489 16.1559L68.3095 15.8098V10.6181C68.3095 7.7626 68.3671 5.39748 68.4392 5.35421C68.4969 5.31095 69.3911 6.29161 70.415 7.54628L72.2754 9.81045L72.3475 12.7957C72.4196 15.6944 72.434 15.781 72.7657 16.1415C73.2416 16.6462 74.0925 16.6607 74.5828 16.1559C74.9433 15.8098 74.9433 15.7954 74.9433 12.9111V10.0124L76.9335 7.5607L78.9093 5.10905L78.9814 10.445L79.0535 15.7665L79.3996 16.1415C79.7457 16.5165 79.7745 16.5165 81.9666 16.5165C84.1298 16.5165 84.2019 16.502 84.5336 16.1559L84.8942 15.8098V8.32504V0.840282L84.5192 0.450901C84.1443 0.075943 84.1154 0.075943 81.9955 0.075943C79.9909 0.075943 79.8467 0.0903645 79.4861 0.393215C79.2842 0.580695 77.943 2.18148 76.4864 3.95533C75.0443 5.74359 73.7896 7.21458 73.7031 7.24343C73.631 7.27227 72.3619 5.8157 70.8909 4.01301C69.4343 2.1959 68.0931 0.580695 67.9201 0.393215C67.6172 0.0903645 67.4874 0.075943 65.4396 0.075943C63.3629 0.075943 63.2619 0.0903645 62.8726 0.422058Z" fill="#707070"/>
<path d="M88.2968 0.522916L87.9219 0.969982V8.2961V15.6222L88.2968 16.0693L88.6718 16.5164H96.5171H104.377L104.723 16.1558L105.083 15.8097V8.32495V0.840189L104.708 0.450808L104.319 0.0758495H96.5027H88.6718L88.2968 0.522916ZM99.0985 8.2961V13.8484H96.5027H93.9068L93.8635 8.44032C93.8491 5.46949 93.8635 2.94573 93.9068 2.84478C93.9501 2.70056 94.5558 2.67172 96.5315 2.70056L99.0985 2.74383V8.2961Z" fill="#707070"/>
<path d="M108.488 0.522916L108.113 0.969982V8.2961V15.6222L108.488 16.0693L108.863 16.5164H111.041C112.541 16.5019 113.305 16.4442 113.464 16.3289C113.997 15.9251 114.026 15.6366 114.026 10.3872C114.026 7.17123 114.084 5.26759 114.17 5.29643C114.242 5.31085 115.598 6.92606 117.184 8.87296L120.069 12.4062L120.083 14.108C120.083 15.7232 120.098 15.8241 120.444 16.1558C120.775 16.5019 120.847 16.5164 123.011 16.5164C125.203 16.5164 125.232 16.5164 125.578 16.1414L125.924 15.7664V8.26726V0.768081L125.52 0.421965C125.131 0.090271 125.03 0.0758495 122.953 0.0758495C120.847 0.0758495 120.775 0.090271 120.444 0.436386L120.083 0.782503V4.31577C120.083 6.26267 120.025 7.87788 119.953 7.92114C119.881 7.96441 118.598 6.49342 117.112 4.64746C115.612 2.81593 114.141 1.02767 113.824 0.695973L113.262 0.0758495H111.07H108.863L108.488 0.522916Z" fill="#707070"/>
<path d="M129.023 8.2961V16.5164H135.931C140.431 16.5164 142.998 16.4587 143.257 16.3577C143.834 16.1414 145.594 14.382 145.911 13.7042C146.156 13.1706 146.185 12.7091 146.185 8.2961C146.185 3.91197 146.156 3.40722 145.911 2.88804C145.608 2.22465 143.82 0.436386 143.243 0.220064C142.998 0.133535 140.287 0.0758495 135.931 0.0758495H129.023V8.2961ZM140.2 8.2961V13.8484L137.575 13.8916L134.936 13.9205V8.39705C134.936 5.35412 134.98 2.81593 135.037 2.75825C135.095 2.71498 136.277 2.68614 137.662 2.70056L140.2 2.74383V8.2961Z" fill="#707070"/>
</svg>
