<svg width="155" height="20" viewBox="0 0 155 20" fill="none" xmlns="http://www.w3.org/2000/svg">
<path d="M152.531 0.959961C151.359 0.959959 150.381 1.86665 150.381 3.05357C150.381 4.24633 151.359 5.14717 152.531 5.14717C153.699 5.14717 154.68 4.24633 154.68 3.05357C154.68 1.86665 153.699 0.959961 152.531 0.959961ZM37.2476 1.11144C33.5806 1.13199 32.0738 2.57014 32.0531 6.08308V14.2141C32.0531 17.7599 33.726 19.4194 37.3128 19.44H54.7852C58.568 19.44 60.0394 18.0087 60.0394 14.3331V6.11553C60.0394 2.74694 58.3027 1.11144 54.7201 1.11144H37.2476ZM127.009 1.13849V19.4346H154.599V15.4637H132.464V1.13849H127.009ZM0.240234 1.1439V19.4346H5.71156V13.5649H17.8863L22.1527 19.4346H28.1016L23.9059 13.5378L23.7919 13.3701L23.9819 13.3106C24.0253 13.2961 28.1993 11.9025 28.1993 7.15963C28.1993 3.61987 25.61 1.1439 21.8975 1.1439H0.240234ZM63.3938 1.1439V5.15799H75.2538V5.30947L75.2484 19.44H80.698V5.15799H91.7437V1.1439H63.3938ZM95.5921 1.17094V19.4346H123.171V15.5124H101.036V12.0609H118.574L118.579 8.4634H100.863V5.08767H123.16V1.17094H95.5921ZM152.531 1.26832C153.515 1.26832 154.3 2.04604 154.3 3.05357C154.3 4.06715 153.515 4.84422 152.531 4.84422C151.543 4.84422 150.761 4.06715 150.761 3.05357C150.761 2.04604 151.543 1.26832 152.531 1.26832ZM151.706 1.83094V4.27619H152.086V3.22127H152.498L153.182 4.27619H153.595L152.873 3.19422C153.249 3.15506 153.535 2.96982 153.535 2.52881C153.535 2.06508 153.253 1.83094 152.656 1.83094H151.706ZM152.086 2.13931H152.59C152.851 2.13931 153.155 2.17869 153.155 2.51258C153.155 2.90188 152.825 2.91832 152.482 2.91832H152.086V2.13931ZM5.70613 4.82258H19.7698C21.246 4.82258 22.69 5.52067 22.69 7.18127C22.69 8.84404 21.246 9.54537 19.7698 9.54537H5.70613V4.82258ZM39.6902 5.07685H52.1961C54.3625 5.08918 54.5698 5.59468 54.5844 7.94947V12.9319C54.5844 15.1675 53.9419 15.5665 52.1309 15.5665H39.5599C37.5012 15.5542 37.4969 14.3162 37.4865 12.6019C37.4865 12.6019 37.4865 7.86702 37.4865 7.86291C37.5197 5.80458 37.7077 5.08702 39.6902 5.07685Z" fill="#707070"/>
</svg>
