<svg width="141" height="13" viewBox="0 0 141 13" fill="none" xmlns="http://www.w3.org/2000/svg">
<path fill-rule="evenodd" clip-rule="evenodd" d="M28.3462 2.03687H36.515C37.9479 2.03687 39.258 2.65142 40.1726 3.65325C41.1177 4.65593 41.6961 6.01356 41.6961 7.50141C41.6961 9.02161 41.1169 10.4124 40.1726 11.3828C39.258 12.3855 37.9479 12.9991 36.515 12.9991H28.3462C27.666 13 26.9925 12.8576 26.3646 12.5801C25.7367 12.3026 25.167 11.8956 24.6886 11.3828C23.7435 10.4124 23.165 9.02246 23.165 7.50141C23.165 6.01356 23.7443 4.65593 24.6886 3.65325C25.6329 2.65057 26.9133 2.03687 28.3462 2.03687ZM16.9161 8.76285H2.62105V11.5113C2.62105 12.2876 2.0418 12.9345 1.31012 12.9345C0.578445 12.9345 0 12.2876 0 11.5113V3.81497C0.00169736 2.80358 0.381197 1.83415 1.05535 1.11907C1.7295 0.403991 2.64334 0.00157517 3.59662 0H16.612C18.7758 0 20.605 1.77811 20.605 3.91285V4.59209C20.605 5.49689 20.2391 6.46723 19.6599 7.2435C20.1477 7.85805 20.4221 8.63433 20.4221 9.50678V11.5768C20.4221 12.3531 19.8428 13 19.1119 13C18.3802 13 17.801 12.3531 17.801 11.5768V9.50678C17.801 9.0863 17.4656 8.7637 17.0388 8.7637H17.0083L16.9161 8.76285ZM2.62105 5.94887H17.16C17.4344 5.81949 17.9831 5.1726 17.9831 4.59124V3.912C17.9831 3.45918 17.4344 2.77994 16.612 2.77994H3.59662C2.9564 2.77994 2.62105 3.39449 2.62105 3.81412V5.94887ZM108.386 1.8096C107.655 1.8096 107.075 2.45649 107.075 3.20042C107.075 3.97669 107.655 4.62359 108.386 4.62359H114.147V11.576C114.147 12.3523 114.727 12.9991 115.459 12.9991C116.189 12.9991 116.769 12.3523 116.769 11.576V4.62359H122.56C123.292 4.62359 123.87 3.97669 123.87 3.20042C123.87 2.45649 123.292 1.8096 122.56 1.8096H108.386ZM67.0249 1.8096C66.2932 1.8096 65.7148 2.4565 65.7148 3.23277L65.7453 7.53376C65.7453 8.95692 64.5868 10.1852 63.2157 10.1852H58.6435C58.0033 10.1852 57.6382 10.1852 57.6382 8.50324V3.20042C57.6382 2.45649 57.059 1.8096 56.3281 1.8096C55.5964 1.8096 55.0172 2.45649 55.0172 3.20042V8.50324C55.0172 10.1852 54.6514 10.1852 53.9806 10.1852H49.4084C48.0373 10.1852 46.8789 8.95692 46.8789 7.50141L46.9093 3.23277C46.9398 2.4565 46.3301 1.8096 45.5992 1.8096C44.8675 1.8096 44.2883 2.42415 44.2883 3.20042L44.2578 7.50141C44.2578 10.541 46.574 12.9991 49.4084 12.9991H53.9806C54.7749 12.9991 55.6365 12.8247 56.3249 12.245C57.0093 12.8247 57.8645 12.9991 58.6443 12.9991H63.2165C66.0518 12.9991 68.3671 10.541 68.3671 7.50141L68.3366 3.20042C68.3376 3.01742 68.3043 2.83604 68.2387 2.66678C68.1731 2.49752 68.0765 2.34376 67.9545 2.21439C67.8325 2.08503 67.6875 1.98264 67.528 1.91316C67.3684 1.84367 67.1974 1.80848 67.0249 1.8096ZM126.978 1.90664C126.246 1.90664 125.668 2.55353 125.668 3.29745C125.668 4.07372 126.246 4.71977 126.978 4.71977H136.61C137.31 4.71977 137.92 4.71977 138.196 5.72246H127.71C125.424 5.72246 124.083 7.59845 124.083 9.3757C124.083 11.1547 125.485 12.9983 127.802 12.9983H136.55C138.227 12.9983 141 12.2867 141 7.46821C141 6.10974 141 1.90664 136.611 1.90664H126.978ZM126.704 9.37655C126.704 9.37655 126.735 8.53644 127.71 8.53644H138.287C138.043 10.186 137.159 10.186 136.55 10.186H127.802C126.917 10.1852 126.704 9.60296 126.704 9.37655ZM94.7614 1.8096C91.9269 1.8096 89.6107 4.26779 89.6107 7.24265V11.576C89.6107 12.3523 90.1892 12.9991 90.9208 12.9991C91.6525 12.9991 92.2326 12.3523 92.2326 11.576V7.24265C92.2326 5.81949 93.3903 4.62359 94.7614 4.62359H101.253C102.656 4.62359 103.813 5.78714 103.813 7.24265L103.784 11.576C103.784 12.3523 104.362 12.9991 105.094 12.9991C105.826 12.9991 106.404 12.3846 106.404 11.6083L106.435 7.275C106.435 4.2678 104.119 1.8096 101.253 1.8096H94.7614ZM75.7417 1.90664C72.8776 1.90664 70.5911 4.36483 70.5911 7.33968C70.5911 10.4116 72.9385 12.9983 75.7417 12.9983H84.5812C85.3129 12.9983 85.8913 12.3514 85.8913 11.5751C85.8913 10.8312 85.3129 10.1843 84.5812 10.1843H75.7417C74.949 10.1843 74.2487 9.76383 73.7609 9.11694H83.8487C86.1352 9.11694 87.4759 7.27414 87.4759 5.49519C87.4759 3.74943 86.1048 1.90579 83.787 1.90579H75.7417V1.90664ZM75.7417 4.72062H83.7878C84.6719 4.72062 84.8548 5.30282 84.8548 5.49689C84.8548 5.52923 84.8251 6.30551 83.8487 6.30551H73.3942C73.6061 5.83437 73.9385 5.43593 74.3536 5.15568C74.7687 4.87543 75.2497 4.72468 75.7417 4.72062ZM36.515 4.84915H28.3462C27.645 4.84915 27.0048 5.14025 26.5475 5.62542C26.091 6.10974 25.8158 6.75663 25.8158 7.50056C25.8158 8.24449 26.0902 8.92372 26.5475 9.40804C27.0048 9.89321 27.645 10.2167 28.3462 10.2167H36.515C37.2162 10.2167 37.8556 9.89321 38.3137 9.40804C38.771 8.92372 39.0759 8.24449 39.0759 7.50056C39.0759 6.75663 38.771 6.10974 38.3137 5.62542C38.0767 5.37697 37.7958 5.18053 37.4872 5.04733C37.1785 4.91413 36.8482 4.84679 36.515 4.84915Z" fill="#707070"/>
</svg>
