<svg width="140" height="28" viewBox="0 0 140 28" fill="none" xmlns="http://www.w3.org/2000/svg">
<path fill-rule="evenodd" clip-rule="evenodd" d="M130.868 17.0306C130.868 19.6567 129.231 20.9513 127.558 20.9513C125.921 20.9513 124.284 19.6567 124.284 17.0306C124.284 14.4811 125.883 13.073 127.558 13.073C129.27 13.073 130.868 14.4811 130.868 17.0306ZM139.01 16.9554C139.01 12.0836 135.014 6.41406 127.595 6.41406C120.061 6.41406 116.141 12.2369 116.141 16.9922C116.141 21.8242 120.098 27.6102 127.558 27.6102C135.014 27.6102 139.01 21.864 139.01 16.9554Z" fill="#707070"/>
<path d="M115.427 14.2883L115.422 7.85207C113.8 6.95852 111.818 6.41442 109.524 6.41442C101.989 6.41442 98.0701 12.2343 98.0701 16.9926C98.0701 21.8246 102.028 27.6091 109.487 27.6091C111.807 27.6091 113.79 27.0517 115.422 26.1405V19.6998C115.422 19.6998 112.519 20.8543 110.835 20.8543C107.741 20.8543 106.215 18.9257 106.215 16.9557C106.215 15.0285 107.739 13.0999 110.831 13.0999C112.551 13.0999 115.427 14.2869 115.427 14.2869V14.2883ZM6.66791 25.1054L6.95691 25.3015C9.19617 26.8173 11.8392 27.6254 14.5433 27.6209C16.3229 27.6211 18.085 27.2707 19.7292 26.5898C21.3733 25.9089 22.8672 24.9107 24.1256 23.6524C25.3839 22.394 26.3821 20.9001 27.063 19.256C27.7439 17.6118 28.0943 15.8497 28.0941 14.0701C28.0961 12.1555 27.6914 10.2624 26.9067 8.51602C26.122 6.76966 24.9752 5.20995 23.5423 3.94019L6.15625 13.1721V17.7343L23.2547 8.67043C24.4238 10.5551 24.9499 12.7682 24.7541 14.9774C24.5582 17.1865 23.6509 19.2725 22.1685 20.9222C20.6861 22.5718 18.7085 23.6959 16.5328 24.1259C14.357 24.5558 12.1005 24.2683 10.1021 23.3065L6.66791 25.1054Z" fill="#707070"/>
<path d="M18.9547 4.8217C16.9571 3.8661 14.7036 3.5834 12.5318 4.01591C10.36 4.44843 8.38682 5.5729 6.90768 7.2209C5.42855 8.8689 4.52312 10.9517 4.32699 13.1575C4.13087 15.3632 4.6546 17.5731 5.81976 19.4563L5.81238 19.4666L23.0288 10.3334L23.0214 14.8941L5.53223 24.1939C4.1026 22.9237 2.95872 21.3646 2.17611 19.6197C1.3935 17.8748 0.989982 15.9837 0.992197 14.0713C0.992003 12.2919 1.34232 10.5298 2.02315 8.88577C2.70398 7.24173 3.70199 5.74789 4.96018 4.48956C6.21837 3.23123 7.7121 2.23307 9.35607 1.55206C11 0.871049 12.7621 0.520537 14.5415 0.520537C17.3446 0.520537 19.9486 1.37133 22.1102 2.8311L22.4021 3.02869L18.9547 4.8217ZM36.295 25.8129C37.364 26.3865 39.6156 27.6074 44.3857 27.6074C53.7341 27.6074 54.4964 21.0428 54.4964 19.7482C54.4964 15.5871 50.9104 13.5258 48.9641 12.4199C46.5606 11.0486 45.0345 10.2081 45.0345 8.91052C45.0345 8.18506 45.6833 7.23253 47.2094 7.23253C49.4978 7.23253 51.9411 9.25409 53.3522 10.5885V3.53002C51.7096 2.0039 48.9257 0.516113 45.4916 0.516113C40.2261 0.516113 36.41 3.6819 36.41 8.72031C36.41 9.8262 36.41 12.9168 40.6847 15.4736C44.079 17.4951 45.1849 18.1439 45.1849 19.2498C45.1849 19.7836 44.7676 20.8924 42.401 20.8924C40.1892 20.8924 38.1278 19.9753 36.2965 18.7175L36.295 25.8129ZM87.2675 11.8389C88.6904 11.8389 90.019 13.0082 90.019 15.1286H84.5529C84.5529 13.0082 85.877 11.8389 87.269 11.8389H87.2675ZM97.0745 18.489C97.5375 11.4084 92.39 6.51149 87.0729 6.51149C81.0642 6.51149 76.5861 10.9881 76.5861 16.8714C76.5861 22.8801 81.1896 27.6088 88.1227 27.6088C92.0523 27.6088 94.6165 27.0205 96.8858 25.9073L96.927 20.7597C94.6165 21.9143 91.6955 22.5247 89.6135 22.5247C86.5052 22.5247 84.404 20.5695 84.5515 18.489H97.0745ZM67.8732 20.2171C67.7671 22.1694 66.5403 23.1455 64.9625 23.1455C63.6989 23.1455 62.7891 22.2785 62.7891 21.41C62.7891 20.1448 63.5942 19.7482 65.138 19.3855C66.0846 19.1687 67.0298 18.9166 67.8717 18.4816L67.8732 20.2171ZM76.4873 21.6474C75.4847 21.5058 75.1087 21.0871 75.1367 18.8679L75.1323 14.2645C75.1323 8.26321 69.709 6.41122 65.9165 6.41122C64.0557 6.41122 59.0261 6.88602 57.2007 10.0931C56.5268 11.2801 56.2555 12.0601 56.1995 13.4491H62.6387C63.1002 12.0896 64.2017 11.3582 65.3474 11.3582C66.322 11.3582 67.248 11.864 67.8157 12.8209C67.9042 12.9743 67.9499 13.1394 67.9499 13.3164C67.9499 14.5727 67.1242 14.8189 66.1274 15.0106C62.3998 15.7331 55.3708 15.5046 55.3708 21.7476C55.3708 25.5519 58.3773 27.6088 62.0681 27.6088C64.4302 27.6088 66.5108 27.1886 68.0605 25.3617L68.23 25.5814C68.9172 26.2316 70.1189 27.2269 73.9084 27.2269H76.4888L76.4873 21.6474Z" fill="#707070"/>
</svg>
