<svg width="130" height="26" viewBox="0 0 130 26" fill="none" xmlns="http://www.w3.org/2000/svg">
<path fill-rule="evenodd" clip-rule="evenodd" d="M48.0968 7.08803V7.37799C48.0968 10.7961 50.2708 12.5189 52.2628 14.0612L52.7843 14.4687C54.5337 15.8453 55.5515 17.2241 55.5515 18.3255V18.4076C55.5515 19.9773 54.8606 20.3272 54.1483 20.3272C53.4715 20.3272 52.6933 19.6577 52.6933 18.3004V16.6605H47.9082V18.0992C47.9082 21.6031 50.4165 23.9583 54.1483 23.9583C58.1434 23.9583 60.5127 21.8236 60.5127 18.2271V18.0341C60.5127 14.5516 58.9268 13.2061 56.4155 11.1357L56.0205 10.8087L55.2963 10.2251C54.0418 9.22428 53.0639 8.30113 53.0639 7.09838V6.97559C53.0639 6.31578 53.2888 5.13744 54.4767 5.13744C55.5789 5.13744 55.8319 6.50367 55.8319 7.20564V8.67616H60.4816V7.17679C60.4816 3.57224 58.1242 1.24219 54.4767 1.24219C51.4048 1.24145 48.0968 3.07146 48.0968 7.08803ZM73.1815 1.66752V5.45181H76.8075V23.5249H81.7035V5.45181H84.811V1.66752H73.1815ZM93.6009 1.66752V18.2405C93.6009 19.9026 92.6777 20.1267 92.1954 20.1267C91.3588 20.1267 90.793 19.4647 90.793 18.2405V1.66752H85.9184V18.7701C85.9184 21.9094 88.383 23.9361 92.1954 23.9361C96.0108 23.9361 98.477 21.9094 98.477 18.7701V1.66752H93.6009ZM125.265 1.66752L125.519 17.3181H125.398L121.688 1.66752H115.278V23.5448H120.149L119.757 7.8292H119.879L123.656 23.5434L130.001 23.5448V1.66752H125.265ZM64.8421 1.66752L60.8078 23.5448L65.8562 23.5463L68.0176 6.62645H68.2492L70.3174 23.5434L75.3481 23.5448L71.3115 1.66752H64.8421ZM106.159 12.4102V12.5211L106.16 12.7467L108.908 23.5249H113.904L110.968 14.0234V13.962L111.078 13.8777C112.425 12.8155 113.194 10.8575 113.194 8.45055V8.07552C113.194 6.09387 112.55 4.43547 111.331 3.28524C110.202 2.21711 108.699 1.65716 106.892 1.66752H100.615V23.5249H104.816L105.433 23.5093V5.2802L105.436 5.23804H106.202C108.004 5.23804 108.363 7.02219 108.399 8.27968C108.401 8.30039 108.402 8.46609 108.404 8.62734V8.94467C108.404 9.06228 108.402 9.24351 108.396 9.35151C108.305 11.4552 107.343 12.1986 106.596 12.3354C106.594 12.3369 106.577 12.3399 106.573 12.3421L106.159 12.4102Z" fill="#707070"/>
<path fill-rule="evenodd" clip-rule="evenodd" d="M35.2912 11.7732C35.2934 11.802 35.3312 12.2288 35.346 12.5314C35.3578 12.7399 35.3467 13.0684 35.3467 13.0861C35.3504 13.0876 35.3992 13.1283 35.4022 13.1312C38.0473 15.303 40.8574 18.2625 41.3397 20.4387C41.4736 21.0401 41.4448 21.5838 41.2051 22.0491C40.9248 22.5927 40.3951 22.984 39.6606 23.2355C35.8682 24.53 26.8239 22.0431 19.4432 18.3935C14.1706 15.7882 9.54157 12.6793 6.40894 9.64135C3.49897 6.82014 2.71045 4.61288 3.46346 3.2866C3.74899 2.78434 4.24089 2.41376 4.89922 2.1593C7.30768 1.2184 11.9212 1.87821 16.4651 3.23038C14.3134 4.83553 12.8169 7.00285 12.1239 9.1709L12.1202 9.182C12.1201 9.18574 12.1196 9.18946 12.1187 9.19309C11.9064 11.1777 14.7772 13.774 17.679 15.2202C17.6775 15.2098 17.8365 15.2793 17.8358 15.2675C17.8343 15.2557 17.8062 15.0678 17.8062 15.0567C17.1264 10.1266 20.8597 2.74514 24.7823 1.12594C25.0353 1.02238 25.2535 0.960249 25.2861 0.949153C25.2594 0.947674 24.8045 0.90255 24.7779 0.901071C24.4702 0.872366 24.1615 0.856821 23.8525 0.854473C21.4367 0.818967 19.3167 1.46398 17.5503 2.50695C9.96837 -0.0967843 4.41767 -0.402276 2.09724 0.373668C1.17557 0.682122 0.552008 1.15183 0.244294 1.76948C-0.0796944 2.41746 -0.0811741 3.23334 0.238376 4.18977C1.29467 7.34902 5.90817 11.6659 11.751 15.5005C12.5995 19.9638 16.5998 24.5441 22.3221 25.1536C22.3347 25.1536 22.5714 25.1795 22.5839 25.1795C22.5788 25.1758 22.6823 25.1824 22.6764 25.1772L22.3583 24.9346C20.5853 23.5706 18.9971 21.3197 18.4512 19.3691L18.7952 19.543C18.8825 19.5866 18.9712 19.6317 19.0607 19.6754C28.3003 24.2452 37.9933 26.5738 42.2851 25.1395C43.2467 24.8177 43.9523 24.3636 44.2778 23.7141C44.5863 23.0928 44.5323 22.2702 44.2231 21.3449C43.4175 18.932 39.9535 15.2549 35.559 11.9736C35.4695 11.9071 35.3802 11.8403 35.2912 11.7732Z" fill="#707070"/>
</svg>
