<svg width="141" height="24" viewBox="0 0 141 24" fill="none" xmlns="http://www.w3.org/2000/svg">
<path d="M63.8577 22.9791V13.2487C63.8577 10.8407 62.4524 9.77714 60.6714 9.77714C58.8923 9.77714 57.4549 11.4267 57.4549 13.8044V22.9791H54.2695V0.702881H57.4549V8.71256C58.5478 7.5232 59.9843 6.93047 61.5463 6.93047C65.0752 6.93047 67.0431 9.30724 67.0431 12.7486V22.9791H63.8577Z" fill="#707070"/>
<path d="M16.6094 19.0095C16.6094 21.2127 14.8255 23.0007 12.6269 23.0007H4.65918C2.45872 23.0007 0.675781 21.2127 0.675781 19.0095V11.029C0.675781 8.82579 2.45872 7.03882 4.65918 7.03882H12.6269C14.8255 7.03882 16.6094 8.82579 16.6094 11.029V19.0095Z" fill="#707070"/>
<path d="M30.5404 23.1947C27.9175 23.1947 25.7054 22.7511 23.8105 20.8842L25.9273 18.7638C27.2227 20.0936 28.9599 20.4406 30.5404 20.4406C32.4985 20.4406 34.0479 19.7446 34.0479 18.2257C34.0479 17.1494 33.4464 16.4533 31.899 16.3266L29.3394 16.1053C26.338 15.8518 24.5998 14.4919 24.5998 11.6744C24.5998 8.54017 27.2859 6.76782 30.6348 6.76782C33.0367 6.76782 35.0902 7.27476 36.5753 8.57137L34.552 10.6294C33.5418 9.77438 32.1209 9.45851 30.6036 9.45851C28.6767 9.45851 27.6957 10.3125 27.6957 11.5155C27.6957 12.4651 28.2017 13.1933 29.9078 13.3512L32.4372 13.5725C35.4376 13.826 37.2069 15.2503 37.2069 18.0989C37.2069 21.4535 34.3642 23.1947 30.5404 23.1947Z" fill="#707070"/>
<path d="M46.4071 23.1947C42.8052 23.1947 39.2656 20.9797 39.2656 14.9657C39.2656 8.95157 42.8052 6.76782 46.4071 6.76782C48.6183 6.76782 50.1657 7.40052 51.683 9.01494L49.4718 11.1675C48.4606 10.059 47.6713 9.64862 46.4071 9.64862C45.175 9.64862 44.1317 10.1546 43.4359 11.072C42.742 11.9591 42.4889 13.0987 42.4889 14.9657C42.4889 16.8326 42.742 18.0034 43.4359 18.8906C44.1317 19.8079 45.175 20.3139 46.4071 20.3139C47.6713 20.3139 48.4606 19.9035 49.4718 18.796L51.683 20.9164C50.1657 22.5298 48.6183 23.1947 46.4071 23.1947Z" fill="#707070"/>
<path d="M110.356 10.7239C109.63 9.99665 109.061 9.64764 107.956 9.64764C106.217 9.64764 104.764 11.3176 104.764 13.5326V23.0056H101.541V6.95695H104.424L104.701 8.6981C105.522 7.55943 107.165 6.76685 108.966 6.76685C110.515 6.76685 111.684 7.17922 112.79 8.2867L110.356 10.7239Z" fill="#707070"/>
<path d="M116.238 15.9142C116.238 18.6683 117.69 20.4085 120.313 20.4085C122.115 20.4085 123.063 19.9025 124.2 18.7638L126.254 20.6941C124.61 22.3397 123.063 23.1947 120.25 23.1947C116.238 23.1947 113.047 21.0743 113.047 14.9647C113.047 9.7734 115.732 6.76782 119.839 6.76782C124.137 6.76782 126.632 9.93231 126.632 14.4899V15.9142H116.238ZM122.999 11.4834C122.493 10.2803 121.356 9.45851 119.839 9.45851C118.324 9.45851 117.154 10.2803 116.648 11.4834C116.332 12.2106 116.268 12.6864 116.238 13.6671H123.441C123.412 12.6864 123.316 12.2106 122.999 11.4834Z" fill="#707070"/>
<path d="M137.891 10.7239C137.165 9.99665 136.595 9.64764 135.489 9.64764C133.752 9.64764 132.299 11.3176 132.299 13.5326V23.0056H129.074V6.95695H131.958L132.235 8.6981C133.056 7.55943 134.699 6.76685 136.5 6.76685C138.048 6.76685 139.218 7.17922 140.324 8.2867L137.891 10.7239Z" fill="#707070"/>
<path d="M79.4848 23.1059V21.6494C78.316 22.8212 77.2104 23.296 75.2182 23.296C73.228 23.296 71.9005 22.8212 70.9214 21.8395C70.1001 20.9855 69.6582 19.7513 69.6582 18.3894C69.6582 15.6997 71.5229 13.7694 75.1881 13.7694H79.4216V12.6298C79.4216 10.603 78.4104 9.62223 75.9141 9.62223C74.1448 9.62223 73.2912 10.0336 72.4066 11.1733L70.2908 9.17963C71.8061 7.4063 73.3866 6.86914 76.0406 6.86914C80.4327 6.86914 82.6439 8.73605 82.6439 12.3763V23.1059H79.4848ZM79.4167 16.0155H75.6562C73.7613 16.0155 72.7803 16.8705 72.7803 18.327C72.7803 19.7825 73.6981 20.6053 75.7194 20.6053C76.9525 20.6053 77.8683 20.5078 78.7209 19.6879C79.1948 19.2122 79.4167 18.4528 79.4167 17.3141V16.0155Z" fill="#707070"/>
<path d="M88.4978 16.0165C88.4978 18.7706 89.9499 20.5108 92.5727 20.5108C94.3751 20.5108 95.323 20.0048 96.4598 18.8642L98.5133 20.7964C96.8695 22.441 95.323 23.297 92.5114 23.297C88.4978 23.297 85.3066 21.1766 85.3066 15.067C85.3066 9.8757 87.9918 6.87012 92.0997 6.87012C96.3965 6.87012 98.8918 10.0346 98.8918 14.5922V16.0165H88.4978ZM95.2588 11.5857C94.7527 10.3817 93.616 9.55886 92.0997 9.55886C90.5835 9.55886 89.4136 10.3817 88.9076 11.5857C88.5922 12.3129 88.528 12.7887 88.4978 13.7694H95.7026C95.6734 12.7887 95.5761 12.3129 95.2588 11.5857Z" fill="#707070"/>
<path d="M14.3253 13.1299H10.5287V9.32788H6.75748V13.1299H2.96094V16.9096H6.75748V20.7126H10.5287V16.9096H14.3253V13.1299Z" fill="white"/>
</svg>
