<svg width="176" height="28" viewBox="0 0 176 28" fill="none" xmlns="http://www.w3.org/2000/svg">
<path fill-rule="evenodd" clip-rule="evenodd" d="M25.3278 27.1436H33.0249V1.27314H25.3278V27.1436ZM39.1614 27.1436H59.0839V22.0004H46.8585V16.7055H57.5748V11.7121H46.8585V6.41727H59.0839V1.27314H39.1614V27.1436ZM80.1411 16.6297L73.3489 1.27314H63.3125V27.1436H69.5004V11.7121L76.2925 27.1436H81.3486L88.6683 11.3339V27.1436H96.3654V1.27314H87.2339L80.1411 16.6297ZM145.26 17.1586L135.6 1.27314H127.147V27.1436H132.58V11.1832L142.315 27.1436H150.693V1.27314H145.26V17.1586ZM102.414 27.1436H122.336V22.0004H110.111V16.7055H120.827V11.7121H110.111V6.41727H122.336V1.27314H102.414V27.1436ZM17.0303 13.15C14.8422 12.1671 11.4466 10.4268 9.10631 9.368C6.90889 8.37288 6.84259 3.16509 19.52 7.02296V2.10631C16.879 1.19825 9.63489 -0.542051 4.20157 2.48451C-1.23175 5.51014 0.0514022 12.9993 4.20157 15.496C6.01237 16.479 8.50303 17.3871 11.6726 18.7482C14.2987 19.8763 15.8984 25.6326 0.880689 21.6989V26.7673C3.97464 27.9019 15.2942 29.1123 18.6142 25.4052C22.7606 20.7768 20.8788 14.7387 17.0303 13.15ZM171.405 13.15C169.216 12.1671 165.821 10.4268 163.482 9.368C161.283 8.37288 161.218 3.16509 173.894 7.02296V2.10631C171.253 1.19825 164.01 -0.542051 158.577 2.48451C153.144 5.51014 154.426 12.9993 158.577 15.496C160.388 16.479 162.877 17.3871 166.048 18.7482C168.673 19.8763 170.274 25.6326 155.255 21.6989V26.7673C158.35 27.9019 169.67 29.1123 172.989 25.4052C177.135 20.7768 175.253 14.7387 171.405 13.15Z" fill="#707070"/>
</svg>
