<svg width="123" height="39" viewBox="0 0 123 39" fill="none" xmlns="http://www.w3.org/2000/svg">
<path fill-rule="evenodd" clip-rule="evenodd" d="M0 -40H123V83H0V-40Z" fill="#F6F7FA"/>
<path fill-rule="evenodd" clip-rule="evenodd" d="M35.8496 32.4545C35.983 35.4894 38.5743 36.4848 41.2327 36.4848C43.849 36.4848 46.4627 35.5091 46.4627 32.4966C46.4627 30.3692 44.6677 29.7087 42.8286 29.285C41.0343 28.8664 39.2622 28.7081 39.2622 27.58C39.2622 26.649 40.3043 26.5169 41.0126 26.5169C42.1433 26.5169 43.0724 26.8493 43.1605 28.0675H46.1513C45.9088 25.256 43.604 24.4143 41.0994 24.4143C38.6433 24.4143 36.1163 25.166 36.1163 28.0911C36.1163 30.105 37.933 30.7482 39.7491 31.1483C42.0099 31.6358 43.3162 31.967 43.3162 32.9165C43.3162 34.0255 42.1631 34.3797 41.2563 34.3797C40.0146 34.3797 38.8641 33.829 38.8411 32.4539H35.8496V32.4545ZM47.9642 36.1747H51.1088V24.725H47.9642V36.1747ZM47.9642 22.9511H51.1088V20.3597H47.9642V22.9511ZM52.5911 36.1747H55.7364V29.5319C55.7364 27.2934 57.2436 26.8946 57.8613 26.8946C59.856 26.8946 59.7673 28.4229 59.7673 29.7527V36.1747H62.9132V29.7948C62.9132 28.3553 63.2451 26.8946 65.0171 26.8946C66.8115 26.8946 66.9448 28.1562 66.9448 29.6864V36.1747H70.0907V28.511C70.0907 25.5437 68.341 24.4143 65.9053 24.4143C64.3088 24.4143 63.111 25.3217 62.4493 26.3171C61.8284 24.9439 60.5414 24.4143 59.1031 24.4143C57.6182 24.4143 56.4224 25.0996 55.603 26.2737H55.559V24.7206H52.5918V36.1747H52.5911ZM70.6816 30.4591C70.6816 34.0919 73.0075 36.4848 76.5956 36.4848C80.2074 36.4848 82.532 34.0919 82.532 30.4591C82.532 26.8047 80.2074 24.4143 76.5956 24.4143C73.0069 24.4143 70.6816 26.8047 70.6816 30.4591ZM73.8256 30.4591C73.8256 28.6207 74.4701 26.7823 76.595 26.7823C78.7448 26.7823 79.3855 28.6207 79.3855 30.4591C79.3855 32.2765 78.7448 34.1155 76.595 34.1155C74.4701 34.1155 73.8256 32.2765 73.8256 30.4591ZM83.7004 36.1747H86.8463V30.1739C86.8463 27.8473 87.5769 26.8946 89.2813 26.8946C90.7445 26.8946 91.2965 27.8256 91.2965 29.7087V36.1747H94.4449V29.1306C94.4449 26.298 93.6039 24.4143 90.2576 24.4143C88.9291 24.4143 87.5546 25.0326 86.7569 26.3171H86.6906V24.7206H83.7004V36.1747ZM107.043 31.2134C107.266 27.6923 105.383 24.4149 101.483 24.4149C98.0069 24.4149 95.6337 27.0286 95.6337 30.4598C95.6337 34.0045 97.8722 36.4855 101.483 36.4855C104.075 36.4855 105.958 35.3324 106.842 32.6306H104.075C103.876 33.3408 102.86 34.1161 101.592 34.1161C99.8427 34.1161 98.8715 33.2087 98.7809 31.2134H107.043ZM98.7809 29.2218C98.8268 28.3342 99.4005 26.783 101.397 26.783C102.924 26.783 103.609 27.6253 103.899 29.2218H98.7809ZM108.349 36.1747H111.496V20.3597H108.349V36.1747ZM113.197 36.1747H116.341V20.3597H113.197V36.1747ZM118.044 36.1747H121.191V24.725H118.044V36.1747ZM118.044 22.9511H121.191V20.3597H118.044V22.9511ZM36.4054 18.2763H39.5519V12.2755C39.5519 9.95019 40.2813 8.99621 41.987 8.99621C43.4502 8.99621 44.0028 9.92658 44.0028 11.809V18.2763H47.148V11.2334C47.148 8.39894 46.3089 6.51587 42.9627 6.51587C41.6315 6.51587 40.2602 7.13611 39.4626 8.42127H39.3943V6.82599H36.4054V18.2763ZM58.9742 6.82535H55.8276V12.8287C55.8276 15.1553 55.0964 16.1061 53.3913 16.1061C51.9288 16.1061 51.3762 15.1751 51.3762 13.2926V6.82535H48.2303V13.8688C48.2303 16.704 49.0726 18.5864 52.4156 18.5864C53.7467 18.5864 55.1206 17.9687 55.9157 16.6823H55.984V18.2763H58.9748V6.82535H58.9742ZM59.4789 12.5626C59.4789 16.1954 61.8042 18.5864 65.3936 18.5864C69.0053 18.5864 71.3299 16.1948 71.3299 12.5626C71.3299 8.90688 69.0053 6.51587 65.3936 6.51587C61.8042 6.51587 59.4789 8.90688 59.4789 12.5626ZM62.6229 12.5626C62.6229 10.7242 63.2674 8.88645 65.3936 8.88645C67.5421 8.88645 68.184 10.7242 68.184 12.5626C68.184 14.3806 67.5421 16.2171 65.3936 16.2171C63.2668 16.2171 62.6229 14.3806 62.6229 12.5626ZM82.2672 6.82535H79.1423L76.7284 14.6435H76.6837L74.2723 6.82535H70.9707L74.89 18.2763H78.3926L82.2672 6.82535ZM88.9476 13.8491C88.9476 14.535 88.8589 16.4819 86.399 16.4819C85.3831 16.4819 84.4731 16.1948 84.4731 15.0219C84.4731 13.8688 85.3595 13.537 86.3339 13.3367C87.3095 13.1599 88.4154 13.1388 88.9476 12.6724V13.8491ZM84.8273 10.349C84.9383 9.10788 85.7136 8.61972 86.9114 8.61972C88.0166 8.61972 88.9476 8.82009 88.9476 10.171C88.9476 11.4555 87.1539 11.3891 85.2261 11.6763C83.278 11.943 81.3266 12.5626 81.3266 15.1553C81.3266 17.5016 83.0578 18.5864 85.2261 18.5864C86.6223 18.5864 88.0842 18.2099 89.081 17.1704C89.1046 17.5463 89.1933 17.9247 89.3017 18.2756H92.4923C92.2058 17.8105 92.0935 16.7716 92.0935 15.7308V9.77279C92.0935 7.0238 89.3464 6.51587 87.0645 6.51587C84.4961 6.51587 81.8601 7.4022 81.6814 10.349H84.8273Z" fill="#707070"/>
<path fill-rule="evenodd" clip-rule="evenodd" d="M25.6064 12.5397L12.1677 12.5353V12.7024L26.3919 26.083C26.702 26.3338 26.9151 26.575 27.2316 26.7562C27.3516 26.351 27.3439 25.3581 27.3439 25.3581V7.16172L32.6677 7.1598L32.6632 30.9582C32.2574 33.027 30.6462 35.1985 28.4626 35.6605C26.9234 35.9246 26.5029 35.8838 26.5029 35.8838H8.92036V30.7278L22.8082 30.733L22.8644 30.6755L20.9047 28.7178L7.40867 16.1189L7.297 16.4533V35.88C5.44647 35.88 3.6789 35.8825 1.81817 35.8825L1.80859 12.4255C2.00513 10.5775 2.95783 8.79911 4.66542 7.83429C5.44966 7.42845 6.34557 7.25999 7.24085 7.1062H25.6083L25.6064 12.5397Z" fill="#707070" stroke="#707070" stroke-width="0.129698" stroke-miterlimit="2.613" stroke-linejoin="round"/>
</svg>
