<svg width="152" height="30" viewBox="0 0 152 30" fill="none" xmlns="http://www.w3.org/2000/svg">
<path fill-rule="evenodd" clip-rule="evenodd" d="M68.6367 7.94557C68.3184 6.67395 67.8409 5.24337 64.8167 5.24337C61.7925 5.24337 61.315 6.35604 61.315 7.30976C61.315 10.6478 74.8443 8.26348 74.8443 16.0522C74.8443 22.2513 68.7959 23.364 65.4534 23.364C60.5191 23.364 55.2666 21.7745 55.1074 16.0522H60.9967C60.9967 17.8006 62.1108 19.0723 65.6125 19.0723C68.4776 19.0723 69.2734 17.6417 69.2734 16.8469C69.2734 13.35 55.9033 16.0522 55.9033 8.10452C55.9033 5.08442 57.8133 1.1106 64.6575 1.1106C68.7959 1.1106 73.8893 2.06431 74.3668 8.10452H68.6367V7.94557Z" fill="#707070"/>
<path fill-rule="evenodd" clip-rule="evenodd" d="M106.52 22.569H100.79V9.85278C100.79 6.67372 99.3577 5.72 97.766 5.72C94.901 5.72 93.946 7.46848 93.946 10.0117V22.569H88.3751V9.85278C88.3751 8.1043 88.3751 5.56105 85.0326 5.56105C82.3267 5.56105 81.5308 7.30953 81.5308 9.69382V22.569H75.8008V1.58723H81.2125V4.60733H81.3717C82.0083 3.33571 83.6 0.951416 87.4201 0.951416C90.6034 0.951416 91.8768 2.06409 93.4685 4.28943C94.2643 3.33571 95.6968 0.951416 99.1985 0.951416C103.337 0.951416 106.679 3.33571 106.679 7.94534V22.569H106.52Z" fill="#707070"/>
<path fill-rule="evenodd" clip-rule="evenodd" d="M128.645 16.529C127.213 21.6155 122.915 23.205 119.254 23.205C113.206 23.205 108.59 20.3439 108.59 11.7604C108.59 9.21719 109.545 1.1106 118.936 1.1106C123.233 1.1106 129.123 3.01803 129.123 12.7142V13.6679H114.32C114.479 15.2574 114.797 18.7544 119.413 18.7544C121.005 18.7544 122.597 17.9596 123.074 16.529H128.645ZM123.074 10.012C122.756 6.67395 120.527 5.56128 118.777 5.56128C116.071 5.56128 114.638 7.1508 114.32 10.012H123.074Z" fill="#707070"/>
<path fill-rule="evenodd" clip-rule="evenodd" d="M151.723 0.951451V20.1847C151.723 23.6817 151.405 29.563 140.9 29.563C136.443 29.563 131.827 27.8145 131.509 23.5228H137.716C138.035 24.4765 138.353 25.5891 141.696 25.5891C144.72 25.5891 146.152 24.1586 146.152 20.9795V18.5952H145.993C145.038 20.1847 143.606 21.6153 140.263 21.6153C135.01 21.6153 131.031 18.2773 131.031 11.1244C131.031 4.13051 135.17 0.633545 139.945 0.633545C143.924 0.633545 145.516 2.85888 146.311 4.13051H146.471V0.951451H151.723ZM141.218 16.6878C145.038 16.6878 145.993 13.6677 145.993 10.8065C145.993 7.46852 144.242 4.92527 141.218 4.92527C139.149 4.92527 136.761 6.35585 136.761 11.1244C136.761 13.6677 137.875 16.6878 141.218 16.6878Z" fill="#707070"/>
<path fill-rule="evenodd" clip-rule="evenodd" d="M13.7235 22.5689C13.7235 26.3837 10.6993 29.4039 6.87926 29.4039C3.05922 29.4039 0.0350185 26.3837 0.0350185 22.5689C-0.12415 18.754 3.05922 15.575 6.87926 15.575C10.5401 15.575 13.7235 18.754 13.7235 22.5689Z" fill="#707070"/>
<path fill-rule="evenodd" clip-rule="evenodd" d="M27.4131 22.5689C27.4131 26.3837 24.3889 29.4039 20.5688 29.4039C16.7488 29.4039 13.7246 26.3837 13.7246 22.5689C13.7246 18.754 16.7488 15.575 20.5688 15.575C24.3889 15.575 27.4131 18.754 27.4131 22.5689Z" fill="#707070"/>
<path fill-rule="evenodd" clip-rule="evenodd" d="M41.2607 22.5692C41.2607 26.3841 38.2365 29.4042 34.4165 29.4042C30.5965 29.4042 27.5723 26.3841 27.5723 22.5692C27.5723 18.7543 30.5965 15.7342 34.4165 15.7342C38.2365 15.5753 41.2607 18.7543 41.2607 22.5692Z" fill="#707070"/>
<path fill-rule="evenodd" clip-rule="evenodd" d="M27.4131 8.74025C27.4131 12.5551 24.3889 15.5752 20.5688 15.5752C16.7488 15.5752 13.7246 12.5551 13.7246 8.74025C13.7246 4.92538 16.7488 1.90527 20.5688 1.90527C24.3889 1.90527 27.4131 4.92538 27.4131 8.74025Z" fill="#707070"/>
<path fill-rule="evenodd" clip-rule="evenodd" d="M41.2607 8.74025C41.2607 12.5551 38.2365 15.5752 34.4165 15.5752C30.5965 15.5752 27.5723 12.5551 27.5723 8.74025C27.5723 4.92538 30.5965 1.90527 34.4165 1.90527C38.2365 1.90527 41.2607 4.92538 41.2607 8.74025Z" fill="#707070"/>
<path fill-rule="evenodd" clip-rule="evenodd" d="M55.1064 8.74025C55.1064 12.5551 52.0822 15.5752 48.2622 15.5752C44.4422 15.5752 41.418 12.5551 41.418 8.74025C41.418 4.92538 44.4422 1.90527 48.2622 1.90527C51.9231 1.90527 55.1064 4.92538 55.1064 8.74025Z" fill="#707070"/>
</svg>
