<svg width="75" height="48" viewBox="0 0 75 48" fill="none" xmlns="http://www.w3.org/2000/svg">
<path fill-rule="evenodd" clip-rule="evenodd" d="M0 -14.9333H75V59.7333H0V-14.9333Z" fill="#F6F7FA"/>
<path fill-rule="evenodd" clip-rule="evenodd" d="M59.2261 8.12594L59.2254 8.12671C58.1312 8.50362 57.2289 9.27408 56.3033 10.6237C55.3235 12.0511 55.1893 13.8213 55.68 14.5182C56.1282 15.1566 57.1142 15.5955 58.5343 14.911C60.0117 14.1998 60.9584 13.0749 61.493 12.2572C62.263 11.0753 62.4856 10.0364 62.193 8.98588C62.0728 8.55242 61.8288 8.23788 61.4681 8.04963C60.9366 7.7715 60.1829 7.79745 59.2261 8.12594ZM22.2973 6.74615C18.1274 8.64965 15.005 11.7156 13.9451 14.9462C13.0284 17.7419 13.6206 19.3707 14.0124 20.4484L14.1396 20.8082C14.3793 21.5194 14.7587 22.3209 15.1267 23.0968C15.3878 23.6468 15.6341 24.1667 15.7933 24.5804C16.1847 25.6003 16.089 26.3766 15.5014 26.953C15.1528 27.2942 14.24 27.326 12.7875 27.0444C11.3121 26.7601 9.9308 26.3371 8.43785 25.715L8.12891 25.5856L4.85547 31.2752L5.1897 31.4611C8.10167 33.0907 13.3276 33.886 16.4995 33.6877C21.0725 33.4026 22.3378 30.5895 22.6685 29.3926C23.2284 27.3756 22.5573 25.395 21.9643 23.6495L21.8308 23.2509C21.2336 21.4807 20.5569 19.4734 20.827 17.7965C21.2468 15.1907 22.8358 13.5475 26.3139 12.1262C29.5956 10.7848 33.8896 9.88186 37.5194 9.76991L37.9941 9.75519L36.5393 4.102L36.2455 4.10123C31.1718 4.0869 25.9568 5.07506 22.2973 6.74615Z" fill="#F6F7FA"/>
<path fill-rule="evenodd" clip-rule="evenodd" d="M69.9168 24.6935C69.3523 23.163 68.7609 20.6711 68.6476 19.6283L68.5581 18.8451C68.448 17.9123 68.3239 16.8552 68.3317 16.163L68.3363 15.7818L63.9272 15.7663L63.8202 15.9716C62.8521 17.8314 62.0175 19.3339 61.2805 20.6607L59.9409 23.1162C58.6285 25.6379 57.6581 27.2908 57.1351 27.8978C56.3842 28.7709 55.9574 28.805 55.5476 28.59C55.1691 28.3909 55.1169 27.9962 55.0621 27.3698L55.0531 27.2714C54.943 26.057 55.3831 24.3247 55.6725 23.177L55.7531 22.8593C55.9963 21.8882 56.7815 19.9111 57.204 18.849L57.5939 17.8596L57.0375 17.8608L53.1967 17.8542L53.0866 18.044C51.4602 20.8648 50.154 22.8373 49.0019 24.5781C47.0483 27.5278 45.7585 29.2423 45.1678 29.675C44.334 30.2863 44.0052 30.4257 43.4321 30.1728C42.8994 29.9376 42.7959 29.3663 42.6691 28.4536L42.65 28.3227C42.6304 28.1613 42.6216 27.9988 42.6235 27.8362C42.6235 26.8655 42.8438 25.2738 43.0543 24.3604C45.4336 23.4291 47.1786 22.391 48.921 20.0049C51.8711 15.9643 53.3181 12.9963 53.3446 10.9312C53.3462 10.8797 53.3462 10.8286 53.3462 10.7782C53.3462 9.15557 52.9808 8.18445 51.261 8.01556C50.6614 7.95668 49.8323 8.33785 49.2774 8.74264C47.2561 10.2142 45.774 11.6111 44.1624 13.5607C42.9169 15.0664 40.687 18.0095 39.4551 21.0411C39.117 21.0438 37.9634 21.0534 37.4206 21.0573C37.4237 21.0349 37.4299 20.9748 37.4299 20.9748C37.5568 19.9127 37.6789 18.8846 37.6789 18.046C37.6789 17.4746 37.6217 16.9916 37.4708 16.6445C37.0525 15.6788 36.6681 15.4832 35.8887 15.2686C35.5413 15.1721 34.9148 15.021 34.6374 15.0993C34.3584 15.1787 34.2257 15.3937 34.0242 15.7198L33.7343 16.2385L33.437 16.7797C31.404 16.9087 29.9667 17.3537 28.6788 18.2594C27.1719 19.3177 26.0906 21.4203 25.5817 23.0344C25.342 23.7964 25.1875 24.9833 25.1875 26.2538C25.1875 27.7254 25.3945 29.3082 25.919 30.4726C26.654 32.1092 27.822 33.9709 30.3449 33.8423C32.3394 33.74 33.1192 33.4913 34.1164 32.134C35.3179 30.4989 36.0008 27.5278 36.4525 25.5624L36.6377 24.7799C36.9941 24.7791 37.7354 24.776 38.2151 24.7737C38.0708 25.82 37.9521 26.8922 37.9521 27.9656C37.9521 28.829 38.0245 29.6882 38.2081 30.5295C38.5995 32.3219 39.2303 33.5397 41.1598 34.0731C42.3278 34.397 44.5628 34.758 46.4125 33.5494C47.7728 32.6612 49.27 31.1102 50.3112 29.5638C50.5497 30.8297 51.0042 31.718 51.7178 32.3048C52.4937 32.9432 53.3084 33.1636 54.7204 33.1152C56.0274 33.0714 57.1083 32.7844 58.4608 31.4929C59.0833 30.8998 59.5681 30.222 60.0561 29.5061C61.67 30.8913 62.9105 31.7373 63.7365 32.0081C64.6361 32.304 66.1084 32.3796 67.2119 31.8477C68.8679 31.0474 69.8884 29.9799 70.2449 28.6725C70.6717 27.106 70.3192 25.7828 69.9168 24.6935ZM43.5414 20.362C43.8243 19.2565 44.92 17.2092 45.7269 16.0623C46.6102 14.808 47.5744 13.8036 48.7805 12.8901C48.9051 12.8061 49.2381 12.583 49.542 12.7666C49.6712 12.8448 49.8163 13.0133 49.7747 13.3713C49.6591 14.3683 49.1218 16.0212 47.9615 17.6725C46.8573 19.2445 45.7324 20.2965 44.3145 21.086L44.2955 21.0961L44.2764 21.1038C44.0278 21.208 43.8227 21.1944 43.6671 21.0631C43.4216 20.8547 43.5052 20.5123 43.5414 20.362ZM33.7219 24.2031C33.4491 25.562 32.6048 28.7728 31.962 30.0666C31.7663 30.4617 31.4889 30.5326 31.3398 30.5404C31.0484 30.5539 30.7803 30.3688 30.543 29.988C29.9994 29.1164 29.5547 26.9882 29.5913 25.4326C29.6259 23.9405 30.2087 21.4013 30.7679 20.3078C31.3643 19.1383 32.1048 18.3485 32.8005 18.1401L33.5207 17.9259L32.8207 19.8685L32.5561 20.606C32.4242 20.9644 32.3067 21.5202 32.3748 22.0021C32.4277 22.3736 32.6079 22.7284 33.3192 23.2529L33.3911 23.3052C33.6935 23.5206 33.8199 23.7108 33.7219 24.2031ZM66.2761 27.6925C66.2212 27.9075 66.0543 28.5578 65.3415 28.5059C63.8186 28.3955 62.3109 26.8066 61.5478 25.8699L61.3965 25.6619L62.528 23.5601C63.1968 22.2922 63.9544 20.8567 64.3252 20.2803L64.9112 19.3707L65.0236 20.4449C65.0859 21.0503 65.2045 21.5508 65.3298 22.08L65.4361 22.5363C66.0652 24.2558 66.3839 25.6607 66.3839 26.7283C66.3839 27.0878 66.3477 27.4097 66.2761 27.6925Z" fill="#F6F7FA"/>
<path fill-rule="evenodd" clip-rule="evenodd" d="M60.343 6.9888C58.596 7.36803 57.2758 8.22178 55.9066 10.0137C54.5386 11.8053 54.3168 13.7723 54.5911 14.9251C54.8121 15.8486 55.8008 16.3018 56.8338 16.1867C58.752 15.9737 59.9999 15.3094 61.4566 13.5124C62.883 11.7553 63.2196 10.1245 63.0289 8.7025C62.8577 7.43349 61.8235 6.66806 60.343 6.9888Z" fill="#F6F7FA"/>
<path fill-rule="evenodd" clip-rule="evenodd" d="M38.7972 19.9779C39.3878 18.6589 42.1955 14.4971 43.5348 12.9813C44.8729 11.4652 47.4973 8.55957 49.9953 7.35603C51.0388 6.85478 52.2423 6.97292 53.2707 7.75888C54.299 8.54523 54.5671 9.9595 54.1878 11.7638C53.6648 14.2464 51.2664 18.1921 49.5424 20.4404C47.8736 22.617 46.0133 24.1111 43.9636 24.8645C43.7266 25.9328 43.6169 28.0223 43.9068 29.0724C44.0103 29.4485 44.4028 29.4369 44.6157 29.22C45.7565 28.0525 47.6654 25.3208 48.6222 23.8523C49.5789 22.3838 51.5213 19.3236 52.7761 16.9549L59.0152 16.963C58.3549 18.2859 57.3698 20.5814 56.9375 22.2718C56.506 23.9611 55.9161 25.7938 56.0013 27.3974C56.0227 27.8084 56.2507 27.8173 56.506 27.4838C57.3733 26.3605 58.7409 23.6509 59.6347 21.9798C60.5276 20.3071 61.6782 18.0755 63.5256 14.6617L69.4371 14.6559C69.4258 17.3237 69.7822 20.1313 70.4122 22.0937C71.0405 24.056 71.7323 25.7085 71.6903 27.4199C71.6495 29.1305 70.5149 30.8458 69.1741 31.8483C67.92 32.7864 66.9177 33.3605 64.9722 33.3245C63.2381 33.2912 61.6891 32.3061 60.1222 31.1971C58.7429 32.9464 57.8919 33.5608 56.1682 34.0954C54.6317 34.5734 53.0928 34.3026 52.168 33.997C50.9591 33.5968 50.328 32.9604 49.8739 31.7441C49.3342 32.4123 48.3016 33.4221 46.9405 34.4002C44.7935 35.9435 42.3391 35.5956 40.7255 35.1703C39.1127 34.7457 37.7225 33.3869 37.3805 31.9618C37.0385 30.537 36.6634 28.8741 37.1836 26.0521L37.0778 26.056C36.9027 26.8141 36.5665 28.4333 36.1611 29.8146C35.7918 31.072 35.3362 32.7001 33.9148 33.8765C32.4223 35.1126 30.8912 35.1726 28.8967 34.848C27.2049 34.5726 25.6579 33.1451 24.8883 31.1878C24.1187 29.2305 23.7 27.2611 24.0428 24.6851C24.3533 22.3547 25.7875 19.7885 27.403 18.2289C28.7135 16.9626 30.82 15.94 33.1674 15.8257C33.4522 15.3377 34.2109 14.2182 34.4179 14.1767C34.6222 14.1345 35.5051 14.1399 36.4471 14.3135C37.3891 14.487 38.0435 14.8748 38.519 15.7483C38.9956 16.6214 38.7509 18.6461 38.5524 19.9872L38.7972 19.9779ZM47.8969 15.1234C46.5615 16.5067 46.0351 17.4554 45.5631 18.5768C46.5654 17.8152 47.2903 16.7732 47.8969 15.1234ZM63.1937 25.2755C63.5396 25.817 63.854 26.1455 64.3011 26.2923C64.6551 25.523 64.2244 24.83 63.9567 23.7919L63.1937 25.2755ZM31.369 23.3417C31.0531 24.8571 31.0173 26.3628 31.1935 27.1096C31.3266 27.5501 31.4231 27.478 31.5075 27.1337C31.6184 26.6843 31.9978 25.3034 32.127 24.7181C31.7881 24.3206 31.5036 24.0557 31.369 23.3417Z" fill="#F6F7FA"/>
<path fill-rule="evenodd" clip-rule="evenodd" d="M37.5807 3.05266C31.8684 2.90081 26.6549 3.89401 22.7788 5.36754C18.8054 6.87903 15.6078 9.41859 13.6367 12.8913C11.936 15.8887 12.1033 18.6297 12.8768 20.8772C13.467 22.5955 14.7075 24.5068 14.8709 24.9372C15.1467 25.6611 14.7923 25.985 14.5051 26.1864C14.2219 26.3847 13.618 26.4308 12.076 26.0648C10.5344 25.6972 9.48506 25.2552 7.50146 24.4026L3.30859 31.6955C8.23879 34.0937 12.4889 34.7324 16.3413 34.6135C20.0194 34.5015 21.9878 33.1737 23.1481 30.7271C24.2465 28.4118 24.2025 26.5288 22.7741 22.3496C21.9808 20.03 21.5897 18.0688 21.9901 16.9726C22.6788 15.0861 24.6896 13.5742 28.0646 12.3738C31.4404 11.1737 36.1601 10.7926 39.609 10.7194L37.5807 3.05266Z" fill="#F6F7FA"/>
<path fill-rule="evenodd" clip-rule="evenodd" d="M39.7058 21.4184C40.7668 18.6809 42.7963 15.8078 44.4547 13.8021C46.113 11.7974 47.581 10.4479 49.5008 9.04871C50.0821 8.62532 50.7934 8.34991 51.2245 8.39252C52.6836 8.53623 52.9867 9.28539 52.9657 10.9267C52.9322 13.5514 50.3712 17.377 48.6141 19.7829C46.8982 22.1315 45.1714 23.1476 42.7283 24.0858C42.4555 25.1557 42.1438 27.457 42.2746 28.3754C42.4037 29.2947 42.4882 30.1693 43.2784 30.5187C44.0687 30.8681 44.5613 30.5892 45.3928 29.9799C46.225 29.371 48.0678 26.6753 49.3187 24.7861C50.5704 22.8962 51.8272 20.9876 53.4162 18.2327L57.0368 18.2389C56.7259 19.0357 55.678 21.5954 55.3839 22.768C55.0921 23.9413 54.5489 25.9076 54.675 27.3059C54.7333 27.9528 54.7602 28.6028 55.3703 28.9251C56.0967 29.3071 56.7282 28.9546 57.4251 28.1442C58.1219 27.3338 59.3904 24.9969 60.2787 23.2917C61.167 21.5853 62.4922 19.3479 64.1583 16.1456L67.9535 16.1592C67.9422 17.0819 68.1535 18.5798 68.2718 19.6694C68.3889 20.7603 68.999 23.3018 69.5613 24.8249C69.9593 25.9052 70.2733 27.1254 69.878 28.5753C69.4819 30.0248 68.2275 30.939 67.0458 31.5092C66.054 31.9872 64.705 31.9307 63.8548 31.6522C63.0035 31.3729 61.6708 30.4258 59.9806 28.9453C59.4091 29.792 58.8916 30.5613 58.1978 31.2226C56.9675 32.3982 56.006 32.6965 54.7073 32.7395C53.4077 32.7848 52.6781 32.6078 51.9595 32.0155C51.2412 31.4248 50.7117 30.4169 50.5436 28.4731C49.6444 30.1104 47.9164 32.1174 46.2044 33.2365C44.7029 34.2169 42.803 34.1383 41.2618 33.7118C39.4871 33.2206 38.9447 32.1228 38.579 30.4517C38.1852 28.6512 38.3031 26.733 38.6443 24.3961L36.3366 24.405C35.8833 26.1989 35.2024 30.0179 33.811 31.9117C32.9274 33.1141 32.2873 33.3659 30.3251 33.4666C28.3633 33.5665 27.189 32.375 26.2649 30.32C25.3409 28.2658 25.4323 24.7745 25.9436 23.1499C26.4564 21.5257 27.517 19.5397 28.8976 18.5697C30.2777 17.6002 31.7442 17.2418 33.6713 17.1434C34.0118 16.55 34.1737 16.2025 34.3456 15.9225C34.518 15.6436 34.604 15.5037 34.7402 15.4646C34.8764 15.4267 35.3475 15.5126 35.7872 15.6351C36.481 15.8264 36.7568 15.9523 37.1226 16.796C37.4883 17.6381 37.2 19.6567 36.9934 21.4416L39.7058 21.4184ZM32.9103 18.5019C32.2667 18.6948 31.6045 19.5029 31.1072 20.479C30.6092 21.4525 30.0069 23.9347 29.9714 25.4419C29.9357 26.9476 30.364 28.9844 30.866 29.7885C31.1979 30.3204 31.4644 30.2181 31.6224 29.8989C32.2266 28.6815 33.0597 25.576 33.3499 24.1299C33.4262 23.7472 33.3461 23.7441 33.0928 23.557C32.3838 23.0333 32.0757 22.5999 31.999 22.0548C31.9224 21.5102 32.0473 20.8908 32.2002 20.4752C32.3527 20.0595 32.655 19.1945 32.9103 18.5019ZM44.1294 20.7545C45.5025 19.9906 46.5931 18.9617 47.6511 17.4561C48.7098 15.9492 49.2775 14.3734 49.3981 13.3275C49.43 13.0529 49.3152 12.9878 48.993 13.204C47.7172 14.1708 46.8028 15.1927 46.039 16.2792C45.2737 17.3654 44.1831 19.3859 43.9095 20.455C43.843 20.7308 43.8628 20.8672 44.1294 20.7545ZM61.8436 25.6333C62.7374 26.7303 64.1167 28.0377 65.3692 28.1291C65.6906 28.1527 65.8174 27.9536 65.9089 27.5996C66.1322 26.7191 66.0174 25.2149 65.0707 22.6378C64.905 21.9038 64.7303 21.2921 64.6459 20.4845C64.0377 21.4285 62.2988 24.8644 61.8436 25.6333Z" fill="#707070"/>
<path fill-rule="evenodd" clip-rule="evenodd" d="M59.35 8.48383C58.4021 8.81038 57.5527 9.47277 56.6158 10.8375C55.6797 12.2029 55.6369 13.7996 55.9905 14.3005C56.3423 14.8025 57.1458 15.16 58.3675 14.5709C59.5912 13.9817 60.5348 13.0295 61.174 12.0511C61.8631 10.992 62.0974 10.0631 61.8269 9.08734C61.5577 8.11816 60.5601 8.06625 59.35 8.48383ZM36.2441 4.47965C31.7932 4.46648 26.4432 5.26832 22.455 7.08932C18.1326 9.06216 15.272 12.115 14.3055 15.0636C13.323 18.0595 14.1358 19.6054 14.5 20.6885C14.9031 21.8885 15.7614 23.4399 16.1474 24.4455C16.5089 25.3876 16.5929 26.4141 15.7681 27.2229C15.4011 27.5824 14.6416 27.7889 12.7145 27.4166C10.9258 27.0707 9.4632 26.5532 8.29125 26.0647L5.375 31.1322C8.12628 32.6728 13.1857 33.5168 16.4754 33.3119C20.0831 33.0865 21.7838 31.164 22.3017 29.293C22.8612 27.2775 22.1064 25.2636 21.5056 23.4771C20.9033 21.6906 20.1601 19.5411 20.4512 17.7379C20.9134 14.8668 22.7534 13.174 26.1693 11.7776C29.761 10.3091 34.0998 9.49795 37.5079 9.39297L36.2441 4.47965Z" fill="#707070"/>
<path fill-rule="evenodd" clip-rule="evenodd" d="M7.95909 41.7624C7.39763 41.7624 6.96379 41.5838 6.65874 41.2259C6.3537 40.8688 6.20117 40.3605 6.20117 39.7012C6.20117 39.2573 6.26537 38.8169 6.39416 38.3811C6.52295 37.9461 6.70232 37.5587 6.93306 37.219C7.14122 36.9064 7.38363 36.6713 7.65949 36.5125C7.93861 36.3534 8.25536 36.2714 8.57697 36.275C9.14116 36.275 9.57577 36.452 9.88121 36.8076C10.1863 37.1625 10.3392 37.6722 10.3392 38.3358C10.3389 38.7795 10.2745 39.2208 10.1481 39.6462C10.029 40.0597 9.84655 40.4525 9.60729 40.8107C9.3964 41.1252 9.15244 41.363 8.87502 41.5226C8.59671 41.6826 8.28043 41.7654 7.95909 41.7624ZM6.90738 39.788C6.90738 40.2149 7.0027 40.5445 7.19336 40.7785C7.38401 41.0129 7.65171 41.1295 7.99645 41.1295C8.1871 41.1295 8.37348 41.069 8.55557 40.947C8.73767 40.825 8.89836 40.6503 9.03805 40.4241C9.21859 40.139 9.36294 39.8 9.47072 39.408C9.57811 39.0152 9.63219 38.6279 9.63219 38.2451C9.63219 37.819 9.53803 37.4879 9.34971 37.2531C9.16178 37.018 8.89525 36.8998 8.55013 36.8998C8.3548 36.8998 8.16492 36.9603 7.98166 37.0815C7.7984 37.202 7.63576 37.3751 7.49413 37.6021C7.31048 37.8919 7.1669 38.2316 7.06301 38.6197C6.95913 39.0086 6.90738 39.3983 6.90738 39.788ZM10.7314 41.6218L11.8454 36.416H14.9869L14.8546 37.0408H12.4045L12.0664 38.6197H14.4095L14.2733 39.2531H11.9302L11.4263 41.6218H10.7314ZM19.7292 39.9883H20.4042V40.0754C20.4042 40.409 20.512 40.6708 20.7276 40.8606C20.9431 41.0504 21.2396 41.145 21.617 41.145C21.9871 41.145 22.2793 41.0578 22.4933 40.8854C22.7077 40.7123 22.8151 40.4791 22.8151 40.1862C22.8151 40.0007 22.7582 39.8481 22.6446 39.7284C22.531 39.6094 22.2544 39.4591 21.8143 39.279C21.217 39.0369 20.8237 38.8084 20.6342 38.593C20.4443 38.378 20.3498 38.096 20.3498 37.7454C20.3498 37.3081 20.5159 36.9548 20.8478 36.6856C21.1801 36.4172 21.6229 36.2824 22.1765 36.2824C22.7547 36.2824 23.201 36.4207 23.5146 36.6984C23.8282 36.9754 23.9851 37.3693 23.9851 37.8795V37.9167H23.2862C23.2765 37.5777 23.1757 37.3252 22.9851 37.1578C22.794 36.9912 22.5073 36.908 22.1256 36.908C21.7945 36.908 21.5326 36.9835 21.3392 37.135C21.1455 37.2864 21.049 37.4898 21.049 37.7462C21.049 37.9368 21.1112 38.0921 21.2357 38.213C21.3602 38.3339 21.6509 38.4884 22.1081 38.6767C22.6968 38.918 23.0862 39.1419 23.2761 39.3484C23.466 39.5548 23.5613 39.8136 23.5613 40.1239C23.5613 40.6216 23.387 41.0183 23.0392 41.3123C22.6905 41.6067 22.2205 41.7543 21.6268 41.7543C21.0357 41.7543 20.5723 41.6075 20.235 41.3131C19.8976 41.0194 19.7295 40.6139 19.7295 40.0964V39.9883H19.7292ZM24.6944 41.6218L24.5656 36.416H25.2134L25.1508 40.7684L26.5457 36.416H27.1709L27.1636 40.7684L28.5215 36.416H29.1985L27.4137 41.6218H26.7515L26.7184 37.2767L25.3348 41.6218H24.6944ZM31.8229 40.997L31.6868 41.6218H29.0724L29.2051 40.997H30.1662L31.0093 37.0408H30.0522L30.1884 36.416H32.8023L32.6661 37.0408H31.7089L30.8584 40.997H31.8229ZM34.5999 41.6218L35.5944 37.0408H34.0034L34.1474 36.416H37.8589L37.7301 37.0408H36.2827L35.2999 41.6218H34.5999ZM37.7173 41.6218L37.8535 41.0067L41.3164 37.0408H38.6247L38.7577 36.4075H42.3106L42.1821 37.0234L38.7426 40.997H41.5635L41.4269 41.6218H37.7173ZM42.3814 41.6218L43.4977 36.416H46.8018L46.6661 37.0408H44.0607L43.7226 38.6197H46.2128L46.0836 39.2531H43.5856L43.2105 40.997H45.9949L45.8587 41.6218H42.3814ZM46.8018 41.6218L47.9197 36.416H49.6628C50.1873 36.416 50.5772 36.5206 50.8325 36.7286C51.0869 36.9374 51.2146 37.2574 51.2146 37.6893C51.2146 38.036 51.1356 38.3315 50.9776 38.5767C50.8204 38.8219 50.5932 39.0005 50.2975 39.1125C50.4371 39.1911 50.5344 39.2841 50.5893 39.3917C50.6449 39.4998 50.6721 39.6583 50.6721 39.8663V40.0204C50.6721 40.0545 50.6698 40.0886 50.6644 40.1235L50.6278 40.6553C50.6231 40.6902 50.6196 40.734 50.6173 40.7878C50.615 40.8416 50.6134 40.9029 50.6134 40.9718C50.6134 41.1353 50.6231 41.2503 50.6422 41.3169C50.661 41.3809 50.6979 41.4382 50.7484 41.482V41.6218H49.943C49.924 41.5628 49.9105 41.5023 49.9025 41.4409C49.8948 41.3793 49.8897 41.3174 49.8874 41.2554C49.8874 41.2189 49.8905 41.1647 49.8951 41.0911C49.8998 41.0175 49.9064 40.9307 49.9134 40.8308L49.9574 40.2401C49.9605 40.2029 49.9621 40.1672 49.9636 40.132C49.9646 40.0884 49.9651 40.0447 49.9652 40.0011C49.9652 39.7566 49.9088 39.5889 49.7971 39.4987C49.6854 39.408 49.4337 39.3623 49.043 39.3623H47.9785L47.5034 41.6218H46.8018ZM48.115 38.7379H49.2944C49.6905 38.7379 49.9912 38.6538 50.1978 38.4876C50.4045 38.3215 50.508 38.0797 50.508 37.7637C50.508 37.5231 50.4336 37.3422 50.2846 37.2221C50.1356 37.102 49.9115 37.0412 49.6115 37.0412H48.4808L48.115 38.7379ZM51.497 41.6218L52.6126 36.416H53.304L52.325 40.997H55.0308L54.8977 41.6218H51.497ZM55.3992 41.6218L58.37 36.416H59.0766L60.1259 41.6218H59.4707L59.154 40.0971H56.9957L56.1121 41.6218H55.3992ZM57.3568 39.4642H59.0248L58.6159 37.1477L57.3568 39.4642ZM60.3929 41.6218L61.5107 36.416H62.1582L63.5079 40.4202L64.3507 36.416H65.0491L63.9274 41.6218H63.2799L61.9407 37.599L61.1026 41.6218H60.3929ZM64.9161 41.6218L66.0219 36.416H67.3351C67.7448 36.416 68.0471 36.4462 68.2424 36.5074C68.437 36.5679 68.6074 36.6725 68.7525 36.8185C68.912 36.9773 69.0323 37.1822 69.1128 37.4344C69.1941 37.6862 69.2342 37.9814 69.2342 38.3211C69.2342 38.729 69.1864 39.1268 69.0906 39.5157C68.9949 39.9038 68.865 40.2358 68.7008 40.512C68.4623 40.9075 68.1841 41.1914 67.865 41.3638C67.5459 41.5354 67.1323 41.6218 66.6246 41.6218H64.9161ZM65.7413 40.997H66.4892C66.8576 40.997 67.1541 40.9478 67.3775 40.8502C67.6008 40.7526 67.793 40.5914 67.9529 40.3675C68.137 40.1088 68.279 39.8016 68.3786 39.4467C68.4782 39.0919 68.5276 38.7173 68.5276 38.3218C68.5276 37.8489 68.4327 37.5169 68.2428 37.3271C68.0522 37.1365 67.6989 37.0412 67.1825 37.0412H66.5861L65.7413 40.997Z" fill="#F6F7FA"/>
</svg>
