<svg width="180" height="70" viewBox="0 0 180 70" fill="none" xmlns="http://www.w3.org/2000/svg">
<g clip-path="url(#clip0_13_1702)">
<path fill-rule="evenodd" clip-rule="evenodd" d="M-1174 -1205H1326V1295H-1174V-1205Z" fill="#F6F7FA"/>
<path fill-rule="evenodd" clip-rule="evenodd" d="M49.7045 27.8831C53.3505 27.4937 57.2711 30.6989 58.4339 35.0203C59.0969 37.4827 58.7226 39.788 57.6037 41.3887L57.1056 41.2137C55.9738 40.8191 54.8583 40.4285 54.1418 39.6034C53.163 38.4755 52.6227 36.9322 52.0841 35.3912C51.6772 34.2284 51.2703 33.0656 50.668 32.012V32.0092C50.1266 31.0608 49.3932 30.2453 48.6666 29.4365C48.3755 29.1159 48.0903 28.7899 47.8111 28.4589C48.3991 28.1464 49.0421 27.9508 49.7045 27.8831ZM56.4449 42.5937C55.7374 43.1233 54.8881 43.4666 53.9251 43.5696C50.2786 43.9586 46.3579 40.7521 45.1951 36.4319C44.4308 33.5913 45.0454 30.9567 46.5932 29.3757C46.8988 29.7425 47.2126 30.1024 47.5342 30.4552C48.2045 31.2015 48.8816 31.9546 49.3448 32.7651V32.7617C49.8818 33.7016 50.265 34.7958 50.6472 35.8904C51.2348 37.5699 51.8229 39.2522 52.9908 40.5974C53.9347 41.6859 55.1751 42.1485 56.4449 42.5937Z" fill="#707070"/>
<path fill-rule="evenodd" clip-rule="evenodd" d="M126.1 36.0961H129.809V44.2537H126.1V36.0961ZM109.635 30.3114H118.98V34.0193H113.344V36.0961H118.98V39.0633H113.344V40.6944H118.98V44.4023H109.635V30.3114ZM96.4344 36.0961H100.143V40.8142H101.131C102.779 40.8142 104.899 39.7888 104.879 37.5262C104.859 35.2631 103.1 33.8707 101.425 33.8707H96.2914V30.3108H101.553C105.155 30.3108 108.627 33.8313 108.609 37.296C108.59 40.7597 106.122 44.2531 100.143 44.2531H96.4344V36.0961ZM91.0949 30.3114H94.8028V33.8707H91.0949V30.3114ZM91.0949 36.0961H94.8028V44.2537H91.0949V36.0961ZM79.7387 30.3114H84.9905C87.011 30.3114 89.2415 32.6133 89.2415 34.6339C89.2415 36.7822 87.1388 39.4787 84.9905 39.4787H83.3813V44.2537H79.6734V36.0544H79.7387V36.0511H84.8661C85.434 36.0511 85.9422 35.5468 85.9444 34.9305C85.9467 34.3142 85.4402 33.8712 84.6111 33.874L79.7596 33.8921L79.7387 30.3114ZM77.1238 30.3136H71.3172C70.3063 30.3136 67.4629 32.0156 73.5212 37.2437C74.8174 38.3626 73.8859 40.6066 72.7552 40.6066H68.6865V44.4197H73.7317C76.4237 44.4197 78.5759 41.6377 78.6913 39.4466C78.8236 36.9229 76.2385 35.3323 75.0937 34.1892C74.59 33.6855 74.8782 33.681 75.0937 33.681H77.1886L77.1238 30.3136ZM59.6436 32.9099C60.1012 33.8256 60.5093 34.7652 60.8661 35.7246C64.4845 45.488 61.1143 53.4497 53.363 53.4497C47.8096 53.4497 41.4762 49.3613 37 43.4528L44.7051 40.9234C45.6197 42.2534 46.7419 43.3937 47.9779 44.2672C48.6143 44.7211 49.2966 45.1068 50.0137 45.4182C50.8742 45.7896 51.7916 46.0468 52.7259 46.138C53.4233 46.2061 54.1285 46.1875 54.8191 46.0643C59.1376 45.296 61.5668 40.7506 60.476 35.5231C60.2841 34.5995 59.9492 33.7232 59.6436 32.9099ZM53.3658 26.1909L53.5105 26.2607L53.3658 26.1909ZM53.8386 26.4301L53.9788 26.5067C53.932 26.4808 53.8859 26.4549 53.8386 26.4301ZM54.8382 27.0352L54.9581 27.1168C54.9183 27.0892 54.8784 27.062 54.8382 27.0352ZM55.1134 27.2265L55.2288 27.3104C55.1907 27.2819 55.1522 27.254 55.1134 27.2265ZM55.7224 27.692L55.8378 27.7871C55.7996 27.7551 55.7611 27.7234 55.7224 27.692Z" fill="#707070"/>
<path fill-rule="evenodd" clip-rule="evenodd" d="M50.0139 18C55.6692 18 62.1343 22.2398 66.6223 28.3245L58.6071 30.9557C57.9407 29.9042 57.1351 28.9478 56.2123 28.1123C55.1862 27.1876 54.0071 26.4165 52.7199 25.91C51.7237 25.5177 50.6634 25.2846 49.5906 25.274C48.1369 25.2604 46.7084 25.6646 45.5163 26.5043C43.7389 27.7549 42.7185 29.8041 42.4067 31.9232L42.4056 31.9333C42.2323 33.1203 42.2598 34.4075 42.5176 35.7403L42.5187 35.7459L42.5109 35.7256C38.8919 25.9623 42.2626 18 50.0139 18ZM120.315 30.3112H131.44V30.3219H131.642C134.439 30.3219 135.892 32.2699 135.915 35.4375H135.89V44.2536H132.182V35.3542H132.192C132.19 34.6895 131.924 34.1734 131.24 34.1728L126.388 34.17V34.1672H124.024V44.253H120.316V30.3112H120.315Z" fill="#707070"/>
</g>
<defs>
<clipPath id="clip0_13_1702">
<rect width="2500" height="2500" fill="white" transform="translate(-1160 -1215)"/>
</clipPath>
</defs>
</svg>
