<svg width="147" height="44" viewBox="0 0 147 44" fill="none" xmlns="http://www.w3.org/2000/svg">
<path d="M19.9875 21.6931L17.853 22.9251L13.369 27.4377C11.7313 29.1081 10.7176 31.3882 10.7188 33.913C10.7188 34.9547 10.8889 35.9576 11.2058 36.8927C12.4459 40.5492 15.911 43.1817 19.9875 43.1817C24.0635 43.1817 27.5148 40.5498 28.7549 36.8927C29.0718 35.9581 29.2563 34.9547 29.2563 33.913C29.2563 31.3882 28.2432 29.1081 26.606 27.4377L22.122 22.9251L19.9875 21.6931V21.6931Z" fill="#999999"/>
<path d="M30.8759 18.5415C29.9915 18.513 29.1182 18.6097 28.2686 18.828L22.1228 20.4611L19.9883 21.6931V24.1572L21.6501 30.2886C22.2787 32.5446 23.7479 34.572 25.9335 35.8327C26.836 36.3541 27.7878 36.6996 28.7556 36.8928C29.3545 37.0125 29.9596 37.0647 30.5607 37.0647C33.7622 37.0647 36.8818 35.4103 38.5974 32.4374C40.6351 28.9076 40.0844 24.5961 37.5373 21.6931C36.8869 20.9511 36.1047 20.2938 35.2022 19.7735C33.8359 18.9845 32.3498 18.5888 30.8759 18.5415Z" fill="#999999"/>
<path d="M9.40154 6.32178C6.19945 6.32178 3.09477 7.97611 1.37912 10.949C-0.65972 14.4783 -0.107892 18.7909 2.43923 21.6933C3.09019 22.4348 3.8718 23.0915 4.77432 23.613C6.95986 24.8759 9.44165 25.1401 11.708 24.5585L17.8537 22.9253L19.9883 21.6933V19.2293L18.3265 13.0979C17.6973 10.8441 16.2149 8.8156 14.0288 7.55379C13.1262 7.03233 12.175 6.6868 11.2066 6.49369C11.0481 6.96128 10.9317 7.4432 10.8484 7.94059C10.9317 7.4432 11.0484 6.96128 11.2066 6.49369C10.6089 6.37507 10.0021 6.32178 9.40154 6.32178Z" fill="#999999"/>
<path d="M9.08613 18.5415C7.61214 18.5887 6.14004 18.9848 4.77408 19.7735C3.87156 20.2944 3.08994 20.9505 2.43898 21.6931C-0.108137 24.5955 -0.659392 28.907 1.37888 32.4374C3.0951 35.4092 6.1992 37.0647 9.4013 37.0647C10.0024 37.0647 10.6081 37.0119 11.2063 36.8927C12.1742 36.7002 13.1266 36.3535 14.0285 35.8326C16.2146 34.5697 17.6965 32.5446 18.3262 30.2886L19.988 24.1572V21.6931L17.8535 20.4611L11.7077 18.828C10.8579 18.6092 9.97052 18.5131 9.08613 18.5415Z" fill="#999999"/>
<path d="M30.5607 6.32178C29.9596 6.32178 29.3545 6.3745 28.7556 6.49369C27.7878 6.68622 26.836 7.03291 25.9335 7.55379C23.7474 8.8156 22.2787 10.8453 21.6501 13.0979L19.9883 19.2293V21.6933L22.1228 22.9253L28.2686 24.5585C30.5343 25.1407 33.0167 24.8742 35.2022 23.613C36.1047 23.0921 36.8864 22.4354 37.5373 21.6933C40.0844 18.7903 40.6368 14.4794 38.5974 10.949C36.8824 7.97783 33.7628 6.32178 30.5607 6.32178Z" fill="#999999"/>
<path d="M19.9875 0.20459C15.911 0.203215 12.4464 2.83594 11.2058 6.49359C10.8889 7.42878 10.7188 8.43158 10.7188 9.47335C10.7188 11.997 11.7324 14.2771 13.369 15.9486L17.853 20.4612L19.9875 21.6932L22.122 20.4612L26.606 15.9486C28.2432 14.2776 29.2563 11.9958 29.2563 9.47335C29.2563 8.43101 29.0723 7.42821 28.7549 6.49359C27.5143 2.83594 24.0629 0.203444 19.9875 0.20459Z" fill="#999999"/>
<path d="M18.3246 30.2939L19.9846 24.1608V21.6938L17.8478 22.927L13.3661 27.4328C11.7284 29.1031 10.7176 31.3907 10.7188 33.9154C10.7188 34.9572 10.8935 35.9577 11.2104 36.8929C12.1783 36.7004 13.1318 36.3514 14.0337 35.8305C16.2198 34.5675 17.6948 32.5499 18.3246 30.2939" fill="#707070"/>
<path d="M4.76697 23.6074C6.95251 24.8704 9.43946 25.1374 11.7058 24.5558L17.847 22.9272L19.9849 21.6935L17.847 20.4592L11.7058 18.8312C9.43946 18.2479 6.95251 18.5166 4.76697 19.7784C3.86445 20.2993 3.08456 20.9508 2.43359 21.6935C3.08456 22.435 3.86445 23.0859 4.76697 23.6074" fill="#707070"/>
<path d="M14.0335 7.55686C13.131 7.0354 12.1769 6.68701 11.2085 6.4939C10.8916 7.42908 10.7168 8.43015 10.7168 9.47192C10.7168 11.9955 11.7282 14.2831 13.3648 15.9546L17.8464 20.4592L19.9844 21.6941V19.2255L18.3238 13.0923C17.6946 10.8386 16.2196 8.81867 14.0335 7.55686" fill="#707070"/>
<path d="M26.6034 15.9546C28.2406 14.2836 29.2514 11.9949 29.2514 9.47243C29.2514 8.43009 29.0766 7.429 28.7592 6.49438C27.7913 6.68692 26.8378 7.0359 25.9353 7.55678C23.7492 8.8186 22.2742 10.8385 21.6456 13.0911L19.9844 19.2254L19.985 21.6934L22.1218 20.4592L26.6035 15.9546" fill="#707070"/>
<path d="M21.6464 30.2939C22.275 32.5499 23.7511 34.5675 25.9367 35.8282C26.8392 36.3497 27.7933 36.6986 28.7611 36.8917C29.078 35.9571 29.2528 34.9572 29.2528 33.9154C29.2528 31.3907 28.2414 29.1031 26.6043 27.4328L22.1226 22.927L19.9863 21.6938V24.1608L21.6464 30.2939V30.2939Z" fill="#707070"/>
<path d="M28.2635 24.5557C30.5293 25.1379 33.0162 24.8686 35.2018 23.6073C36.1043 23.0864 36.8836 22.4349 37.5346 21.6928C36.8842 20.9507 36.1049 20.2992 35.2023 19.7789C33.0162 18.5165 30.5293 18.2483 28.2635 18.8305L22.1212 20.459L19.9844 21.6933L22.1212 22.9271L28.2635 24.5557V24.5557Z" fill="#707070"/>
<path d="M137.926 16.1309C133.97 16.1309 131.9 19.3238 131.9 22.4778C131.9 25.6312 133.97 28.8235 137.926 28.8235C141.883 28.8235 143.953 25.6312 143.953 22.4778C143.953 19.3238 141.883 16.1309 137.926 16.1309ZM137.926 30.6463C133.308 30.6463 129.824 27.1353 129.824 22.4778C129.824 17.8213 133.308 14.3098 137.926 14.3098C142.548 14.3098 146.032 17.8213 146.032 22.4778C146.032 27.1353 142.548 30.6463 137.926 30.6463Z" fill="#1D1C20"/>
<path d="M52.7661 30.262H52.5609H51.624C51.1707 30.262 50.8017 29.8953 50.8017 29.4443V15.9735L45.9705 15.973C45.5161 15.973 45.1465 15.6069 45.1465 15.1559V14.3559V14.1514H45.3511H57.6259C58.0792 14.1514 58.4482 14.5181 58.4482 14.9685V15.7696V15.9736H58.2437H52.7661V30.0593V30.2638V30.262Z" fill="#1D1C20"/>
<path d="M82.5022 30.6464C80.4107 30.6464 78.7214 29.8602 77.6166 28.3715L77.5117 28.2288L77.6372 28.1044L78.416 27.332L78.4246 27.3228L78.4349 27.3159C78.5782 27.2036 78.761 27.1423 78.9501 27.1423C79.1953 27.1423 79.4228 27.2495 79.5741 27.4369C80.299 28.3251 81.3906 28.8356 82.5682 28.8356C84.034 28.8356 85.6167 27.8443 85.6167 26.2421C85.6167 24.3855 84.0569 23.8835 82.2507 23.3019C81.6966 23.1237 81.1241 22.9391 80.5861 22.7076C79.3368 22.169 77.847 21.0568 77.847 18.8162C77.847 15.7029 80.4113 14.3093 82.9532 14.3093C84.858 14.3093 86.2407 14.9075 87.3048 16.1929L87.4286 16.3418L87.2859 16.4737L86.5691 17.1338L86.5633 17.1384L86.5576 17.1429C86.3765 17.2873 86.1846 17.3613 85.9874 17.3613C85.6917 17.3613 85.4757 17.1957 85.3737 17.0971C84.6672 16.4129 83.8942 16.0937 82.9412 16.0937C81.4399 16.0937 79.9236 16.8897 79.9236 18.6661C79.9236 20.023 80.6519 20.5519 82.0862 21.1066C82.4587 21.2516 82.8501 21.3805 83.2638 21.5175C83.6563 21.647 84.0615 21.7805 84.4557 21.9306C85.8356 22.4601 87.6704 23.4635 87.6704 26.0541C87.6704 29.0373 85.0081 30.6464 82.5023 30.6464" fill="#1D1C20"/>
<path d="M95.694 30.6468C94.2345 30.6468 92.2019 30.252 90.8072 28.3713L90.7012 28.2292L90.8272 28.1043L91.6071 27.3319L91.6158 27.3236L91.6255 27.3163C91.7688 27.204 91.9516 27.1421 92.1401 27.1421C92.3882 27.1421 92.6163 27.2498 92.7658 27.4378C93.4896 28.3254 94.5806 28.8354 95.7588 28.8354C97.2252 28.8354 98.8084 27.8441 98.8084 26.2424C98.8084 24.3853 97.2487 23.8833 95.4419 23.3022C94.8872 23.1234 94.3147 22.9395 93.7761 22.7074C92.5263 22.1682 91.0359 21.0548 91.0359 18.8165C91.0359 15.7033 93.6013 14.3091 96.1439 14.3091C98.0492 14.3091 99.4325 14.9079 100.498 16.1926L100.623 16.3422L100.48 16.4734L99.762 17.1341L99.7562 17.1387L99.7505 17.1433C99.5689 17.2877 99.3763 17.361 99.1798 17.361C98.8852 17.361 98.6692 17.196 98.5666 17.0975C97.8589 16.4127 97.0853 16.0941 96.1318 16.0941C94.6305 16.0941 93.1148 16.8894 93.1148 18.6664C93.1148 20.0228 93.8431 20.5522 95.2757 21.1064C95.6465 21.2508 96.0361 21.3797 96.4487 21.5155C96.843 21.6456 97.2504 21.7797 97.6458 21.9309C99.0268 22.4593 100.864 23.4621 100.864 26.0545C100.864 29.0371 98.1993 30.6467 95.694 30.6467" fill="#1D1C20"/>
<path d="M74.6184 30.262H74.4139H73.4787C73.0243 30.262 72.6547 29.8952 72.6547 29.4443L72.6579 22.0287C72.6579 20.4494 72.0665 19.0111 70.9938 17.9791C69.8065 16.8387 68.257 16.2113 66.6285 16.2113C63.3186 16.2113 60.6197 18.9429 60.6128 22.3009C60.6237 25.6806 63.1914 28.3331 66.4594 28.3389H70.1961C70.6506 28.3389 71.0207 28.7056 71.0207 29.1572L71.0198 30.0528V30.2574H70.8152L66.4528 30.262C64.332 30.262 62.3573 29.4299 60.8921 27.9194C59.4463 26.4336 58.6504 24.4394 58.6504 22.3049C58.6513 17.9029 62.253 14.3237 66.6791 14.3237C71.2072 14.3306 74.6207 17.6118 74.6207 21.9565L74.6184 30.0603V30.2648V30.262Z" fill="#1D1C20"/>
<path d="M106.636 30.2615H106.432H105.484C105.031 30.2615 104.662 29.8942 104.662 29.4427V14.8992V14.6946H104.867H105.814C106.267 14.6946 106.636 15.0613 106.636 15.5129V30.0569V30.2615Z" fill="#1D1C20"/>
<path d="M119.049 30.2667C118.734 30.2667 118.43 30.0765 118.276 29.7826L118.271 29.7743L118.268 29.767L113.318 17.9643C113.317 20.5475 113.316 30.0569 113.316 30.0569V30.2615H113.111H112.236C111.783 30.2615 111.414 29.8948 111.414 29.4444V14.8991V14.6946H111.619H113.321C113.663 14.6946 114.099 14.8539 114.299 15.3009L119.105 26.7712L124.012 14.8224L124.064 14.6957H124.201H125.932C126.387 14.6957 126.756 15.0625 126.756 15.5129V30.0569V30.2615H126.552L125.579 30.2569C125.126 30.2569 124.756 29.8908 124.756 29.441V17.9557L119.792 29.7653C119.667 30.0678 119.375 30.2649 119.049 30.2649" fill="#1D1C20"/>
</svg>
