<svg width="159" height="35" viewBox="0 0 159 35" fill="none" xmlns="http://www.w3.org/2000/svg">
<path d="M11.2946 0.424252C9.65069 0.954556 1.11281 8.85607 0.47645 10.5C-0.265974 12.4621 0.370389 13.6818 3.76433 17.0758C5.67342 18.9849 6.89312 20.5758 6.89312 21.3182V22.4318L8.2719 21.1591C10.4461 19.0909 11.7719 16.5985 11.4007 15.2727C11.1886 14.5833 10.0749 13.0455 8.90827 11.8258C7.7416 10.6591 6.94615 9.38637 7.10524 9.06819C7.52948 8.3788 18.5598 8.27274 18.5598 8.9091C18.5598 9.17425 16.1734 14.5833 13.2568 20.947C10.3401 27.2576 7.95372 32.6667 7.95372 32.9318C7.95372 33.6743 14.9537 33.4621 16.3855 32.7197C17.2871 32.2424 19.0371 29.1667 22.5901 21.7424C25.2946 16.0682 27.8931 10.7652 28.3174 9.91668C29.1128 8.48486 29.1658 8.48486 34.8401 8.48486C41.681 8.48486 42.2643 8.16668 44.5446 3.71213C45.4461 1.96213 46.1355 0.424252 46.1355 0.265163C46.1355 -0.106052 12.6734 0.0530396 11.2946 0.424252Z" fill="#707070"/>
<path d="M56.9547 1.80296C55.5229 2.43932 54.5683 3.87114 50.7501 11.5075C46.5608 19.6742 45.9774 20.5757 43.6441 22.1136C40.3032 24.3408 37.5456 25.4545 35.3183 25.4545C33.038 25.4545 32.6138 24.3939 33.8865 21.8484C35.5835 18.5075 36.8032 17.7651 40.5683 17.7651C44.3865 17.7651 45.182 17.2878 46.985 13.7348L48.2577 11.1893L46.3486 10.8181C40.8335 9.81053 33.3562 11.8787 29.7501 15.4317C25.7729 19.409 21.8486 27.6287 22.5911 30.4924C23.0153 32.2424 24.7123 33.409 26.8865 33.409C29.3789 33.409 35.2653 31.0757 39.5077 28.3711C41.5229 27.0984 43.2729 26.1439 43.3789 26.2499C43.485 26.303 42.8486 27.8408 41.9471 29.6439C41.0456 31.3939 40.3032 32.9848 40.3032 33.1439C40.3032 33.5151 47.4623 33.462 48.4698 33.0908C48.9471 32.9317 50.1668 31.2878 51.2805 29.4848C54.7274 23.6514 58.5986 19.6742 59.6592 20.7878C59.8183 20.9469 58.9698 23.1742 57.6971 25.7196C55.6289 30.0681 55.5229 30.4393 56.2653 31.7651C56.8486 32.8257 57.538 33.1969 59.0229 33.303C60.6668 33.462 61.8865 32.9317 66.6062 29.962C69.735 28.053 72.3335 26.5681 72.4395 26.6742C72.5986 26.7802 72.2804 27.7878 71.8562 28.8484C71.0608 30.6514 71.0608 30.9696 71.8562 32.1363C73.3411 34.4166 75.6744 33.8863 82.5153 29.6969C85.8562 27.6287 88.6668 25.9848 88.8259 25.9848C88.932 25.9848 88.6668 26.8333 88.2426 27.8939C85.6441 34.0984 91.3183 35.6363 100.599 31.2878C104.894 29.3257 107.652 27.2575 111.205 23.3863C112.69 21.7423 114.068 20.5757 114.227 20.6817C114.387 20.8408 114.174 21.9545 113.75 23.0681C112.159 27.5757 113.22 32.4014 116.19 33.9924C116.879 34.3105 118.629 34.5757 120.114 34.5757C123.667 34.5757 127.591 32.6136 131.091 29.1136C133.424 26.7802 136.288 21.9545 136.288 20.2575C136.288 19.1969 132.523 19.5151 129.553 20.9469C128.015 21.6363 126.743 22.1136 126.743 21.9545C126.743 21.7954 128.068 21.106 129.659 20.3636C132.046 19.2499 133.849 18.9317 139.576 18.5605C147.53 18.0833 148.697 17.712 152.621 14.7954C155.061 12.9393 158.879 8.59083 158.402 8.16659C158.349 8.06053 157.076 8.59083 155.591 9.33326C152.727 10.712 147.318 11.8787 140.265 12.5681C136.341 12.9393 135.864 12.8863 134.167 11.7727C131.78 10.1287 128.28 10.3408 123.879 12.356C120.061 14.106 116.349 14.3181 115.871 12.7802C114.811 9.43932 106.591 12.5681 103.78 17.3939C102.985 18.7727 102.879 19.2499 103.409 19.8863C103.78 20.3105 104.417 20.6817 104.788 20.6817C105.955 20.6817 105.637 21.5302 103.727 23.5454C101.977 25.4545 99.1668 26.1969 99.1668 24.7651C99.1668 24.4469 100.387 21.6363 101.871 18.5605C103.727 14.6893 105.371 12.1439 107.387 10.0227C110.674 6.57568 111.629 4.66659 110.833 3.18174C109.72 1.16659 103.25 1.11356 101.129 3.12871C100.493 3.71205 98.2123 7.68932 96.038 12.0378C92.2729 19.6211 92.0077 19.9923 88.6668 22.4848C85.2198 25.0833 83.2577 25.9848 83.2577 25.0833C83.2577 24.7651 84.6895 21.5833 86.3865 17.9772L89.5153 11.4014L85.5911 11.2423C83.4168 11.1363 81.1895 11.3484 80.5532 11.6666C79.9698 11.9848 78.6441 14.106 77.6365 16.3333C76.0986 19.7272 75.3032 20.8408 72.9168 22.6969C70.1062 24.8181 68.4092 25.5075 68.4092 24.4469C68.4092 24.1817 69.3638 22.1666 70.5835 19.9393C73.235 15.0075 73.8714 12.9393 73.1289 11.5605C71.8032 9.06811 64.6441 11.7727 58.7577 16.9696C57.3259 18.1893 56.2123 19.0378 56.2123 18.8257C56.2123 17.4999 59.1289 13.3636 62.6289 9.7575C65.9168 6.36356 66.8183 5.09083 66.8183 3.87114C66.8183 3.02265 66.5532 2.06811 66.182 1.6969C65.3335 0.848412 59.0229 0.90144 56.9547 1.80296ZM130.561 13.5227C130.455 14.106 129.5 15.856 128.44 17.3939C124.833 22.5378 122.023 27.8408 121.652 30.0681C121.28 32.7196 120.273 33.7802 119.371 32.6666C118.523 31.659 119.743 28.9014 123.667 22.803C125.258 20.3105 126.902 17.3408 127.273 16.1742C127.644 15.0075 128.174 13.6287 128.44 13.0984C129.076 11.8257 130.773 12.1969 130.561 13.5227Z" fill="#707070"/>
<path d="M85.0069 1.96198C83.8403 2.91652 81.719 7.05289 81.666 8.32561C81.666 9.1741 87.8175 9.28016 89.8327 8.4847C91.4766 7.90137 93.969 4.03016 93.7569 2.49228C93.5978 1.43167 93.2266 1.32561 89.8857 1.16652C87.0221 1.11349 85.9084 1.27258 85.0069 1.96198Z" fill="#707070"/>
</svg>
