<svg width="122" height="41" viewBox="0 0 122 41" fill="none" xmlns="http://www.w3.org/2000/svg">
<path d="M99.0036 33.232C99.0036 33.0693 98.8816 32.9067 98.9833 32.7643C99.0036 32.5 99.3086 32.317 99.39 32.0323C99.3086 31.5443 99.6746 31.2393 99.8576 30.8123C100.061 30.548 100.407 30.365 100.549 30.0803C100.834 29.9177 101.098 30.0193 101.403 29.999C101.708 30.1413 102.196 29.8567 102.379 30.3243C102.623 30.3447 102.501 30.6293 102.745 30.7107C102.806 31.0157 103.009 31.3003 102.948 31.646C102.989 31.7273 103.111 31.7477 103.111 31.8697C103.213 32.195 102.806 32.3983 102.989 32.7237C102.379 33.1303 102.155 33.8013 101.647 34.3097C101.22 34.2487 101.078 34.818 100.63 34.6147C100.407 34.7773 100.163 34.4113 99.9186 34.574C99.5933 34.574 99.634 34.2283 99.3696 34.147C99.146 33.964 99.1053 33.6387 98.963 33.476L99.0036 33.232ZM88.044 11.028C87.8203 10.7433 87.922 10.4993 87.8203 10.1943C87.8406 9.74699 87.983 9.29965 88.2473 8.91332C88.3693 8.64898 88.776 8.81165 88.7556 8.48632C88.9183 8.48632 89.081 8.40499 89.1623 8.26265C89.4063 8.34399 89.691 8.32365 89.8536 8.56765C90.179 8.66932 90.484 8.81165 90.7686 9.03532C90.789 9.42165 91.2973 9.25898 91.3583 9.64532C91.6023 9.84865 91.9886 9.64532 92.131 10.0113C92.4156 10.113 92.741 10.1943 92.8426 10.54C92.924 10.7433 93.412 10.784 93.2086 11.0686C93.3306 11.394 93.1273 11.7397 93.3916 12.0447C93.3103 12.4513 92.8223 12.4717 92.741 12.919C92.5173 13.0003 92.2936 13.102 92.0903 13.2443C91.8666 13.2647 91.643 13.3663 91.5006 13.5493C91.2363 13.4477 90.8703 13.6713 90.789 13.4273C90.5246 13.1427 90.118 13.2647 89.874 13.041C89.7723 13.0207 89.6706 13.0613 89.63 12.919C89.264 12.98 89.4063 12.5937 89.081 12.553C88.9386 12.1463 88.4506 12.1463 88.3286 11.6786C88.227 11.699 88.2066 11.5567 88.1456 11.4957C88.166 11.3737 88.0033 11.1906 88.044 11.028ZM95.0183 20.91C95.425 19.995 94.937 20.2797 94.8353 20.0357C94.51 19.873 94.632 19.507 94.388 19.263C94.51 19.0597 94.2456 19.019 94.2456 18.836C94.2863 18.592 94.1236 18.3886 94.1033 18.165C94.0016 18.165 93.961 18.043 93.961 17.9616C94.0626 17.5143 94.1033 17.067 94.083 16.5993C93.778 16.3147 94.3066 15.9283 94.1846 15.5827C94.571 15.0947 94.022 14.4236 94.5913 14.017C94.9573 13.346 95.3843 12.7157 95.8926 12.1463C96.3196 11.4753 96.8686 10.8857 97.5193 10.418C97.5193 10.418 97.7633 10.1943 97.743 10.1536C97.926 9.84865 98.231 9.72665 98.4343 9.42165C98.841 9.13698 99.268 9.11665 99.6136 8.73032C100.407 8.46598 101.24 7.87632 102.074 7.63232C102.562 7.67298 103.03 7.40865 103.518 7.42898C104.677 7.12398 105.897 7.18498 107.035 7.57132C107.34 7.57132 107.645 7.85598 108.011 7.77465C108.357 8.12032 108.947 8.07965 109.313 8.46599C109.902 8.79132 110.411 8.99465 110.96 9.34032C111.244 9.58432 111.671 9.72665 111.854 10.1333C112.098 10.0927 112.281 10.357 112.485 10.479C112.566 10.784 112.891 10.967 113.074 11.2313C113.481 11.9023 113.806 12.614 113.989 13.3867C114.152 13.6917 114.03 14.0373 114.172 14.322C114.355 14.5253 114.01 14.7896 114.315 14.932C114.213 15.1963 114.457 15.3793 114.437 15.6437C114.294 15.9487 114.315 16.3147 114.437 16.6197C114.193 16.9247 114.437 17.311 114.315 17.6566C114.376 17.86 114.233 18.0837 114.294 18.287C114.416 18.5107 114.172 18.7343 114.233 18.958C114.254 19.4663 113.786 19.995 113.786 20.5643C113.644 20.849 113.522 21.1336 113.42 21.4183C113.135 22.1096 112.79 22.7807 112.363 23.3907C112.017 23.7363 111.773 24.143 111.427 24.448C111.305 24.753 110.96 24.9563 110.716 25.1393C110.39 25.363 110.106 25.6273 109.821 25.912C109.496 26.339 108.886 26.2983 108.581 26.644C108.418 26.7253 108.133 26.766 108.032 26.9693C107.686 27.132 107.239 27.1727 106.995 27.437C106.71 27.3963 106.466 27.6607 106.181 27.5793C105.958 27.62 105.734 27.6607 105.51 27.7217L105.49 27.7013C104.961 27.925 104.351 27.5997 103.843 27.7623C103.416 27.8233 103.111 27.5997 102.704 27.6403C102.298 27.437 101.911 27.5997 101.586 27.2743C101.423 27.3557 101.342 27.1523 101.159 27.2133C100.976 26.8473 100.549 26.888 100.285 26.583C99.7153 26.2983 99.146 25.9933 98.6173 25.6273C98.5766 25.4443 98.3936 25.3427 98.2106 25.3833C98.2106 25.119 97.9056 25.1393 97.8243 24.9157C97.5396 24.9157 97.5193 24.57 97.255 24.4683C97.255 24.3057 96.9703 24.326 96.9703 24.1633C96.767 24.143 96.767 23.8583 96.5433 23.8583C96.401 23.5126 96.035 23.2483 95.791 22.9637C95.4656 22.3333 95.3233 21.5606 95.0183 20.91ZM110.838 27.5387C110.675 27.1727 111.082 26.8677 111.082 26.5016C111.427 26.4203 111.305 25.9933 111.692 25.973C111.834 25.7493 112.037 25.5867 112.302 25.5053C112.464 25.607 112.586 25.424 112.749 25.4443C113.135 25.485 113.522 25.607 113.867 25.8103C114.071 25.7697 114.111 25.9933 114.233 25.9933C114.457 26.0543 114.579 26.339 114.864 26.339C115.413 26.522 115.616 26.9897 115.921 27.5183C116.002 27.5997 115.901 27.742 116.023 27.8437C116.165 27.8233 116.287 27.9047 116.328 28.047V28.0673C116.084 28.108 116.124 28.535 115.86 28.596C115.941 28.8603 115.575 28.9417 115.616 29.1247C115.311 29.023 115.331 29.4703 115.026 29.4297C114.701 29.5517 114.66 30.2633 114.172 29.8567C113.928 29.877 113.766 29.694 113.522 29.7753C113.217 29.6127 112.891 29.4703 112.566 29.3687C112.281 29.0637 111.773 29.1857 111.488 28.8197C111.346 28.535 110.858 28.3723 110.919 27.986C110.716 27.8843 110.797 27.681 110.838 27.5387ZM99.4713 3.26065C99.573 3.07765 99.573 2.83365 99.451 2.67098C99.4916 2.40665 99.3493 2.10165 99.5323 1.85765L99.4916 1.83732C99.4306 1.38998 99.634 1.18665 99.756 0.779983C100.122 0.82065 100.02 0.230984 100.447 0.332651C100.671 0.210651 100.732 -0.0536828 101.017 0.0276505C101.24 -0.0536828 101.464 0.0683147 101.667 0.088648C101.769 0.251315 101.891 0.352984 102.074 0.434317C102.318 0.922317 102.806 1.22732 102.989 1.67465C102.948 1.91865 103.111 2.06098 103.07 2.30498C103.131 2.69132 103.314 3.05732 103.579 3.34198C103.538 3.52498 103.762 3.58598 103.68 3.76898C103.782 4.01298 103.985 4.29765 103.741 4.54165C103.599 4.74498 103.416 4.88732 103.416 5.15165C102.989 5.31432 102.623 5.55832 102.298 5.88365C102.135 5.82265 102.013 5.92432 101.891 6.00565C101.891 6.14798 101.728 6.12765 101.667 6.10732C101.2 5.98532 100.773 5.72098 100.468 5.35498C100.346 4.88732 99.7966 4.74498 99.7153 4.31798C99.7153 3.95198 99.634 3.58598 99.4713 3.26065ZM116.084 18.0633C115.901 17.799 116.165 17.616 116.084 17.3313C116.511 17.006 116.429 16.4977 116.877 16.1927C117.121 15.8267 117.527 15.786 117.832 15.5217C118.076 15.542 118.32 15.5013 118.544 15.3997C118.991 15.3997 119.418 15.3183 119.886 15.2777C120.089 15.2573 120.069 15.481 120.293 15.5217C120.699 15.4607 120.862 15.786 121.248 15.847C121.167 16.1113 121.553 16.1926 121.472 16.457C121.574 16.8027 121.899 16.7823 122.001 17.067C121.797 17.1483 121.655 17.3313 121.635 17.555C121.879 17.7583 121.472 17.7177 121.492 17.9413C120.964 17.921 121.065 18.775 120.516 18.47C120.435 18.5106 120.394 18.592 120.435 18.6733C120.435 18.6936 120.455 18.714 120.476 18.7343C120.333 18.8767 120.11 18.714 120.008 18.897C119.337 18.9987 118.747 19.141 118.076 19.2223C117.609 19.446 117.08 18.958 116.633 18.7343C116.592 18.6123 116.511 18.653 116.429 18.6327C116.267 18.47 116.267 18.165 116.084 18.0633ZM111.163 6.47332L111.041 6.29032C111.204 6.22932 111.326 6.06665 111.326 5.88365C111.285 5.74132 111.509 5.63965 111.488 5.47698C111.976 5.13132 112.342 4.68398 112.83 4.31798C112.81 4.13498 113.013 4.17565 113.115 4.11465C113.461 4.37898 113.867 4.27732 114.233 4.56198C114.599 4.50098 114.498 4.94832 114.803 4.96865C114.843 5.39565 115.026 5.78198 115.291 6.10732C115.087 6.24965 115.25 6.67665 114.864 6.61565C114.742 6.94098 114.538 7.26632 114.315 7.53065C113.949 7.89665 113.318 8.01865 112.871 8.28298C112.566 7.99832 112.119 8.26265 111.834 7.97798L111.793 7.99832C111.448 7.61198 111.204 7.14432 111.102 6.63598C111.143 6.61565 111.163 6.53432 111.163 6.47332Z" fill="#707070"/>
<path d="M92.0084 20.9303H86.925V24.1226H92.0084V20.9303ZM92.0084 25.1393H86.925V39.8403H92.0084V25.1393ZM60.2273 30.3853H52.8057C53.2327 28.6976 54.7983 27.9656 56.5063 27.9453C57.4213 27.9046 58.3363 28.1283 59.109 28.6163C59.6987 29.0229 60.085 29.6533 60.2273 30.3853ZM49.5523 37.7256C50.996 39.1896 53.2937 40.1249 56.7503 40.1249C59.109 40.2469 61.4473 39.8403 63.623 38.9863L63.8873 38.8643V34.6146L63.196 35.0619C61.5897 36.1396 58.804 36.3226 57.645 36.3226C57.6043 36.3226 57.5433 36.3226 57.5027 36.3226C56.303 36.3836 55.083 36.1599 53.985 35.6719C53.253 35.2856 52.765 34.5536 52.704 33.7199H65.3513V32.4389C65.4937 30.0396 64.4363 27.7013 62.5047 26.2373C60.7967 25.0986 58.7633 24.5089 56.7097 24.5699C53.253 24.5699 50.935 25.4849 49.5117 26.9693C46.97 30.1006 46.97 34.6146 49.5523 37.7256ZM32.94 39.8403H38.064V33.4149C37.9827 32.3779 38.369 31.3816 39.101 30.6496C40.0363 29.9176 41.1953 29.5516 42.395 29.6329C43.249 29.6533 44.0827 29.7956 44.896 30.0396L45.4653 30.2023V24.9969L45.0993 24.9359C44.5097 24.8343 43.8997 24.7936 43.2897 24.7936C41.2157 24.6919 39.223 25.5663 37.9217 27.1726V25.1596H32.94V39.8403ZM54.107 23.5533L55.9777 20.9303H61.488L58.0924 23.5533H54.107ZM70.8007 25.1596H65.7174L72.6917 39.8403H77.9783L84.912 25.1596H79.91L75.518 35.2856L71.1057 25.1596H70.8007ZM0 17.1279H92.0084V18.6326C92.0084 18.6326 50.1623 19.0596 40.687 19.1613C25.4167 19.3443 24.9897 39.8403 24.9897 39.8403H7.137C7.54367 39.8403 27.1247 19.5069 0 20.8286V17.1279Z" fill="#707070"/>
</svg>
