<svg width="82" height="28" viewBox="0 0 82 28" fill="none" xmlns="http://www.w3.org/2000/svg">
<path fill-rule="evenodd" clip-rule="evenodd" d="M0 0.512372H10.5515V16.8874L13.3741 20.0999L16.1336 16.8874V0.388159H21.6995V17.8025L13.3746 27.8913L5.00176 18.0359V5.32411L0 0.512372ZM42.7711 14.4808C43.916 9.80932 47.9606 6.31683 52.7584 6.31683C58.4189 6.31683 63.06 11.1902 63.06 17.1504V17.197L48.3218 17.2445C51.191 15.8001 54.0759 14.3571 56.9451 12.9292C54.9856 10.5546 51.5213 10.3372 49.2315 12.7739C48.1649 13.9068 47.5229 15.4435 47.5229 17.1504C47.5229 20.5657 50.1411 23.3595 53.3392 23.3595C56.0673 23.3595 58.1523 21.016 59.4379 19.1994L62.7615 22.6914C60.5206 25.9355 57.6352 28 52.7589 28C48.1811 27.9534 43.9479 24.4605 42.7716 19.7584C42.5633 18.9044 42.4582 18.0289 42.4584 17.1504C42.4584 16.2348 42.5672 15.3348 42.7711 14.4808ZM43.1004 11.7496V7.09316H37.8017V0.279474H32.5019V7.32557H24.4275V27.7205H29.7425V11.7962H32.5019V23.3595C32.8783 25.9825 34.383 27.3324 37.7071 27.5653L42.6927 27.6278V22.0558H37.7541V11.7496H43.1004ZM63.5932 27.3634V0H68.7979V11.7186L74.7716 6.79864H82C79.4876 8.94119 76.979 11.088 74.4741 13.2392C76.1675 13.4721 78.7235 14.3105 78.5348 18.7652V27.3479H73.0007V19.4634C73.0311 18.671 72.9223 17.4299 71.5264 17.1965H68.7984V27.3629H63.5932V27.3634ZM29.7895 0.279474V5.21543H24.3805V0.279474H29.7895Z" fill="#707070"/>
</svg>
