<svg width="180" height="70" viewBox="0 0 180 70" fill="none" xmlns="http://www.w3.org/2000/svg">
<path d="M136.243 29.5031H150.032V31.9959H138.526H138.401L138.308 32.081L131.644 38.2233L131.541 38.3188V38.4598V44.1491H105.657V32.3175V31.9959H105.335H102.722H102.4V32.3175V44.1491H99.0585V32.3175V31.9959H98.7368H95.8619H95.5403V32.3175V44.1491H52.8637V40.4095L59.7107 32.5285L60.1734 31.9959H59.4678H48.0287V29.5031H65.5496V32.194L58.4454 40.0739L57.9613 40.611H58.6843H68.6156H68.9372V40.2893V29.5031H82.0798V38.1381H72.797H72.4754V38.4598V40.2893V40.611H72.797H84.8197H85.1413V40.2893V25.3217H88.8757V40.2893V40.611H89.1973H91.8111H92.1327V40.2893V29.5031H108.738V40.2893V40.611H109.059H111.804H112.125V40.2893V29.5031H125.269V38.1381H116.116H115.794V38.4598V40.2893V40.611H116.116H128.465H128.787V40.2893V29.5031H131.541V33.4285V34.2051L132.09 33.656L136.243 29.5031ZM78.6729 32.3175V31.9959H78.3513H72.7977H72.476V32.3175V34.9969V35.3185H72.7977H78.3513H78.6729V34.9969V32.3175ZM115.794 34.9969V35.3185H116.116H121.67H121.992V34.9969V32.3175V31.9959H121.67H116.116H115.794V32.3175V34.9969Z" fill="#707070" stroke="#707070" stroke-width="0.6433"/>
<path d="M45.6817 29.1814H30H45.6817ZM45.6817 32.3175H30H45.6817Z" fill="#707070"/>
<path d="M45.6817 32.3175H30M45.6817 29.1814H30H45.6817Z" stroke="#707070" stroke-width="0.589263" stroke-miterlimit="2.613" stroke-linejoin="round"/>
<path d="M147.017 38.4616L147.151 38.394L147.017 38.4615M147.017 38.4616L147.118 38.3336C147.071 38.3516 147.02 38.3661 146.967 38.3757C146.983 38.403 147 38.4314 147.016 38.461C147.016 38.4612 147.016 38.4614 147.017 38.4615M147.017 38.4616C147.017 38.4615 147.017 38.4615 147.017 38.4615M147.017 38.4616L146.796 38.4293C146.798 38.4322 146.801 38.4357 146.804 38.4398C146.818 38.4588 146.84 38.4914 146.863 38.5373L146.863 38.5373L146.864 38.5384L147.017 38.4615M147.191 37.9203C147.23 37.8846 147.262 37.8453 147.282 37.806C147.412 37.6755 147.478 37.5449 147.478 37.3487C147.478 37.2834 147.461 37.2181 147.445 37.1528C147.429 37.0875 147.412 37.0222 147.412 36.9569M147.191 37.9203L147.12 37.7699C147.13 37.7597 147.14 37.7495 147.148 37.7392C147.159 37.7269 147.169 37.7145 147.178 37.7021C147.278 37.5619 147.278 37.4193 147.278 37.3543C147.278 37.3524 147.278 37.3505 147.278 37.3487C147.278 37.3465 147.278 37.3443 147.278 37.3419C147.278 37.2864 147.278 37.1743 147.215 37.0551L147.412 36.9569M147.191 37.9203C147.141 37.8823 147.096 37.86 147.071 37.8474C147.07 37.8471 147.069 37.8467 147.069 37.8464L147.191 37.9203ZM147.412 36.9569C147.367 36.8658 147.289 36.8063 147.224 36.7566C147.196 36.735 147.171 36.7153 147.151 36.6957C147.111 36.6557 147.046 36.6403 146.956 36.619C146.9 36.6058 146.834 36.5903 146.759 36.5651M147.412 36.9569H147.16C147.155 36.9475 147.149 36.9382 147.143 36.9291C147.1 36.8687 147.05 36.8337 147.028 36.8191C147.028 36.8191 147.028 36.8191 147.028 36.8191C147.017 36.8119 147.006 36.8052 147 36.8016L146.998 36.8006L146.986 36.7926C146.985 36.7924 146.985 36.7922 146.985 36.792L146.893 36.7002H146.76H146.759V36.5651M146.759 36.5651H145.84V36.7002H146.041H146.714L146.759 36.5651ZM147.03 37.0129L146.89 37.1524M147.03 37.0129L146.048 37.7456H146.237H146.76V37.6755M147.03 37.0129C147.025 37.009 147.019 37.0048 147.014 37.0002C146.998 36.988 146.975 36.9703 146.951 36.9493C146.945 36.9475 146.937 36.9453 146.926 36.9427C146.916 36.9402 146.904 36.9373 146.89 36.934C146.879 36.9315 146.868 36.9288 146.856 36.9259C146.828 36.9191 146.795 36.911 146.76 36.9013C146.744 36.8968 146.727 36.892 146.709 36.8868H146.041H145.84L147.03 37.0129ZM146.89 37.1524C146.89 37.1119 146.865 37.0964 146.831 37.0751C146.809 37.062 146.785 37.0466 146.76 37.0219H146.363H146.041V37.3435V37.4194V37.7411H146.237H146.363V37.7408C146.561 37.7392 146.706 37.7301 146.76 37.6755M146.89 37.1524C146.956 37.2181 146.956 37.283 146.956 37.3487C146.956 37.4143 146.955 37.4799 146.89 37.5449C146.866 37.5696 146.85 37.5945 146.837 37.6158C146.816 37.6503 146.8 37.6755 146.76 37.6755M146.89 37.1524H147.114C147.12 37.1789 147.126 37.2024 147.131 37.2216C147.131 37.2249 147.132 37.2281 147.133 37.2311C147.151 37.304 147.156 37.3301 147.156 37.3487C147.156 37.4091 147.146 37.4451 147.135 37.4711C147.123 37.4986 147.101 37.5322 147.054 37.5786L147.017 37.6153L146.998 37.6529L146.995 37.6604C146.994 37.661 146.991 37.6661 146.983 37.6744C146.972 37.6854 146.956 37.698 146.936 37.7098C146.898 37.733 146.859 37.744 146.83 37.7454L146.76 37.6755M146.824 38.0672V38.1551L146.724 38.0355C146.742 38.0317 146.76 38.0273 146.778 38.0221C146.792 38.0181 146.807 38.013 146.824 38.0065C146.846 37.9983 146.869 37.9879 146.892 37.9746C146.907 37.9695 146.921 37.9635 146.935 37.9565L146.824 38.0672ZM145.518 36.8868H145.72H145.518ZM145.197 36.5473C145.114 36.6511 145.046 36.7668 144.995 36.8913L144.871 36.8166C144.877 36.8026 144.884 36.7885 144.891 36.7746L145.197 36.5473Z" fill="#707070" stroke="#707070" stroke-width="0.6433"/>
</svg>
